<svg width="40" height="40" viewBox="0 0 40 40" fill="none" xmlns="http://www.w3.org/2000/svg">
<g clip-path="url(#clip0_2_162)">
<path d="M35.4667 12.2667C35.4667 17.7895 30.9895 26.1333 25.4667 26.1333C19.9438 26.1333 15.4667 17.7895 15.4667 12.2667C15.4667 6.74381 19.9438 2.26666 25.4667 2.26666C30.9895 2.26666 35.4667 6.74381 35.4667 12.2667Z" fill="#C3C3E6"/>
<path d="M20 0.00656128C13.9718 0.00656128 9.06738 4.91094 9.06738 10.9391C9.06738 14.8462 10.9311 18.3859 14.4568 21.1759C16.3142 22.6457 18.1545 23.5379 19.1128 23.9485L17.6027 26.8983C17.5014 27.0961 17.5104 27.3323 17.6264 27.5219C17.7422 27.7115 17.9485 27.827 18.1707 27.827H19.3618V39.3552C19.3618 39.7076 19.6475 39.9934 19.9999 39.9934C20.3524 39.9934 20.638 39.7076 20.638 39.3552V27.8271H21.829C22.0511 27.8271 22.2575 27.7115 22.3733 27.5219C22.4892 27.3324 22.4982 27.0962 22.3969 26.8984L20.8741 23.9231C21.8174 23.4752 23.6755 22.4966 25.5513 20.9618C29.0718 18.0815 30.9326 14.6156 30.9326 10.9391C30.9325 4.91094 26.0282 0.00656128 20 0.00656128ZM19.2142 26.5509L19.9999 25.0161L20.7856 26.5509H19.2142ZM24.7688 19.953C22.7274 21.6291 20.6562 22.6258 19.9847 22.9269C19.3119 22.6591 17.2508 21.7662 15.22 20.1523C11.9842 17.5809 10.3436 14.4811 10.3436 10.9391C10.3436 5.61461 14.6754 1.28273 20 1.28273C25.3245 1.28273 29.6564 5.61461 29.6564 10.9391C29.6564 14.2577 28.012 17.2903 24.7688 19.953Z" fill="#1E1E1E"/>
<path d="M15.3411 23.4134C15.1239 23.1359 14.7228 23.0871 14.4453 23.3043C12.658 24.7037 10.9126 25.5468 10.3067 25.8195C9.66597 25.5641 7.76839 24.7386 5.8794 23.244C2.82925 20.8304 1.28269 17.9193 1.28269 14.5913C1.28269 10.2223 4.39698 6.48265 8.68792 5.69936C9.03464 5.63608 9.26433 5.30374 9.20105 4.95702C9.13784 4.6103 8.80558 4.38061 8.4587 4.4439C3.56128 5.33796 0.0065918 9.60561 0.0065918 14.5914C0.0065918 18.2764 1.76355 21.6145 5.08753 24.2448C6.81261 25.6098 8.52245 26.4462 9.43565 26.8401L7.92511 29.791C7.82386 29.9888 7.83276 30.2251 7.94878 30.4146C8.06472 30.6041 8.27097 30.7198 8.49308 30.7198H9.67112V39.3552C9.67112 39.7077 9.95683 39.9934 10.3092 39.9934C10.6617 39.9934 10.9474 39.7077 10.9474 39.3552V30.7198H12.1515C12.3737 30.7198 12.58 30.6042 12.6958 30.4147C12.8117 30.2252 12.8207 29.9888 12.7195 29.7911L11.196 26.8148C12.0375 26.4125 13.6045 25.5836 15.2321 24.3092C15.5096 24.0919 15.5583 23.6908 15.3411 23.4134ZM9.53659 29.4437L10.3223 27.9088L11.108 29.4437H9.53659Z" fill="#1E1E1E"/>
<path d="M31.5412 4.4439C31.195 4.38038 30.8623 4.6103 30.7989 4.95702C30.7356 5.30374 30.9653 5.63601 31.312 5.69937C35.6029 6.48265 38.7171 10.2223 38.7171 14.5913C38.7171 17.6985 37.1765 20.5391 34.1379 23.0344C32.2358 24.5964 30.3056 25.5299 29.662 25.8196C29.0303 25.5676 27.1769 24.7612 25.3148 23.3063C25.037 23.0894 24.6362 23.1385 24.4191 23.4162C24.2022 23.694 24.2513 24.095 24.5291 24.3119C26.2248 25.6368 27.8932 26.4523 28.7911 26.8401L27.2805 29.791C27.1792 29.9888 27.1881 30.2251 27.3041 30.4146C27.4199 30.6042 27.6262 30.7198 27.8484 30.7198H29.0264L29.0263 39.3552C29.0263 39.7076 29.3119 39.9933 29.6644 39.9933C30.0169 39.9933 30.3026 39.7076 30.3026 39.3552L30.3026 30.7198H31.5068C31.729 30.7198 31.9352 30.6041 32.0511 30.4146C32.1669 30.2251 32.176 29.9887 32.0747 29.791L30.5513 26.815C31.4505 26.3856 33.1772 25.4695 34.9205 24.0431C38.2393 21.3278 39.9934 18.0594 39.9934 14.5914C39.9933 9.60554 36.4387 5.33796 31.5412 4.4439ZM28.8919 29.4437L29.6776 27.9088L30.4633 29.4437H28.8919Z" fill="#1E1E1E"/>
<path d="M1.9143 28.5078C0.858672 28.5078 0 29.3666 0 30.4221C0 31.4777 0.858672 32.3364 1.9143 32.3364C2.96992 32.3364 3.82859 31.4777 3.82859 30.4221C3.82859 29.3665 2.96984 28.5078 1.9143 28.5078ZM1.9143 31.0602C1.56242 31.0602 1.27617 30.7741 1.27617 30.4221C1.27617 30.0702 1.56234 29.784 1.9143 29.784C2.26617 29.784 2.55242 30.0702 2.55242 30.4221C2.55234 30.774 2.26617 31.0602 1.9143 31.0602Z" fill="#1E1E1E"/>
<path d="M15.1547 32.3364C14.0991 32.3364 13.2404 33.1951 13.2404 34.2507C13.2404 35.3063 14.099 36.165 15.1547 36.165C16.2103 36.165 17.0689 35.3063 17.0689 34.2507C17.0689 33.1951 16.2101 32.3364 15.1547 32.3364ZM15.1547 34.8887C14.8028 34.8887 14.5165 34.6026 14.5165 34.2506C14.5165 33.8987 14.8027 33.6125 15.1547 33.6125C15.5065 33.6125 15.7928 33.8987 15.7928 34.2506C15.7928 34.6025 15.5065 34.8887 15.1547 34.8887Z" fill="#1E1E1E"/>
<path d="M5.46386 36.1649C4.40831 36.1649 3.54956 37.0236 3.54956 38.0792C3.54956 39.1348 4.40823 39.9935 5.46386 39.9935C6.5194 39.9935 7.37815 39.1348 7.37815 38.0792C7.37815 37.0236 6.51933 36.1649 5.46386 36.1649ZM5.46386 38.7173C5.11198 38.7173 4.82573 38.4311 4.82573 38.0791C4.82573 37.7273 5.1119 37.441 5.46386 37.441C5.81573 37.441 6.1019 37.7272 6.1019 38.0791C6.1019 38.4311 5.81565 38.7173 5.46386 38.7173Z" fill="#1E1E1E"/>
<path d="M34.5361 36.1649C33.4807 36.1649 32.6218 37.0236 32.6218 38.0792C32.6218 39.1348 33.4806 39.9935 34.5361 39.9935C35.5917 39.9935 36.4504 39.1348 36.4504 38.0792C36.4504 37.0236 35.5916 36.1649 34.5361 36.1649ZM34.5361 38.7173C34.1842 38.7173 33.898 38.4311 33.898 38.0791C33.898 37.7273 34.1842 37.441 34.5361 37.441C34.888 37.441 35.1742 37.7272 35.1742 38.0791C35.1742 38.4311 34.888 38.7173 34.5361 38.7173Z" fill="#1E1E1E"/>
<path d="M24.8323 32.3364C23.7768 32.3364 22.918 33.1951 22.918 34.2507C22.918 35.3063 23.7767 36.165 24.8323 36.165C25.8877 36.165 26.7466 35.3063 26.7466 34.2507C26.7466 33.1951 25.8878 32.3364 24.8323 32.3364ZM24.8323 34.8887C24.4804 34.8887 24.1942 34.6026 24.1942 34.2506C24.1942 33.8987 24.4804 33.6125 24.8323 33.6125C25.1841 33.6125 25.4704 33.8987 25.4704 34.2506C25.4704 34.6025 25.1841 34.8887 24.8323 34.8887Z" fill="#1E1E1E"/>
<path d="M38.0857 28.5078C37.0302 28.5078 36.1714 29.3665 36.1714 30.4221C36.1714 31.4777 37.0301 32.3364 38.0857 32.3364C39.1412 32.3364 40 31.4777 40 30.4221C40 29.3666 39.1412 28.5078 38.0857 28.5078ZM38.0857 31.0602C37.7338 31.0602 37.4476 30.7741 37.4476 30.4221C37.4476 30.0702 37.7337 29.784 38.0857 29.784C38.4376 29.784 38.7238 30.0702 38.7238 30.4221C38.7238 30.774 38.4376 31.0602 38.0857 31.0602Z" fill="#1E1E1E"/>
</g>
<defs>
<clipPath id="clip0_2_162">
<rect width="40" height="40" fill="white"/>
</clipPath>
</defs>
</svg>
