<svg width="40" height="40" viewBox="0 0 40 40" fill="none" xmlns="http://www.w3.org/2000/svg">
<g clip-path="url(#clip0_2_148)">
<path d="M2.86669 20C2.86669 20 20.8819 12.3986 23.2667 20C24.0149 22.3848 23.2667 26.4 23.2667 26.4C23.2667 26.4 5.25145 34.0014 2.86669 26.4C2.11854 24.0153 2.86669 20 2.86669 20Z" fill="#C3C3E6"/>
<path d="M8.27583 24.5977C7.07622 24.5977 6.10034 25.5736 6.10034 26.7732C6.10034 27.9728 7.07622 28.9487 8.27583 28.9487C9.47543 28.9487 10.4513 27.9727 10.4513 26.7732C10.4513 25.5737 9.47543 24.5977 8.27583 24.5977ZM8.27583 27.6455C7.79484 27.6455 7.4036 27.2541 7.4036 26.7732C7.4036 26.2923 7.79484 25.901 8.27583 25.901C8.75681 25.901 9.14805 26.2922 9.14805 26.7732C9.14805 27.2542 8.75681 27.6455 8.27583 27.6455Z" fill="#1E1E1E"/>
<path d="M31.0186 24.5977C29.819 24.5977 28.843 25.5736 28.843 26.7732C28.843 27.9728 29.819 28.9487 31.0186 28.9487C32.2181 28.9487 33.194 27.9727 33.194 26.7732C33.194 25.5737 32.2181 24.5977 31.0186 24.5977ZM31.0186 27.6455C30.5376 27.6455 30.1463 27.2541 30.1463 26.7732C30.1463 26.2923 30.5376 25.901 31.0186 25.901C31.4995 25.901 31.8907 26.2922 31.8907 26.7732C31.8907 27.2542 31.4995 27.6455 31.0186 27.6455Z" fill="#1E1E1E"/>
<path d="M35.5552 17.0659L29.7412 16.4017L26.6382 11.3575C25.6908 9.81726 23.9787 8.86041 22.1703 8.86041H11.6143C8.57986 8.86041 5.89802 10.9037 5.09252 13.8296L5.01016 14.1289C4.60988 15.5827 3.45971 16.7399 2.00841 17.1491C0.825917 17.4826 0 18.5735 0 19.8021V27.0145C0 27.3744 0.291756 27.6662 0.651629 27.6662H4.00161C4.41491 29.6469 6.17422 31.1396 8.27586 31.1396C10.3775 31.1396 12.1368 29.6469 12.5501 27.6662H26.7443C27.1576 29.6469 28.9169 31.1396 31.0186 31.1396C33.1202 31.1396 34.8795 29.6469 35.2928 27.6662H38.8096C39.1409 27.6662 39.4195 27.4176 39.4571 27.0884L39.9674 22.6153C40.2806 19.8695 38.3013 17.3801 35.5552 17.0659ZM3.92932 26.3629H1.30326V25.5711H4.07911C4.00587 25.8264 3.95486 26.0909 3.92932 26.3629ZM8.27586 29.8363C6.58684 29.8363 5.21277 28.4623 5.21277 26.7732C5.21277 25.0842 6.58684 23.7101 8.27586 23.7101C9.96488 23.7101 11.3389 25.0842 11.3389 26.7732C11.3389 28.4623 9.96488 29.8363 8.27586 29.8363ZM31.0186 29.8363C29.3295 29.8363 27.9555 28.4623 27.9555 26.7732C27.9555 25.0842 29.3295 23.7101 31.0186 23.7101C32.7076 23.7101 34.0817 25.0842 34.0817 26.7732C34.0817 28.4623 32.7076 29.8363 31.0186 29.8363ZM38.228 26.3629H35.365C35.3396 26.0909 35.2885 25.8264 35.2152 25.5711H38.3184L38.228 26.3629ZM38.6724 22.4676L38.467 24.2679H34.5913C33.8007 23.1436 32.4944 22.4068 31.0186 22.4068C29.5427 22.4068 28.2365 23.1436 27.4457 24.2679H15.8498C15.4899 24.2679 15.1982 24.5596 15.1982 24.9195C15.1982 25.2794 15.4899 25.5711 15.8498 25.5711H26.8218C26.7486 25.8264 26.6976 26.0909 26.672 26.3629H12.6224C12.4148 24.147 10.5451 22.4068 8.27586 22.4068C6.79996 22.4068 5.49375 23.1436 4.70302 24.2679H1.30326V19.8021C1.30326 19.1544 1.73872 18.5792 2.36211 18.4035C4.24992 17.8712 5.74597 16.3659 6.26667 14.4748L6.34903 14.1754C6.99927 11.8134 9.1645 10.1637 11.6143 10.1637H22.1703C23.5294 10.1637 24.8161 10.8828 25.5281 12.0404L28.7972 17.3545C28.9021 17.525 29.0795 17.6378 29.2783 17.6605L35.4072 18.3607C36.7975 18.5198 37.9218 19.4324 38.4194 20.6437H36.3852C36.0253 20.6437 35.7336 20.9354 35.7336 21.2953C35.7336 21.6552 36.0253 21.9469 36.3852 21.9469H38.6944C38.6989 22.1185 38.6924 22.2923 38.6724 22.4676Z" fill="#1E1E1E"/>
<path d="M22.2045 18.6994H20.8352C20.4753 18.6994 20.1836 18.9912 20.1836 19.351C20.1836 19.7109 20.4753 20.0027 20.8352 20.0027H22.2045C22.5644 20.0027 22.8561 19.7109 22.8561 19.351C22.8561 18.9912 22.5645 18.6994 22.2045 18.6994Z" fill="#1E1E1E"/>
<path d="M13.4536 19.351C13.4536 18.9912 13.1618 18.6994 12.8019 18.6994H11.4326C11.0728 18.6994 10.781 18.9912 10.781 19.351C10.781 19.7109 11.0728 20.0027 11.4326 20.0027H12.8019C13.1618 20.0027 13.4536 19.7109 13.4536 19.351Z" fill="#1E1E1E"/>
<path d="M14.2607 24.67C14.2533 24.6523 14.256 24.6589 14.2596 24.6676C14.1447 24.3985 13.8552 24.2297 13.5635 24.275C13.2986 24.3162 13.0837 24.5155 13.0237 24.7768C12.8937 25.3424 13.5494 25.7816 14.0263 25.457C14.278 25.2859 14.3765 24.9538 14.2616 24.6724C14.2653 24.6813 14.2684 24.6885 14.2607 24.67Z" fill="#1E1E1E"/>
<path d="M24.85 12.4585C24.2825 11.5343 23.2558 10.9601 22.1704 10.9601H11.614C9.52122 10.9601 7.67199 12.3691 7.1168 14.3871L7.03487 14.6858C6.82044 15.4639 6.49028 16.8006 6.47629 16.8571C6.42824 17.0516 6.47238 17.2573 6.59584 17.4151C6.71939 17.5728 6.90854 17.665 7.10889 17.665H26.8871C27.1232 17.665 27.3408 17.5373 27.4559 17.3312C27.5712 17.1252 27.5659 16.8729 27.4421 16.6719L24.85 12.4585ZM10.0175 16.3614H7.94393C8.05384 15.9277 8.18808 15.4066 8.29147 15.0312L8.37349 14.7322C8.62197 13.829 9.23059 13.0954 10.0175 12.669V16.3614ZM17.3204 12.2633V16.3615H11.3208V12.2764C11.4176 12.2679 11.5154 12.2633 11.614 12.2633H17.3204ZM18.6237 16.3615V12.2633H22.1704C22.806 12.2633 23.4072 12.5994 23.7397 13.1408L25.7212 16.3615H18.6237Z" fill="#1E1E1E"/>
</g>
<defs>
<clipPath id="clip0_2_148">
<rect width="40" height="40" fill="white"/>
</clipPath>
</defs>
</svg>
