<svg width="40" height="40" viewBox="0 0 40 40" fill="none" xmlns="http://www.w3.org/2000/svg">
<g clip-path="url(#clip0_2_220)">
<rect x="23.4667" y="5.33334" width="22" height="21.2" rx="10.6" fill="#C3C3E6"/>
<rect x="18.8" y="34.1333" width="11.6" height="3.06667" rx="1.53333" fill="#C3C3E6"/>
<path d="M40 2.81256H0V27.8126H17.4405L16.9291 33.4376H14.375C13.3411 33.4376 12.5 34.2787 12.5 35.3126C12.5 36.3465 13.3411 37.1875 14.375 37.1875H25.625C26.6589 37.1875 27.5 36.3465 27.5 35.3126C27.5 34.2787 26.6589 33.4376 25.625 33.4376H23.0709L22.5595 27.8126H40V2.81256ZM25.625 34.6876C25.9696 34.6876 26.25 34.9681 26.25 35.3126C26.25 35.6571 25.9695 35.9375 25.625 35.9375H14.375C14.0304 35.9375 13.75 35.6571 13.75 35.3126C13.75 34.9681 14.0305 34.6876 14.375 34.6876H25.625ZM18.1845 33.4375L18.6958 27.8125H21.3041L21.8155 33.4375H18.1845ZM38.75 26.5626H1.24999V4.06247H38.75V26.5626Z" fill="#1E1E1E"/>
<path d="M11.25 24.0625H3.125V25.3125H11.25V24.0625Z" fill="#1E1E1E"/>
<path d="M13.75 24.0625H12.5V25.3125H13.75V24.0625Z" fill="#1E1E1E"/>
<path d="M16.25 24.0625H15V25.3125H16.25V24.0625Z" fill="#1E1E1E"/>
<path d="M18.75 24.0625H17.5V25.3125H18.75V24.0625Z" fill="#1E1E1E"/>
<path d="M28.2545 10.4419L27.3707 9.5582L18.6208 18.3081L19.5046 19.1918L28.2545 10.4419Z" fill="#1E1E1E"/>
<path d="M24.8707 17.0587L25.7545 17.9425L28.2545 15.4426L27.3707 14.5588L24.8707 17.0587Z" fill="#1E1E1E"/>
<path d="M36.0667 7.62951L35.183 6.74576L28.6206 13.3081L29.5044 14.1919L36.0667 7.62951Z" fill="#1E1E1E"/>
<path d="M21.25 5.31262H18.75V6.56261H21.25V5.31262Z" fill="#1E1E1E"/>
</g>
<defs>
<clipPath id="clip0_2_220">
<rect width="40" height="40" fill="white"/>
</clipPath>
</defs>
</svg>
