<svg width="40" height="40" viewBox="0 0 40 40" fill="none" xmlns="http://www.w3.org/2000/svg">
<path d="M33.6 27.1014C33.6 31.6478 19.7768 35.3333 15.2263 35.3333C10.6759 35.3333 1.46667 29.1782 1.46667 24.6319C1.46667 20.0855 5.15554 16.4 9.70599 16.4C14.2564 16.4 33.6 22.5551 33.6 27.1014Z" fill="#C3C3E6"/>
<path d="M36.25 5H3.75C1.67875 5 0 6.67875 0 8.75V28.75C0 30.8212 1.67875 32.5 3.75 32.5H15V36.25H13.125C12.78 36.25 12.5 36.53 12.5 36.875C12.5 37.22 12.78 37.5 13.125 37.5H26.875C27.22 37.5 27.5 37.22 27.5 36.875C27.5 36.53 27.22 36.25 26.875 36.25H25V32.5H36.25C38.3213 32.5 40 30.8212 40 28.75V8.75C40 6.67875 38.3213 5 36.25 5ZM23.75 36.25H16.25V32.5H23.75V36.25ZM38.75 28.75C38.75 30.1313 37.6312 31.25 36.25 31.25H3.75C2.36875 31.25 1.25 30.1313 1.25 28.75V8.75C1.25 7.36875 2.36875 6.25 3.75 6.25H36.25C37.6312 6.25 38.75 7.36875 38.75 8.75V28.75ZM32.2562 11.2875C31.2787 11.095 30.4125 11.6625 30.115 12.5H22.5V11.25H17.5V12.5H9.885C9.5875 11.6625 8.72 11.095 7.74375 11.2875C7.0275 11.4287 6.44375 12.0025 6.29375 12.7175C6.0375 13.9312 6.95625 15 8.125 15C8.94 15 9.6275 14.4762 9.885 13.75H17.5V14.03C12.015 15.1512 7.81875 19.8525 7.5175 25.5875C7.49875 25.9462 7.78375 26.25 8.14375 26.25C8.4725 26.25 8.74875 25.995 8.765 25.6663C9.02625 20.585 12.6825 16.4038 17.5 15.305V16.25H22.5V15.3038C27.3175 16.4038 30.9738 20.585 31.235 25.665C31.2525 25.995 31.5275 26.25 31.8563 26.25C32.2163 26.25 32.5013 25.9462 32.4825 25.5875C32.1813 19.8525 27.985 15.1512 22.5 14.03V13.75H30.115C30.3737 14.4762 31.06 15 31.875 15C33.0438 15 33.9625 13.9312 33.7075 12.7175C33.5562 12.0025 32.9725 11.4287 32.2562 11.2875ZM8.125 13.75C7.78 13.75 7.5 13.47 7.5 13.125C7.5 12.78 7.78 12.5 8.125 12.5C8.47 12.5 8.75 12.78 8.75 13.125C8.75 13.47 8.47 13.75 8.125 13.75ZM21.25 15H18.75V12.5H21.25V15ZM31.875 13.75C31.53 13.75 31.25 13.47 31.25 13.125C31.25 12.78 31.53 12.5 31.875 12.5C32.22 12.5 32.5 12.78 32.5 13.125C32.5 13.47 32.22 13.75 31.875 13.75Z" fill="#1E1E1E"/>
</svg>
