<svg width="40" height="40" viewBox="0 0 40 40" fill="none" xmlns="http://www.w3.org/2000/svg">
<g clip-path="url(#clip0_2_133)">
<path d="M4.1848 8.48621C9.09828 -0.339845 25.138 -0.339846 30.0515 8.48621C32.7868 13.3997 17.9848 15.7529 17.9848 15.7529C17.9848 15.7529 9.09828 31.7123 4.1848 22.8862C1.44947 17.9727 1.44947 13.3997 4.1848 8.48621Z" fill="#C3C3E6"/>
<path d="M40 0H0V29.6774H13.4781C13.2497 30.3084 13.2671 31.0084 13.5452 31.6232L12.8471 40H14.4606L16.129 38.3316L17.7974 40H19.3548V34.7464C19.5626 34.8006 19.7761 34.8387 20 34.8387C20.2239 34.8387 20.4374 34.8006 20.6452 34.7471V40H22.2026L23.871 38.3316L25.5394 40H27.1529L26.4542 31.6232C26.7323 31.0084 26.7497 30.3084 26.5206 29.6774H40V0ZM18.0645 38.4426L16.129 36.5071L14.2794 38.3568L14.7374 32.8555C15.6 33.2884 16.6542 33.2161 17.4445 32.6206C17.5161 33.1284 17.7413 33.5839 18.0645 33.9523V38.4426ZM23.871 36.5071L21.9355 38.4426V33.9523C22.2581 33.5839 22.4839 33.1284 22.5555 32.6206C23.3458 33.2148 24.3994 33.289 25.2626 32.8548L25.7206 38.3561L23.871 36.5071ZM25.8064 27.7419C25.7323 27.7419 25.6606 27.7303 25.5897 27.7187L25.0497 27.6258L24.871 28.1439C24.8045 28.3348 24.7271 28.52 24.64 28.7L24.4019 29.1923L24.8484 29.5077C24.9077 29.5497 24.9671 29.5935 25.0187 29.6445C25.5219 30.1477 25.5219 30.9664 25.0187 31.4697C24.5161 31.9723 23.6968 31.9729 23.1955 31.4716C23.1426 31.4181 23.0994 31.3587 23.0568 31.2994L22.7413 30.8529L22.249 31.091C22.069 31.1787 21.8839 31.2561 21.6929 31.3219L21.1748 31.5006L21.2677 32.0406C21.2787 32.1123 21.2903 32.1839 21.2903 32.2581C21.2903 32.9697 20.7116 33.5484 20 33.5484C19.2884 33.5484 18.7097 32.9697 18.7097 32.2581C18.7097 32.1839 18.7213 32.1123 18.7329 32.0413L18.8258 31.5013L18.3077 31.3226C18.1168 31.2561 17.9316 31.1787 17.7516 31.0916L17.2594 30.8535L16.9439 31.3C16.9019 31.3594 16.8581 31.4187 16.8071 31.4703C16.3039 31.9735 15.4839 31.9723 14.9819 31.4703C14.4787 30.9671 14.4787 30.1484 14.98 29.6471C15.0335 29.5942 15.0929 29.551 15.1523 29.5084L15.5987 29.1929L15.3606 28.7006C15.2729 28.5206 15.1955 28.3355 15.1297 28.1445L14.951 27.6264L14.411 27.7194C14.3394 27.7303 14.2677 27.7419 14.1935 27.7419C13.4819 27.7419 12.9032 27.1632 12.9032 26.4516C12.9032 25.74 13.4819 25.1613 14.1935 25.1613C14.2677 25.1613 14.3394 25.1729 14.4103 25.1845L14.9503 25.2774L15.129 24.7594C15.1955 24.5684 15.2729 24.3832 15.36 24.2032L15.5981 23.711L15.1516 23.3955C15.0923 23.3535 15.0329 23.3097 14.9813 23.2587C14.4781 22.7555 14.4781 21.9368 14.9813 21.4335C15.4839 20.931 16.3032 20.9303 16.8045 21.4316C16.8574 21.4852 16.9006 21.5445 16.9432 21.6039L17.2587 22.0503L17.751 21.8123C17.931 21.7245 18.1161 21.6471 18.3071 21.5813L18.8252 21.4026L18.7323 20.8626C18.7213 20.791 18.7097 20.7194 18.7097 20.6452C18.7097 19.9335 19.2884 19.3548 20 19.3548C20.7116 19.3548 21.2903 19.9335 21.2903 20.6452C21.2903 20.7194 21.2787 20.791 21.2671 20.8619L21.1742 21.4019L21.6923 21.5806C21.8832 21.6471 22.0684 21.7245 22.2484 21.8116L22.7406 22.0497L23.0561 21.6032C23.0981 21.5439 23.1419 21.4845 23.1929 21.4329C23.6955 20.9297 24.5155 20.931 25.0181 21.4329C25.5213 21.9361 25.5213 22.7548 25.02 23.2561C24.9664 23.309 24.9071 23.3523 24.8477 23.3948L24.4013 23.7103L24.6394 24.2026C24.7271 24.3826 24.8045 24.5677 24.8703 24.7587L25.049 25.2768L25.589 25.1839C25.6606 25.1729 25.7323 25.1613 25.8064 25.1613C26.5181 25.1613 27.0968 25.74 27.0968 26.4516C27.0968 27.1632 26.5181 27.7419 25.8064 27.7419ZM25.931 20.5213C25.0116 19.6026 23.5658 19.5219 22.5561 20.2832C22.3787 19.031 21.3 18.0645 20 18.0645C18.7 18.0645 17.6213 19.0303 17.4445 20.2826C16.4355 19.5232 14.9897 19.6006 14.0697 20.5213C13.151 21.44 13.071 22.8852 13.8316 23.8961C12.7955 24.0426 11.9639 24.8103 11.7052 25.8064H3.87097V3.87097H36.129V25.8064H28.2955C28.0368 24.8103 27.2058 24.0426 26.1697 23.8961C26.9297 22.8865 26.8503 21.44 25.931 20.5213ZM38.7097 28.3871H27.5006C27.8839 28.051 28.1632 27.6045 28.2955 27.0968H37.4194V2.58065H2.58065V27.0968H11.7045C11.8368 27.6045 12.1155 28.051 12.4987 28.3871H1.29032V1.29032H38.7097V28.3871Z" fill="#1E1E1E"/>
<path d="M34.8387 5.16129H23.871V6.45161H34.8387V5.16129Z" fill="#1E1E1E"/>
<path d="M34.8387 9.03226H9.03223V10.3226H34.8387V9.03226Z" fill="#1E1E1E"/>
<path d="M34.8387 11.6129H5.16125V12.9032H34.8387V11.6129Z" fill="#1E1E1E"/>
<path d="M34.8387 14.1935H5.16125V15.4839H34.8387V14.1935Z" fill="#1E1E1E"/>
<path d="M14.1935 16.7742H12.9032V18.0645H14.1935V16.7742Z" fill="#1E1E1E"/>
<path d="M11.6129 16.7742H5.16125V18.0645H11.6129V16.7742Z" fill="#1E1E1E"/>
<path d="M20 23.2258C18.2213 23.2258 16.7742 24.6729 16.7742 26.4516C16.7742 28.2303 18.2213 29.6774 20 29.6774C21.7787 29.6774 23.2258 28.2303 23.2258 26.4516C23.2258 24.6729 21.7787 23.2258 20 23.2258ZM20 28.3871C18.9329 28.3871 18.0645 27.5187 18.0645 26.4516C18.0645 25.3845 18.9329 24.5161 20 24.5161C21.0671 24.5161 21.9355 25.3845 21.9355 26.4516C21.9355 27.5187 21.0671 28.3871 20 28.3871Z" fill="#1E1E1E"/>
</g>
<defs>
<clipPath id="clip0_2_133">
<rect width="40" height="40" fill="white"/>
</clipPath>
</defs>
</svg>
