<svg width="40" height="40" viewBox="0 0 40 40" fill="none" xmlns="http://www.w3.org/2000/svg">
<rect x="24" y="3.60001" width="10.1333" height="34.8" rx="5.06667" fill="#C3C3E6"/>
<path d="M21.3333 7.67465H18.6666V9.00799H21.3333V7.67465Z" fill="#1E1E1E"/>
<path d="M23.3333 10.3413H16.6666V11.6746H23.3333V10.3413Z" fill="#1E1E1E"/>
<path d="M8.66671 19.6747H7.33337V21.008H8.66671V19.6747Z" fill="#1E1E1E"/>
<path d="M11.3333 19.6747H10V21.008H11.3333V19.6747Z" fill="#1E1E1E"/>
<path d="M14 19.6747H12.6666V21.008H14V19.6747Z" fill="#1E1E1E"/>
<path d="M16.6667 19.6747H15.3334V21.008H16.6667V19.6747Z" fill="#1E1E1E"/>
<path d="M19.3333 19.6747H18V21.008H19.3333V19.6747Z" fill="#1E1E1E"/>
<path d="M22 19.6747H20.6666V21.008H22V19.6747Z" fill="#1E1E1E"/>
<path d="M24.6667 19.6747H23.3334V21.008H24.6667V19.6747Z" fill="#1E1E1E"/>
<path d="M27.3333 19.6747H26V21.008H27.3333V19.6747Z" fill="#1E1E1E"/>
<path d="M30 19.6747H28.6666V21.008H30V19.6747Z" fill="#1E1E1E"/>
<path d="M32.6667 19.6747H31.3334V21.008H32.6667V19.6747Z" fill="#1E1E1E"/>
<path d="M14.6667 29.008H13.3334V30.3413H14.6667V29.008Z" fill="#1E1E1E"/>
<path d="M21.3334 24.3413V32.3413C21.3334 32.7413 21.6 33.008 22 33.008H31.3334C31.7334 33.008 32 32.7413 32 32.3413V24.3413C32 23.9413 31.7334 23.6747 31.3334 23.6747H22C21.6 23.6747 21.3334 23.942 21.3334 24.3413ZM22.6667 29.008H26V31.6747H22.6667V29.008ZM27.3334 31.6747V29.008H30.6667V31.6747H27.3334ZM30.6667 27.6747H27.3334V25.008H30.6667V27.6747ZM26 25.008V27.6747H22.6667V25.008H26Z" fill="#1E1E1E"/>
<path d="M37.3333 37.008V35.008C37.3333 34.608 37.0667 34.3413 36.6667 34.3413H35.3333V18.3413H37.3333C37.7333 18.3413 38 18.0747 38 17.6747V15.208C38 15.008 37.9333 14.808 37.7333 14.6747L32.6667 10.9413V3.00799C32.6667 2.60799 32.4 2.34132 32 2.34132H26.6667C26.2667 2.34132 26 2.60799 26 3.00799V5.94132L20.4 1.80799C20.1333 1.60799 19.8667 1.60799 19.6 1.80799L2.73333 14.3413H2.66667V14.408L2.26667 14.6747C2.06667 14.808 2 15.008 2 15.208V17.6747C2 18.0747 2.26667 18.3413 2.66667 18.3413H4.66667V34.3413H3.33333C2.93333 34.3413 2.66667 34.608 2.66667 35.008V37.008H0V38.3413H3.33333H36.6667H40V37.008H37.3333ZM31.3333 3.67466V4.34132H27.3333V3.67466H31.3333ZM27.3333 5.67466H31.3333V9.94132L27.3333 6.94132V5.67466ZM3.33333 15.6747H30V14.3413H4.93333L20 3.14199L36.6667 15.542V17.0087H34.6667H5.33333H3.33333V15.6747ZM6 18.3413H34V34.3413H17.3333V25.008H18.6667V23.6747H16.6667H9.33333H7.33333V25.008H8.66667V34.3413H6V18.3413ZM10 25.008H16V34.3413H10V25.008ZM4 37.008V35.6747H5.33333H9.33333H16.6667H34.6667H36V37.008H4Z" fill="#1E1E1E"/>
</svg>
