<svg id="search-icon" width="36" height="36" viewBox="0 0 36 36" fill="none" xmlns="http://www.w3.org/2000/svg">
    <path d="M35.5463 33.4067L25.2173 23.0704C27.2536 20.6283 28.4783 17.5075 28.4783 14.099C28.4783 6.32278 22.0965 0 14.2465 0C6.39656 0 0 6.33016 0 14.1064C0 21.8826 6.3818 28.2053 14.2318 28.2053C17.5666 28.2053 20.6357 27.0618 23.0704 25.1509L33.4362 35.5168C34.0412 36.1217 34.9413 36.1217 35.5463 35.5168C36.1512 34.9118 36.1512 34.0117 35.5463 33.4067ZM3.0249 14.1064C3.0249 7.99754 8.05656 3.03228 14.2318 3.03228C20.407 3.03228 25.4387 7.99754 25.4387 14.1064C25.4387 20.2152 20.407 25.1804 14.2318 25.1804C8.05656 25.1804 3.0249 20.2078 3.0249 14.1064Z" fill="#C3C3E6"/>
</svg>
