<svg width="683" height="768" viewBox="0 0 683 768" fill="none" xmlns="http://www.w3.org/2000/svg">
<path d="M0 0C0 0 181.937 296.368 335 465.5C451.393 594.113 683 768 683 768H0V0Z" fill="#1E1E1E"/>
<g filter="url(#filter0_d_283_307)">
<path d="M504.643 225.408L79.8571 286.772C77.6707 287.087 76.1542 289.116 76.4701 291.302L104.987 488.71C105.303 490.896 107.331 492.413 109.518 492.097L534.303 430.733C536.49 430.417 538.006 428.389 537.69 426.203L509.173 228.795C508.858 226.609 506.829 225.092 504.643 225.408Z" fill="#FED253"/>
<path d="M494.813 244.802L94.7738 302.591C92.5874 302.907 91.071 304.936 91.3868 307.122L114.99 470.513C115.306 472.7 117.334 474.216 119.521 473.9L519.56 416.112C521.747 415.796 523.263 413.767 522.947 411.581L499.344 248.189C499.028 246.003 497 244.487 494.813 244.802Z" fill="white"/>
<path d="M502.744 213.572L77.9589 274.935C75.7725 275.251 74.256 277.28 74.5719 279.466L76.0836 289.931C76.3995 292.117 78.428 293.634 80.6144 293.318L505.4 231.954C507.586 231.639 509.103 229.61 508.787 227.424L507.275 216.959C506.959 214.772 504.931 213.256 502.744 213.572Z" fill="#FED253"/>
<path d="M89.2219 287.786C91.1232 287.786 92.6644 286.244 92.6644 284.343C92.6644 282.442 91.1232 280.901 89.2219 280.901C87.3207 280.901 85.7794 282.442 85.7794 284.343C85.7794 286.244 87.3207 287.786 89.2219 287.786Z" fill="white"/>
<path d="M102.154 285.918C104.056 285.918 105.597 284.376 105.597 282.475C105.597 280.574 104.056 279.033 102.154 279.033C100.253 279.033 98.7118 280.574 98.7118 282.475C98.7118 284.376 100.253 285.918 102.154 285.918Z" fill="white"/>
<path d="M115.087 284.049C116.988 284.049 118.53 282.508 118.53 280.607C118.53 278.706 116.988 277.164 115.087 277.164C113.186 277.164 111.645 278.706 111.645 280.607C111.645 282.508 113.186 284.049 115.087 284.049Z" fill="white"/>
</g>
<g filter="url(#filter1_d_283_307)">
<path d="M604 313.183H174.805C172.596 313.183 170.805 314.974 170.805 317.183V516.64C170.805 518.849 172.596 520.64 174.805 520.64H604C606.209 520.64 608 518.849 608 516.64V317.183C608 314.974 606.209 313.183 604 313.183Z" fill="#FED253"/>
<path d="M591.499 330.973H187.307C185.098 330.973 183.307 332.764 183.307 334.973V500.06C183.307 502.27 185.098 504.06 187.307 504.06H591.499C593.708 504.06 595.499 502.27 595.499 500.06V334.973C595.499 332.764 593.708 330.973 591.499 330.973Z" fill="white"/>
<path d="M603.814 301.197H174.619C172.41 301.197 170.619 302.988 170.619 305.197V315.77C170.619 317.98 172.41 319.77 174.619 319.77H603.814C606.023 319.77 607.814 317.98 607.814 315.77V305.197C607.814 302.988 606.023 301.197 603.814 301.197Z" fill="#FED253"/>
<path d="M476.695 357.289H423.006C421.801 357.289 420.824 358.265 420.824 359.47C420.824 360.675 421.801 361.652 423.006 361.652H476.695C477.899 361.652 478.876 360.675 478.876 359.47C478.876 358.265 477.899 357.289 476.695 357.289Z" fill="#FED253"/>
<path d="M508.288 370.098H423.006C421.801 370.098 420.824 371.075 420.824 372.28C420.824 373.484 421.801 374.461 423.006 374.461H508.288C509.492 374.461 510.469 373.484 510.469 372.28C510.469 371.075 509.492 370.098 508.288 370.098Z" fill="#FED253"/>
<path d="M492.633 382.297H423.938C422.733 382.297 421.756 383.274 421.756 384.479C421.756 385.684 422.733 386.66 423.938 386.66H492.633C493.838 386.66 494.815 385.684 494.815 384.479C494.815 383.274 493.838 382.297 492.633 382.297Z" fill="#FED253"/>
<path d="M461.293 395.682H423.006C421.801 395.682 420.824 396.659 420.824 397.864C420.824 399.069 421.801 400.046 423.006 400.046H461.293C462.498 400.046 463.475 399.069 463.475 397.864C463.475 396.659 462.498 395.682 461.293 395.682Z" fill="#FED253"/>
<path d="M483.013 408.757H423.006C421.801 408.757 420.824 409.734 420.824 410.938C420.824 412.143 421.801 413.12 423.006 413.12H483.013C484.218 413.12 485.195 412.143 485.195 410.938C485.195 409.734 484.218 408.757 483.013 408.757Z" fill="#FED253"/>
<path d="M394.365 359.47C394.365 361.433 395.956 363.024 397.919 363.024C399.882 363.024 401.473 361.433 401.473 359.47C401.473 357.507 399.882 355.916 397.919 355.916C395.956 355.916 394.365 357.507 394.365 359.47Z" fill="#FED253"/>
<path d="M394.365 372.28C394.365 374.242 395.956 375.834 397.919 375.834C399.882 375.834 401.473 374.242 401.473 372.28C401.473 370.317 399.882 368.725 397.919 368.725C395.956 368.725 394.365 370.317 394.365 372.28Z" fill="#FED253"/>
<path d="M394.365 384.479C394.365 386.442 395.956 388.033 397.919 388.033C399.882 388.033 401.473 386.442 401.473 384.479C401.473 382.516 399.882 380.924 397.919 380.924C395.956 380.924 394.365 382.516 394.365 384.479Z" fill="#FED253"/>
<path d="M394.365 397.864C394.365 399.827 395.956 401.418 397.919 401.418C399.882 401.418 401.473 399.827 401.473 397.864C401.473 395.901 399.882 394.31 397.919 394.31C395.956 394.31 394.365 395.901 394.365 397.864Z" fill="#FED253"/>
<path d="M394.365 410.938C394.365 412.901 395.956 414.493 397.919 414.493C399.882 414.493 401.473 412.901 401.473 410.938C401.473 408.976 399.882 407.384 397.919 407.384C395.956 407.384 394.365 408.976 394.365 410.938Z" fill="#FED253"/>
<path d="M476.695 421.913H423.006C421.801 421.913 420.824 422.89 420.824 424.095C420.824 425.3 421.801 426.276 423.006 426.276H476.695C477.899 426.276 478.876 425.3 478.876 424.095C478.876 422.89 477.899 421.913 476.695 421.913Z" fill="#FED253"/>
<path d="M508.288 434.722H423.006C421.801 434.722 420.824 435.699 420.824 436.904C420.824 438.109 421.801 439.086 423.006 439.086H508.288C509.492 439.086 510.469 438.109 510.469 436.904C510.469 435.699 509.492 434.722 508.288 434.722Z" fill="#FED253"/>
<path d="M492.633 446.922H423.938C422.733 446.922 421.756 447.898 421.756 449.103C421.756 450.308 422.733 451.285 423.938 451.285H492.633C493.838 451.285 494.815 450.308 494.815 449.103C494.815 447.898 493.838 446.922 492.633 446.922Z" fill="#FED253"/>
<path d="M461.293 460.307H423.006C421.801 460.307 420.824 461.284 420.824 462.488C420.824 463.693 421.801 464.67 423.006 464.67H461.293C462.498 464.67 463.475 463.693 463.475 462.488C463.475 461.284 462.498 460.307 461.293 460.307Z" fill="#FED253"/>
<path d="M483.013 473.381H423.006C421.801 473.381 420.824 474.358 420.824 475.563C420.824 476.768 421.801 477.745 423.006 477.745H483.013C484.218 477.745 485.195 476.768 485.195 475.563C485.195 474.358 484.218 473.381 483.013 473.381Z" fill="#FED253"/>
<path d="M394.365 424.095C394.365 426.058 395.956 427.649 397.919 427.649C399.882 427.649 401.473 426.058 401.473 424.095C401.473 422.132 399.882 420.541 397.919 420.541C395.956 420.541 394.365 422.132 394.365 424.095Z" fill="#FED253"/>
<path d="M394.365 436.904C394.365 438.867 395.956 440.458 397.919 440.458C399.882 440.458 401.473 438.867 401.473 436.904C401.473 434.941 399.882 433.35 397.919 433.35C395.956 433.35 394.365 434.941 394.365 436.904Z" fill="#FED253"/>
<path d="M394.365 449.103C394.365 451.066 395.956 452.657 397.919 452.657C399.882 452.657 401.473 451.066 401.473 449.103C401.473 447.14 399.882 445.549 397.919 445.549C395.956 445.549 394.365 447.14 394.365 449.103Z" fill="#FED253"/>
<path d="M394.365 462.488C394.365 464.451 395.956 466.043 397.919 466.043C399.882 466.043 401.473 464.451 401.473 462.488C401.473 460.525 399.882 458.934 397.919 458.934C395.956 458.934 394.365 460.525 394.365 462.488Z" fill="#FED253"/>
<path d="M394.365 475.563C394.365 477.526 395.956 479.117 397.919 479.117C399.882 479.117 401.473 477.526 401.473 475.563C401.473 473.6 399.882 472.009 397.919 472.009C395.956 472.009 394.365 473.6 394.365 475.563Z" fill="#FED253"/>
<path d="M293.048 456.139H239.359C238.154 456.139 237.177 457.116 237.177 458.321C237.177 459.526 238.154 460.502 239.359 460.502H293.048C294.253 460.502 295.229 459.526 295.229 458.321C295.229 457.116 294.253 456.139 293.048 456.139Z" fill="#FED253"/>
<path d="M300.287 467.477H231.592C230.387 467.477 229.41 468.454 229.41 469.659C229.41 470.863 230.387 471.84 231.592 471.84H300.287C301.492 471.84 302.469 470.863 302.469 469.659C302.469 468.454 301.492 467.477 300.287 467.477Z" fill="#FED253"/>
<path d="M303.934 401.098C303.932 407.656 302.229 414.101 298.991 419.804C295.754 425.507 291.092 430.273 285.463 433.636C279.833 436.999 273.427 438.845 266.871 438.993C260.316 439.141 253.835 437.587 248.061 434.482C248.058 434.481 248.055 434.478 248.052 434.476V434.476C248.05 434.474 248.047 434.471 248.044 434.47C242.147 431.292 237.197 426.607 233.698 420.893C230.199 415.178 228.278 408.638 228.13 401.938C227.982 395.238 229.612 388.619 232.855 382.755C236.098 376.89 240.838 371.991 246.592 368.555C252.345 365.119 258.906 363.27 265.607 363.195C272.308 363.121 278.909 364.824 284.737 368.132C290.565 371.44 295.412 376.233 298.785 382.024C302.157 387.815 303.934 394.396 303.934 401.098V401.098Z" fill="#FED253"/>
<path d="M266.223 399.258C271.914 399.258 276.527 394.644 276.527 388.954C276.527 383.263 271.914 378.649 266.223 378.649C260.532 378.649 255.919 383.263 255.919 388.954C255.919 394.644 260.532 399.258 266.223 399.258Z" fill="white"/>
<path d="M281.901 416.528C282.925 418.676 281.861 421.249 279.558 421.846C269.249 424.519 258.336 424.039 248.251 420.411C248.25 420.411 248.249 420.411 248.248 420.41V420.41C248.245 420.408 248.244 420.403 248.246 420.399L254.808 407.445C255.489 406.1 256.869 405.253 258.376 405.253H274.002C275.545 405.253 276.95 406.139 277.613 407.532L281.901 416.528Z" fill="white"/>
<path d="M184.421 315.561C186.322 315.561 187.864 314.02 187.864 312.119C187.864 310.217 186.322 308.676 184.421 308.676C182.52 308.676 180.979 310.217 180.979 312.119C180.979 314.02 182.52 315.561 184.421 315.561Z" fill="white"/>
<path d="M197.488 315.561C199.389 315.561 200.93 314.02 200.93 312.119C200.93 310.217 199.389 308.676 197.488 308.676C195.586 308.676 194.045 310.217 194.045 312.119C194.045 314.02 195.586 315.561 197.488 315.561Z" fill="white"/>
<path d="M210.555 315.561C212.456 315.561 213.997 314.02 213.997 312.119C213.997 310.217 212.456 308.676 210.555 308.676C208.654 308.676 207.112 310.217 207.112 312.119C207.112 314.02 208.654 315.561 210.555 315.561Z" fill="white"/>
</g>
<g filter="url(#filter2_d_283_307)">
<path d="M152.137 495.185C134.177 495.185 119.565 479.664 119.565 460.584C119.565 441.506 134.177 425.984 152.137 425.984C170.097 425.984 184.709 441.506 184.709 460.584C184.709 479.664 170.097 495.185 152.137 495.185ZM152.137 434.727C138.998 434.727 128.308 446.326 128.308 460.584C128.308 474.842 138.998 486.442 152.137 486.442C165.277 486.442 175.966 474.842 175.966 460.584C175.966 446.326 165.277 434.727 152.137 434.727Z" fill="#FED253"/>
<path d="M182.982 555.484H121.293C115.853 555.478 110.637 553.315 106.791 549.468C102.944 545.621 100.78 540.406 100.774 534.966V474.456C100.778 470.732 102.26 467.161 104.893 464.528C107.527 461.894 111.097 460.413 114.822 460.408H189.453C193.177 460.413 196.748 461.894 199.381 464.528C202.015 467.161 203.496 470.732 203.5 474.456V534.966C203.494 540.406 201.33 545.621 197.484 549.468C193.637 553.315 188.421 555.478 182.982 555.484V555.484Z" fill="#FED253"/>
<g filter="url(#filter3_i_283_307)">
<path d="M164.158 494.832C164.16 492.695 163.592 490.597 162.513 488.752C161.434 486.908 159.882 485.385 158.019 484.339C156.155 483.294 154.046 482.764 151.91 482.804C149.773 482.845 147.686 483.454 145.863 484.569C144.04 485.684 142.548 487.265 141.539 489.149C140.531 491.033 140.043 493.152 140.125 495.287C140.208 497.422 140.858 499.497 142.009 501.298C143.16 503.098 144.77 504.559 146.673 505.531V524.339H157.601V505.531C159.574 504.525 161.231 502.994 162.388 501.106C163.545 499.218 164.158 497.047 164.158 494.832V494.832Z" fill="white"/>
</g>
</g>
<defs>
<filter id="filter0_d_283_307" x="68.5303" y="211.53" width="471.202" height="286.608" filterUnits="userSpaceOnUse" color-interpolation-filters="sRGB">
<feFlood flood-opacity="0" result="BackgroundImageFix"/>
<feColorMatrix in="SourceAlpha" type="matrix" values="0 0 0 0 0 0 0 0 0 0 0 0 0 0 0 0 0 0 127 0" result="hardAlpha"/>
<feOffset dx="-2" dy="2"/>
<feGaussianBlur stdDeviation="2"/>
<feComposite in2="hardAlpha" operator="out"/>
<feColorMatrix type="matrix" values="0 0 0 0 0 0 0 0 0 0 0 0 0 0 0 0 0 0 0.25 0"/>
<feBlend mode="normal" in2="BackgroundImageFix" result="effect1_dropShadow_283_307"/>
<feBlend mode="normal" in="SourceGraphic" in2="effect1_dropShadow_283_307" result="shape"/>
</filter>
<filter id="filter1_d_283_307" x="164.619" y="299.197" width="445.381" height="227.443" filterUnits="userSpaceOnUse" color-interpolation-filters="sRGB">
<feFlood flood-opacity="0" result="BackgroundImageFix"/>
<feColorMatrix in="SourceAlpha" type="matrix" values="0 0 0 0 0 0 0 0 0 0 0 0 0 0 0 0 0 0 127 0" result="hardAlpha"/>
<feOffset dx="-2" dy="2"/>
<feGaussianBlur stdDeviation="2"/>
<feComposite in2="hardAlpha" operator="out"/>
<feColorMatrix type="matrix" values="0 0 0 0 0 0 0 0 0 0 0 0 0 0 0 0 0 0 0.25 0"/>
<feBlend mode="normal" in2="BackgroundImageFix" result="effect1_dropShadow_283_307"/>
<feBlend mode="normal" in="SourceGraphic" in2="effect1_dropShadow_283_307" result="shape"/>
</filter>
<filter id="filter2_d_283_307" x="94.7743" y="423.984" width="110.726" height="137.5" filterUnits="userSpaceOnUse" color-interpolation-filters="sRGB">
<feFlood flood-opacity="0" result="BackgroundImageFix"/>
<feColorMatrix in="SourceAlpha" type="matrix" values="0 0 0 0 0 0 0 0 0 0 0 0 0 0 0 0 0 0 127 0" result="hardAlpha"/>
<feOffset dx="-2" dy="2"/>
<feGaussianBlur stdDeviation="2"/>
<feComposite in2="hardAlpha" operator="out"/>
<feColorMatrix type="matrix" values="0 0 0 0 0 0 0 0 0 0 0 0 0 0 0 0 0 0 0.25 0"/>
<feBlend mode="normal" in2="BackgroundImageFix" result="effect1_dropShadow_283_307"/>
<feBlend mode="normal" in="SourceGraphic" in2="effect1_dropShadow_283_307" result="shape"/>
</filter>
<filter id="filter3_i_283_307" x="136.116" y="482.802" width="28.0421" height="45.5366" filterUnits="userSpaceOnUse" color-interpolation-filters="sRGB">
<feFlood flood-opacity="0" result="BackgroundImageFix"/>
<feBlend mode="normal" in="SourceGraphic" in2="BackgroundImageFix" result="shape"/>
<feColorMatrix in="SourceAlpha" type="matrix" values="0 0 0 0 0 0 0 0 0 0 0 0 0 0 0 0 0 0 127 0" result="hardAlpha"/>
<feOffset dx="-4" dy="4"/>
<feGaussianBlur stdDeviation="2"/>
<feComposite in2="hardAlpha" operator="arithmetic" k2="-1" k3="1"/>
<feColorMatrix type="matrix" values="0 0 0 0 0 0 0 0 0 0 0 0 0 0 0 0 0 0 0.25 0"/>
<feBlend mode="normal" in2="shape" result="effect1_innerShadow_283_307"/>
</filter>
</defs>
</svg>
