<svg width="478" height="35" viewBox="0 0 478 35" fill="none" xmlns="http://www.w3.org/2000/svg">
<rect x="17.6553" y="16.0806" width="147.563" height="2.83775" fill="#C3C3E6"/>
<rect x="165.219" y="16.0806" width="147.563" height="2.83775" fill="#C3C3E6"/>
<rect x="312.781" y="16.0806" width="147.563" height="2.83775" fill="#C3C3E6"/>
<circle cx="17.6553" cy="17.0265" r="17.0265" fill="#FED253"/>
<circle cx="165.218" cy="17.0265" r="17.0265" fill="#C3C3E6"/>
<circle cx="312.782" cy="17.0265" r="17.0265" fill="#C3C3E6"/>
<circle cx="460.345" cy="17.0265" r="17.0265" fill="#C3C3E6"/>
<path d="M18.8524 10.7852V21.5671H16.7241V13.2386L14.1672 14.0515V12.374L18.6233 10.7852H18.8524Z" fill="white"/>
<path d="M168.588 20.8504V22.5132H161.228V21.0943L164.709 17.3624C165.058 16.9732 165.334 16.6308 165.536 16.3352C165.738 16.0346 165.884 15.7661 165.972 15.5297C166.066 15.2882 166.113 15.0592 166.113 14.8424C166.113 14.5172 166.058 14.2389 165.95 14.0073C165.842 13.7708 165.682 13.5886 165.47 13.4605C165.263 13.3324 165.007 13.2683 164.701 13.2683C164.376 13.2683 164.095 13.3471 163.859 13.5048C163.627 13.6625 163.45 13.8817 163.327 14.1625C163.208 14.4433 163.149 14.7611 163.149 15.1158H161.014C161.014 14.4753 161.166 13.8891 161.472 13.357C161.777 12.82 162.208 12.3938 162.765 12.0785C163.322 11.7583 163.982 11.5982 164.746 11.5982C165.499 11.5982 166.135 11.7213 166.652 11.9677C167.174 12.2091 167.568 12.5589 167.835 13.0171C168.105 13.4703 168.241 14.0122 168.241 14.6429C168.241 14.9976 168.184 15.3449 168.071 15.6848C167.958 16.0199 167.795 16.3549 167.583 16.6899C167.376 17.02 167.125 17.355 166.829 17.6949C166.534 18.0349 166.206 18.3871 165.847 18.7517L163.977 20.8504H168.588Z" fill="white"/>
<path d="M310.971 16.2095H312.109C312.474 16.2095 312.774 16.1479 313.011 16.0248C313.247 15.8967 313.422 15.7193 313.535 15.4927C313.654 15.2611 313.713 14.9926 313.713 14.6872C313.713 14.4113 313.659 14.1674 313.55 13.9556C313.447 13.7388 313.287 13.5713 313.07 13.4531C312.853 13.3299 312.58 13.2683 312.25 13.2683C311.988 13.2683 311.747 13.32 311.525 13.4235C311.304 13.527 311.126 13.6723 310.993 13.8595C310.86 14.0467 310.794 14.2734 310.794 14.5394H308.658C308.658 13.9482 308.816 13.4334 309.131 12.9949C309.451 12.5564 309.88 12.214 310.417 11.9677C310.954 11.7213 311.545 11.5982 312.19 11.5982C312.92 11.5982 313.558 11.7164 314.104 11.9529C314.651 12.1845 315.077 12.5269 315.383 12.9801C315.688 13.4334 315.841 13.995 315.841 14.665C315.841 15.005 315.762 15.335 315.605 15.6553C315.447 15.9706 315.22 16.2563 314.925 16.5125C314.634 16.7638 314.279 16.9658 313.861 17.1185C313.442 17.2663 312.971 17.3402 312.449 17.3402H310.971V16.2095ZM310.971 17.8279V16.7268H312.449C313.035 16.7268 313.55 16.7933 313.994 16.9264C314.437 17.0594 314.809 17.2515 315.109 17.5028C315.41 17.7491 315.637 18.0422 315.789 18.3822C315.942 18.7172 316.018 19.0892 316.018 19.4981C316.018 20.0006 315.922 20.4489 315.73 20.843C315.538 21.2323 315.267 21.5623 314.917 21.8333C314.572 22.1043 314.168 22.3112 313.705 22.4541C313.242 22.592 312.737 22.661 312.19 22.661C311.737 22.661 311.291 22.5994 310.853 22.4762C310.419 22.3481 310.025 22.1585 309.67 21.9072C309.321 21.651 309.04 21.3308 308.828 20.9465C308.621 20.5573 308.518 20.0967 308.518 19.5646H310.653C310.653 19.8405 310.722 20.0868 310.86 20.3036C310.998 20.5204 311.188 20.6903 311.429 20.8135C311.676 20.9367 311.949 20.9982 312.25 20.9982C312.589 20.9982 312.88 20.9367 313.122 20.8135C313.368 20.6854 313.555 20.508 313.683 20.2814C313.816 20.0499 313.883 19.7814 313.883 19.4759C313.883 19.0818 313.811 18.7665 313.668 18.53C313.526 18.2886 313.321 18.1112 313.055 17.9979C312.789 17.8846 312.474 17.8279 312.109 17.8279H310.971Z" fill="white"/>
<path d="M463.892 18.493V20.1632H456.14L456.036 18.8699L460.522 11.7534H462.214L460.382 14.8202L458.15 18.493H463.892ZM462.672 11.7534V22.5132H460.544V11.7534H462.672Z" fill="white"/>
</svg>
