<svg width="1350" height="393" viewBox="0 0 1350 393" fill="none" xmlns="http://www.w3.org/2000/svg">
<path fill-rule="evenodd" clip-rule="evenodd" d="M1188.21 4.64314C1180.87 7.18732 1173.01 9.91344 1170.74 10.7012C1164.13 13.0015 1160.12 14.3878 1140.25 21.255C1129.92 24.8265 1120.82 27.9735 1120.03 28.2481L1118.58 28.7474L1118.82 33.3994C1119.72 51.4733 1124.5 67.446 1132.68 79.746C1140.89 92.0899 1150.43 99.0833 1161.67 100.996C1164.64 101.502 1168.51 101.552 1201.54 101.515C1221.66 101.493 1238.18 101.411 1238.26 101.333C1238.33 101.256 1237.63 100.354 1236.69 99.3279C1224.05 85.4916 1211.75 56.3293 1205.72 25.8565C1204.23 18.3687 1202.8 8.35377 1202.49 3.36133C1202.36 1.2364 1202.15 -0.0108062 1201.92 7.05575e-05C1201.72 0.00962895 1195.55 2.09896 1188.21 4.64314ZM921.152 71.4164L919.916 71.5459V78.9777L872.399 79.1969C846.265 79.3179 814.619 79.4164 802.075 79.4164H779.268L779.09 83.2892C778.732 91.1146 775.53 97.0704 770.425 99.4076C766.989 100.98 762.612 101.847 757.011 102.062L751.82 102.261V107.759C751.82 110.783 751.918 117.954 752.038 123.694L752.256 134.129L769.754 133.966C779.378 133.876 817.176 133.727 853.749 133.636L920.246 133.468V141.052H969.794L969.575 116.579C969.455 103.119 969.356 87.3967 969.356 81.6412L969.356 71.1764L945.872 71.2318C932.956 71.2625 921.832 71.3455 921.152 71.4164ZM1018.9 73.4691C1018.18 73.9065 1017.74 74.5107 1017.51 75.363C1017.14 76.7546 1014.46 98.4993 1014.25 101.758C1013.89 107.616 1018.17 113.806 1024.03 115.888L1025.64 116.458L1025.79 156.359C1025.87 178.304 1025.87 196.334 1025.8 196.424C1025.72 196.515 1020.62 196.663 1014.45 196.754L1003.25 196.919L1002.45 197.844C1001.66 198.766 1001.66 198.786 1001.66 206.82V214.871L1002.56 215.875C1003.27 216.652 1003.89 216.945 1005.34 217.177C1008.71 217.717 1010.47 219.21 1011.22 222.165C1011.71 224.121 1011.23 226.004 1009.83 227.593C1008.57 229.028 1007.44 229.635 1005.22 230.055C1003.44 230.393 1002.41 231.07 1001.99 232.186C1001.85 232.548 1001.85 250.421 1001.97 271.903C1002.2 310.071 1002.22 311.017 1002.89 313.463C1004.28 318.497 1006.21 321.904 1009.88 325.758C1019.33 335.693 1034.96 337.056 1045.99 328.907C1051.09 325.138 1054.76 319.667 1056.48 313.27L1057.19 310.631L1057.08 271.573C1056.97 235.6 1056.92 232.437 1056.4 231.527C1055.83 230.512 1054.51 229.917 1052 229.539C1049.6 229.178 1047.17 226.11 1047.15 223.434C1047.14 222.79 1047.53 221.49 1048 220.545C1049.01 218.523 1050.8 217.3 1053.36 216.895C1055.12 216.618 1055.83 216.198 1056.46 215.074C1056.93 214.242 1056.81 198.888 1056.33 197.993C1055.54 196.524 1054.7 196.424 1043.2 196.424H1032.31V164.836C1032.31 147.463 1032.21 129.464 1032.09 124.839L1031.88 116.429L1033.46 115.89C1038.5 114.173 1042.33 109.65 1043.17 104.421C1043.45 102.646 1043.26 100.566 1041.7 88.5084L1039.9 74.6372L1037.9 72.8244L1028.93 72.8258C1020.61 72.8267 1019.87 72.8742 1018.9 73.4691ZM2.23433 80.0832C-0.188555 81.3855 0.00360146 75.7833 0.00360146 145.111V207.542L0.691805 208.417C2.15589 210.278 2.82992 210.42 10.7634 210.54L18.0624 210.651L18.2539 216.639C18.359 219.933 18.5261 229.302 18.625 237.459C18.7239 245.617 19.0291 270.898 19.3033 293.639C19.7301 329.065 19.8771 335.321 20.328 337.311C22.5706 347.211 31.305 354.659 42.9946 356.641C46.6386 357.258 53.2636 356.855 56.8434 355.798C66.3421 352.992 73.3583 346.29 75.4793 337.997C76.0244 335.866 76.1477 332.769 76.6108 309.604C76.8962 295.304 77.2819 267.223 77.4668 247.203C77.652 227.183 77.8399 210.766 77.8844 210.722C77.9285 210.677 80.039 210.541 82.5736 210.42C85.3422 210.287 89.8152 209.745 93.7747 209.064C97.4003 208.441 102.962 207.489 106.135 206.95C109.307 206.411 113.534 205.675 115.528 205.315C117.522 204.955 125.235 203.618 132.667 202.345C140.1 201.072 146.59 199.868 147.089 199.67C147.588 199.471 148.441 198.803 148.984 198.185L149.971 197.06V168.788L149.108 167.763C147.321 165.639 149.942 165.772 109.777 165.772H73.1747V120.616H109.606C149.093 120.616 147.247 120.701 148.983 118.82L149.807 117.927L149.902 106.724C150.014 93.4837 150.142 94.0131 146.429 92.3539C136.274 87.816 116.242 83.1139 98.3891 81.0776C86.2199 79.6897 85.1372 79.659 43.8403 79.5394C3.94034 79.4237 3.44989 79.4299 2.23433 80.0832ZM670.508 84.0147C669.747 84.3601 668.214 85.2609 667.102 86.016C656.205 93.4158 649.968 105.075 649.977 118.031C649.979 122.673 650.29 124.963 651.473 129.044C653.172 134.907 656.339 140.333 660.722 144.89L663.158 147.423V269.36L660.581 272.045C659.164 273.521 657.366 275.668 656.587 276.816C654.507 279.879 652.114 285.119 651.078 288.877C650.238 291.926 650.169 292.641 650.157 298.435C650.145 304.028 650.229 305.015 650.935 307.664C653.426 317.003 658.694 324.738 666.124 329.968C670.99 333.393 673.211 333.947 675.858 332.395C678.475 330.862 678.472 330.883 678.578 315.987L678.671 302.885H698.425V315.937C698.425 330.452 698.424 330.442 700.638 332.13C701.423 332.73 702.297 333.037 703.5 333.137C705.432 333.297 706.669 332.8 710.071 330.494C723.804 321.188 730.115 303.932 725.581 288.089C723.882 282.154 719.272 274.427 715.286 270.832L713.916 269.597V147.127L715.753 145.325C720.874 140.301 724.273 134.146 726.122 126.549C727.219 122.041 727.219 114.248 726.122 109.74C724.319 102.331 721.457 96.9643 716.557 91.8057C712.335 87.3594 706.344 83.3726 703.885 83.372C702.353 83.3716 700.18 84.605 699.344 85.9494C698.603 87.1419 698.587 87.3647 698.425 99.3572L698.26 111.552L678.649 111.727L678.642 99.939C678.635 89.2075 678.58 88.0325 678.029 86.8324C677.309 85.2642 676.574 84.5615 674.94 83.8785C673.347 83.2131 672.196 83.2484 670.508 84.0147ZM271.099 87.0477C263.5 87.8941 256.319 91.3967 250.622 97.0355C240.048 107.503 237.315 123.659 243.873 136.932C249.912 149.152 261.725 156.543 275.219 156.543C284.825 156.543 293.455 152.92 300.178 146.066C307.906 138.187 311.445 127.083 309.684 116.237C307.139 100.555 294.614 88.7125 278.775 87.0114C275.212 86.6287 274.845 86.6304 271.099 87.0477ZM496.875 87.6828C476.12 90.7616 459.173 104.652 452.436 124.108C450.83 128.745 450.002 132.868 449.598 138.25C449.125 144.535 449.124 273.875 449.597 280.47C449.785 283.097 450.244 286.654 450.617 288.374C455.024 308.715 470.646 325.02 490.569 330.074C496.303 331.529 500.611 331.996 506.269 331.775C513.973 331.475 515.779 331.039 534.449 324.97C538.438 323.674 543.48 322.043 545.656 321.347C547.831 320.65 552.429 319.165 555.873 318.047C562.126 316.017 574.502 312.01 595.507 305.214C631.491 293.571 630.055 294.071 631.153 292.82C632.343 291.464 632.65 290.465 632.415 288.708C632.203 287.132 631.149 285.594 629.76 284.834C628.78 284.299 624.93 284.257 568.481 284.177L508.246 284.091V145.336H565.926L565.934 154.153C565.939 159.009 566.095 163.633 566.282 164.447C566.716 166.327 567.92 167.905 569.558 168.741C570.812 169.381 571.537 169.397 598.556 169.397C625.576 169.397 626.301 169.381 627.555 168.741C628.915 168.047 630.288 166.47 630.695 165.137C631.411 162.787 631.201 162.187 623.948 145.831C616.692 129.47 609.027 118.97 597.002 108.918C583.856 97.9287 569.146 91.285 551.259 88.2589C547.148 87.5635 546.001 87.5312 522.913 87.462C509.68 87.4221 497.963 87.5216 496.875 87.6828ZM278.581 105.489C281.35 106.067 284.296 107.642 286.551 109.752C292.464 115.282 293.448 124.412 288.853 131.085C282.29 140.613 267.891 140.544 261.526 130.954C258.883 126.973 257.997 121.628 259.262 117.298C261.704 108.936 270.201 103.742 278.581 105.489ZM1168.27 113.217C1145.29 116.005 1124.19 129.991 1109.12 152.423C1098.51 168.207 1091.85 186.498 1088.95 207.795C1088.27 212.811 1088.19 214.677 1088.19 225.594C1088.19 238.532 1088.47 241.936 1090.35 251.962C1097.06 287.661 1117.68 317.469 1144.87 330.758C1154.08 335.259 1162.84 337.564 1173 338.154C1179.76 338.546 1218.53 338.588 1218.53 338.203C1218.53 338.05 1217.26 337.144 1215.7 336.19C1209.33 332.303 1200.57 324.998 1195.26 319.169C1176.52 298.563 1165.24 272.733 1161.61 242.074C1160.77 235.031 1160.78 215.786 1161.61 208.949C1163.85 190.584 1168.24 175.52 1175.7 160.548C1179.59 152.731 1182.2 148.447 1187.16 141.711C1192.42 134.582 1200 126.584 1206.34 121.496C1208.6 119.682 1215.12 115.157 1218.39 113.137C1219.36 112.54 1173.25 112.612 1168.27 113.217ZM1252.27 113.199C1241 114.636 1229.78 118.894 1219.85 125.502C1214.45 129.096 1211.34 131.647 1206.22 136.701C1190.45 152.274 1179.09 174.651 1174.41 199.391C1172.66 208.611 1172.26 213.465 1172.24 225.264C1172.23 237.907 1172.73 243.314 1174.89 253.846C1181.46 285.839 1198.88 312.783 1222.27 327.097C1230.52 332.153 1238.56 335.292 1248.2 337.224C1251.61 337.907 1252.88 337.982 1260.89 337.972C1269.26 337.96 1270.04 337.907 1274.11 337.064C1289.96 333.78 1303.77 326.105 1315.83 313.881C1321.99 307.64 1326.61 301.73 1331.11 294.315C1346.94 268.289 1352.95 235.045 1347.73 202.522C1344.76 184.018 1337.67 165.92 1327.72 151.434C1321.23 141.987 1312.68 133.163 1304.06 127.016C1294.03 119.858 1282.42 115.094 1270.77 113.352C1266.84 112.764 1256.36 112.677 1252.27 113.199ZM272.406 115.145C271.084 115.721 269.302 117.532 268.745 118.866C268.089 120.436 268.178 123.377 268.927 124.832C270.127 127.165 272.765 128.856 275.202 128.856C277.766 128.856 280.941 126.684 281.851 124.307C282.352 122.999 282.293 120.29 281.734 118.958C281.123 117.502 279.363 115.718 277.959 115.131C276.61 114.567 273.716 114.574 272.406 115.145ZM1267.46 143.218C1273.94 144.351 1280.9 147.309 1286.66 151.375C1289.97 153.712 1296.16 159.562 1299 163.031C1309.57 175.938 1316.44 193.083 1318.94 212.739C1319.75 219.107 1319.76 231.721 1318.95 238.233C1315.69 264.71 1303.93 287.167 1286.89 299.461C1283.57 301.854 1276.5 305.471 1273.16 306.477C1266.93 308.359 1259.22 308.847 1253.47 307.725C1229 302.946 1209.2 277.681 1203.56 244.038C1201.56 232.146 1201.51 219.23 1203.4 207.631C1206.77 186.982 1215.46 169.23 1228.18 157.006C1235.87 149.613 1244.81 144.835 1253.97 143.223C1257.56 142.59 1263.86 142.588 1267.46 143.218ZM831.583 189.118C831.583 213.38 831.682 255.274 831.803 282.216L832.022 331.202L861.714 331.006C878.044 330.899 891.455 330.769 891.515 330.718C891.576 330.668 891.516 288.862 891.383 237.816L891.141 145.007H831.583V189.118ZM1256.11 154.213C1251.33 155.096 1246.54 157.118 1242.01 160.16C1239.26 162.012 1234.35 166.217 1234.35 166.726C1234.35 166.859 1235.34 168.516 1236.55 170.407C1244.05 182.155 1248.91 196.24 1251.06 212.41C1251.87 218.497 1251.87 232.491 1251.06 238.613C1249.43 250.9 1246.44 261.398 1241.8 271.079C1239.87 275.095 1236.34 281.3 1234.96 283.071C1234.63 283.504 1234.35 284.045 1234.35 284.274C1234.35 284.875 1239.32 289.119 1242.54 291.264C1252.52 297.922 1263.96 298.918 1274.37 294.037C1291.47 286.026 1304.43 264.052 1307.66 237.624C1308.78 228.416 1308.64 219.51 1307.21 210.103C1305.06 195.868 1299.67 182.232 1292.22 172.197C1289.35 168.328 1283.16 162.307 1279.71 160.035C1273.51 155.954 1268.4 154.238 1261.88 154.058C1259.52 153.993 1256.92 154.063 1256.11 154.213ZM161.006 167.831C160.923 168.058 160.029 171.655 159.021 175.824C154.864 193.002 154.224 195.626 154.057 196.177C153.891 196.726 159.813 196.754 275.219 196.754C390.627 196.754 396.548 196.726 396.377 196.177C396.279 195.86 395.448 192.486 394.532 188.679C391.204 174.848 389.915 169.542 389.649 168.573L389.378 167.584L275.268 167.502C184.15 167.435 161.127 167.502 161.006 167.831ZM1225.78 177.884C1225.24 178.745 1224 181.007 1223.02 182.911C1211.89 204.607 1210.15 233.292 1218.49 257.4C1220.7 263.776 1222.43 267.518 1225.7 272.996L1226.85 274.913L1227.66 273.721C1229.1 271.602 1232.29 265.237 1233.7 261.685C1242.67 239.053 1242.84 213.201 1234.16 190.577C1232.24 185.595 1227.53 176.319 1226.91 176.319C1226.84 176.319 1226.33 177.023 1225.78 177.884ZM577.931 186.99C577.075 187.846 576.803 188.398 576.803 189.276C576.803 189.912 578.138 194.168 579.769 198.731L582.736 207.03V213.505L581.335 213.736C576.572 214.52 573.042 218.31 572.607 223.108C572.135 228.313 576.049 233.299 581.076 233.894L582.736 234.091V243.076L580.707 243.462C578.177 243.943 575.716 245.581 574.265 247.749C570.744 253.012 572.842 260.066 578.74 262.793C580.241 263.487 580.549 263.498 599.38 263.498C618.212 263.498 618.52 263.487 620.021 262.793C622.209 261.782 624.108 259.93 625.157 257.785C626.459 255.125 626.456 251.759 625.151 249.092C623.545 245.809 619.864 243.227 616.789 243.227C616.027 243.227 616.025 243.217 616.025 238.659V234.091L617.707 233.891C621.817 233.405 625.503 229.501 626.123 224.98C626.41 222.883 625.525 219.75 624.086 217.774C622.769 215.964 620.261 214.409 617.756 213.847L616.025 213.459V206.764L618.992 198.456C620.623 193.887 621.958 189.709 621.958 189.172C621.958 188.558 621.6 187.794 620.996 187.118L620.035 186.042L579.059 185.862L577.931 186.99ZM225.779 206.811C225.779 207.243 224.463 212.879 218.968 235.976C218.343 238.605 217.746 241.237 217.642 241.827L217.453 242.898H331.325L331.094 241.662C330.77 239.932 323.033 207.412 322.801 206.807C322.633 206.37 316.94 206.312 274.195 206.312C231.187 206.312 225.779 206.368 225.779 206.811ZM332.741 207.38C332.865 207.971 333.536 210.828 334.233 213.728C335.682 219.764 337.417 227.026 339.645 236.388L341.194 242.898H356.367C370.662 242.898 371.53 242.865 371.37 242.321C371.222 241.819 368.069 230.167 365.683 221.309C365.244 219.678 364.164 215.673 363.283 212.41L361.682 206.477L332.516 206.305L332.741 207.38ZM186.779 207.878C186.656 208.085 185.562 212.119 181.44 227.571C181.198 228.478 180.174 232.24 179.164 235.931C178.154 239.623 177.328 242.7 177.328 242.771C177.328 242.84 184.139 242.898 192.463 242.898H207.598L207.917 241.497C208.092 240.727 209.958 232.859 212.063 224.013C214.169 215.168 215.891 207.863 215.891 207.781C215.891 207.521 186.933 207.618 186.779 207.878ZM1018.77 239.751C1019.28 240.015 1019.85 240.645 1020.05 241.152C1020.29 241.775 1020.47 252.64 1020.6 274.704C1020.77 301.42 1020.73 307.484 1020.37 308.159C1020.13 308.612 1019.41 309.267 1018.76 309.614C1017.61 310.236 1017.57 310.236 1016.3 309.614C1015.59 309.267 1014.84 308.612 1014.63 308.159C1014.35 307.563 1014.22 298.204 1014.13 274.327C1014.02 241.7 1014.02 241.311 1014.68 240.587C1015.87 239.258 1017.26 238.974 1018.77 239.751ZM1032.28 240.181C1033.16 241.064 1033.19 241.223 1033.41 245.866C1033.53 248.494 1033.63 263.522 1033.63 279.262L1033.63 307.88L1032.66 308.843C1031.39 310.122 1029.48 310.185 1028.29 308.989C1027.52 308.22 1027.46 307.894 1027.25 303.468C1027.14 300.882 1027.04 285.813 1027.04 269.982L1027.04 241.199L1028 240.236C1029.31 238.929 1031.01 238.908 1032.28 240.181ZM1043.74 240.068L1044.67 240.863L1044.92 273.769C1045.06 291.867 1045.09 307.022 1044.99 307.445C1044.47 309.665 1041.45 310.551 1039.66 309.011L1038.74 308.216L1038.51 275.31C1038.36 253.214 1038.39 242.05 1038.62 241.329C1039.25 239.309 1042.06 238.618 1043.74 240.068ZM67.1292 255.805C67.0099 259.097 66.9123 266.302 66.9123 271.816V281.842L50.9267 281.626L49.1139 280.603C48.0681 280.013 46.8829 278.99 46.3123 278.185L45.3235 276.791L45.2207 266.519C45.1525 259.681 45.2402 255.832 45.4827 255.005C45.989 253.282 47.6505 251.505 49.606 250.594C51.1921 249.856 51.5698 249.826 59.3012 249.823L67.3461 249.819L67.1292 255.805ZM133.692 253.033C133.527 253.584 129.408 270.486 127.63 277.914C127.163 279.861 126.858 281.53 126.951 281.622C127.044 281.715 193.861 281.754 275.434 281.709L423.748 281.626L422.364 276.023C421.603 272.941 420.139 266.934 419.112 262.674C418.085 258.414 417.097 254.372 416.918 253.692L416.592 252.456H315.387C214.682 252.456 214.178 252.46 213.345 253.115C212.526 253.759 212.007 253.775 190.842 253.775C169.676 253.775 169.158 253.759 168.339 253.115C167.526 252.476 167.002 252.456 150.683 252.456C134.952 252.456 133.854 252.493 133.692 253.033ZM354.653 291.532C354.653 291.633 356.341 295.971 358.404 301.173C361.154 308.106 362.207 311.159 362.346 312.611C362.861 317.966 366.144 322.312 370.951 324.001C373.466 324.885 377.425 324.865 379.856 323.955C384.787 322.11 388.272 317.103 388.272 311.862C388.272 310.191 387.151 305.789 383.615 293.574L382.97 291.349H368.812C361.024 291.349 354.653 291.431 354.653 291.532ZM165.356 293.244C165.276 293.38 164.369 296.532 163.34 300.248C162.312 303.964 161.164 307.948 160.791 309.1C159.904 311.837 160.065 316.083 161.149 318.53C165.556 328.475 179.834 328.89 184.599 319.211C185.258 317.872 185.789 316.075 186.078 314.206C186.427 311.941 187.239 309.522 189.707 303.379C191.455 299.029 193.086 294.913 193.332 294.233L193.779 292.997H179.64C171.864 292.997 165.436 293.108 165.356 293.244ZM54.1173 318.602C56.818 319.873 58.9034 321.747 60.1786 324.049C61.0458 325.614 61.1443 326.095 61.1443 328.759C61.1443 331.422 61.0458 331.903 60.1786 333.468C57.8342 337.7 53.3862 340.122 47.9603 340.122C42.0704 340.122 37.041 337.04 35.2886 332.356C33.076 326.442 36.4445 320.422 43.3417 317.962C44.6189 317.507 45.7797 317.395 48.4547 317.47C51.5372 317.556 52.1561 317.68 54.1173 318.602ZM605.808 323.371C600.822 325.001 593.629 327.349 589.822 328.587L582.9 330.838L582.726 350.318L550.929 350.512L549.088 351.376C544.13 353.701 541.889 358.992 543.661 364.187C544.111 365.506 544.778 366.49 546.12 367.814C549.201 370.854 548.724 370.786 566.997 370.784L582.736 370.782L582.737 380.094C582.738 388.745 582.784 389.48 583.381 390.459C584.42 392.163 585.234 392.245 600.126 392.138C614.857 392.032 614.555 392.074 615.531 390.017C615.933 389.17 616.025 387.281 616.025 379.879V370.782H647.891L649.901 369.778C653.455 368.002 655.265 365.228 655.507 361.189C655.639 358.975 655.55 358.445 654.748 356.657C653.706 354.336 651.685 352.293 649.373 351.224C647.871 350.531 647.423 350.509 631.928 350.412L616.025 350.312V335.333C616.025 321.277 615.99 320.355 615.448 320.38C615.131 320.394 610.793 321.74 605.808 323.371ZM46.5856 326.437C43.6271 327.724 44.633 331.231 47.9603 331.231C51.3351 331.231 52.2942 327.69 49.2629 326.423C47.9224 325.863 47.905 325.863 46.5856 326.437Z" fill="white"/>
</svg>
