<svg width="21" height="20" viewBox="0 0 21 20" fill="none" xmlns="http://www.w3.org/2000/svg">
<path d="M7.78125 9.59375C7.51032 8.92909 7.3723 8.21776 7.375 7.5C7.375 6.38748 7.7049 5.29995 8.32298 4.37492C8.94107 3.44989 9.81957 2.72892 10.8474 2.30318C11.8752 1.87744 13.0062 1.76604 14.0974 1.98309C15.1885 2.20013 16.1908 2.73586 16.9775 3.52253C17.7641 4.3092 18.2999 5.31148 18.5169 6.40262C18.734 7.49376 18.6226 8.62476 18.1968 9.6526C17.7711 10.6804 17.0501 11.5589 16.1251 12.177C15.2001 12.7951 14.1125 13.125 13 13.125C12.2822 13.1277 11.5709 12.9897 10.9062 12.7188V12.7188L9.875 13.75H8V15.625H6.125V17.5H3V14.375L7.78125 9.59375Z" stroke="#989898" stroke-width="2" stroke-linecap="round" stroke-linejoin="round"/>
<path d="M14.5625 6.875C15.0803 6.875 15.5 6.45527 15.5 5.9375C15.5 5.41973 15.0803 5 14.5625 5C14.0447 5 13.625 5.41973 13.625 5.9375C13.625 6.45527 14.0447 6.875 14.5625 6.875Z" fill="#989898"/>
</svg>
