<svg width="95" height="19" viewBox="0 0 95 19" fill="none" xmlns="http://www.w3.org/2000/svg">
<path d="M11.7747 12.137L10.0533 16.8706C10.0112 16.9842 9.93527 17.0822 9.83579 17.1514C9.73632 17.2206 9.61806 17.2576 9.49689 17.2576C9.37573 17.2576 9.25746 17.2206 9.15799 17.1514C9.05851 17.0822 8.9826 16.9842 8.94043 16.8706L7.21912 12.137C7.18906 12.0554 7.14165 11.9813 7.08016 11.9198C7.01867 11.8584 6.94458 11.811 6.86299 11.7809L2.12938 10.0596C2.01578 10.0174 1.91782 9.94149 1.84863 9.84202C1.77945 9.74255 1.74237 9.62428 1.74237 9.50312C1.74237 9.38195 1.77945 9.26369 1.84863 9.16421C1.91782 9.06474 2.01578 8.98882 2.12938 8.94666L6.86299 7.22535C6.94458 7.19528 7.01867 7.14787 7.08016 7.08639C7.14165 7.0249 7.18906 6.9508 7.21912 6.86921L8.94043 2.1356C8.9826 2.02201 9.05851 1.92404 9.15799 1.85486C9.25746 1.78568 9.37573 1.7486 9.49689 1.7486C9.61806 1.7486 9.73632 1.78568 9.83579 1.85486C9.93527 1.92404 10.0112 2.02201 10.0533 2.1356L11.7747 6.86921C11.8047 6.9508 11.8521 7.0249 11.9136 7.08639C11.9751 7.14787 12.0492 7.19528 12.1308 7.22535L16.8644 8.94666C16.978 8.98882 17.076 9.06474 17.1451 9.16421C17.2143 9.26369 17.2514 9.38195 17.2514 9.50312C17.2514 9.62428 17.2143 9.74255 17.1451 9.84202C17.076 9.94149 16.978 10.0174 16.8644 10.0596L12.1308 11.7809C12.0492 11.811 11.9751 11.8584 11.9136 11.9198C11.8521 11.9813 11.8047 12.0554 11.7747 12.137V12.137Z" stroke="#FED253" stroke-width="1.18711" stroke-linecap="round" stroke-linejoin="round"/>
<path d="M30.7684 12.137L29.0471 16.8706C29.005 16.9842 28.929 17.0822 28.8296 17.1514C28.7301 17.2206 28.6118 17.2576 28.4907 17.2576C28.3695 17.2576 28.2512 17.2206 28.1518 17.1514C28.0523 17.0822 27.9764 16.9842 27.9342 16.8706L26.2129 12.137C26.1828 12.0554 26.1354 11.9813 26.0739 11.9198C26.0124 11.8584 25.9384 11.811 25.8568 11.7809L21.1232 10.0596C21.0096 10.0174 20.9116 9.94149 20.8424 9.84202C20.7732 9.74255 20.7361 9.62428 20.7361 9.50312C20.7361 9.38195 20.7732 9.26369 20.8424 9.16421C20.9116 9.06474 21.0096 8.98882 21.1232 8.94666L25.8568 7.22535C25.9384 7.19528 26.0124 7.14787 26.0739 7.08639C26.1354 7.0249 26.1828 6.9508 26.2129 6.86921L27.9342 2.1356C27.9764 2.02201 28.0523 1.92404 28.1518 1.85486C28.2512 1.78568 28.3695 1.7486 28.4907 1.7486C28.6118 1.7486 28.7301 1.78568 28.8296 1.85486C28.929 1.92404 29.005 2.02201 29.0471 2.1356L30.7684 6.86921C30.7985 6.9508 30.8459 7.0249 30.9074 7.08639C30.9689 7.14787 31.043 7.19528 31.1246 7.22535L35.8582 8.94666C35.9718 8.98882 36.0697 9.06474 36.1389 9.16421C36.2081 9.26369 36.2452 9.38195 36.2452 9.50312C36.2452 9.62428 36.2081 9.74255 36.1389 9.84202C36.0697 9.94149 35.9718 10.0174 35.8582 10.0596L31.1246 11.7809C31.043 11.811 30.9689 11.8584 30.9074 11.9198C30.8459 11.9813 30.7985 12.0554 30.7684 12.137V12.137Z" stroke="#FED253" stroke-width="1.18711" stroke-linecap="round" stroke-linejoin="round"/>
<path d="M49.7623 12.137L48.041 16.8706C47.9988 16.9842 47.9229 17.0822 47.8234 17.1514C47.7239 17.2206 47.6057 17.2576 47.4845 17.2576C47.3633 17.2576 47.2451 17.2206 47.1456 17.1514C47.0461 17.0822 46.9702 16.9842 46.928 16.8706L45.2067 12.137C45.1767 12.0554 45.1293 11.9813 45.0678 11.9198C45.0063 11.8584 44.9322 11.811 44.8506 11.7809L40.117 10.0596C40.0034 10.0174 39.9054 9.94149 39.8362 9.84202C39.7671 9.74255 39.73 9.62428 39.73 9.50312C39.73 9.38195 39.7671 9.26369 39.8362 9.16421C39.9054 9.06474 40.0034 8.98882 40.117 8.94666L44.8506 7.22535C44.9322 7.19528 45.0063 7.14787 45.0678 7.08639C45.1293 7.0249 45.1767 6.9508 45.2067 6.86921L46.928 2.1356C46.9702 2.02201 47.0461 1.92404 47.1456 1.85486C47.2451 1.78568 47.3633 1.7486 47.4845 1.7486C47.6057 1.7486 47.7239 1.78568 47.8234 1.85486C47.9229 1.92404 47.9988 2.02201 48.041 2.1356L49.7623 6.86921C49.7923 6.9508 49.8397 7.0249 49.9012 7.08639C49.9627 7.14787 50.0368 7.19528 50.1184 7.22535L54.852 8.94666C54.9656 8.98882 55.0636 9.06474 55.1328 9.16421C55.2019 9.26369 55.239 9.38195 55.239 9.50312C55.239 9.62428 55.2019 9.74255 55.1328 9.84202C55.0636 9.94149 54.9656 10.0174 54.852 10.0596L50.1184 11.7809C50.0368 11.811 49.9627 11.8584 49.9012 11.9198C49.8397 11.9813 49.7923 12.0554 49.7623 12.137V12.137Z" stroke="#FED253" stroke-width="1.18711" stroke-linecap="round" stroke-linejoin="round"/>
<path d="M68.756 12.137L67.0347 16.8706C66.9926 16.9842 66.9167 17.0822 66.8172 17.1514C66.7177 17.2206 66.5994 17.2576 66.4783 17.2576C66.3571 17.2576 66.2388 17.2206 66.1394 17.1514C66.0399 17.0822 65.964 16.9842 65.9218 16.8706L64.2005 12.137C64.1704 12.0554 64.123 11.9813 64.0615 11.9198C64.0001 11.8584 63.926 11.811 63.8444 11.7809L59.1108 10.0596C58.9972 10.0174 58.8992 9.94149 58.83 9.84202C58.7608 9.74255 58.7238 9.62428 58.7238 9.50312C58.7238 9.38195 58.7608 9.26369 58.83 9.16421C58.8992 9.06474 58.9972 8.98882 59.1108 8.94666L63.8444 7.22535C63.926 7.19528 64.0001 7.14787 64.0615 7.08639C64.123 7.0249 64.1704 6.9508 64.2005 6.86921L65.9218 2.1356C65.964 2.02201 66.0399 1.92404 66.1394 1.85486C66.2388 1.78568 66.3571 1.7486 66.4783 1.7486C66.5994 1.7486 66.7177 1.78568 66.8172 1.85486C66.9167 1.92404 66.9926 2.02201 67.0347 2.1356L68.756 6.86921C68.7861 6.9508 68.8335 7.0249 68.895 7.08639C68.9565 7.14787 69.0306 7.19528 69.1122 7.22535L73.8458 8.94666C73.9594 8.98882 74.0573 9.06474 74.1265 9.16421C74.1957 9.26369 74.2328 9.38195 74.2328 9.50312C74.2328 9.62428 74.1957 9.74255 74.1265 9.84202C74.0573 9.94149 73.9594 10.0174 73.8458 10.0596L69.1122 11.7809C69.0306 11.811 68.9565 11.8584 68.895 11.9198C68.8335 11.9813 68.7861 12.0554 68.756 12.137V12.137Z" stroke="#FED253" stroke-width="1.18711" stroke-linecap="round" stroke-linejoin="round"/>
<path d="M87.7498 12.137L86.0285 16.8706C85.9863 16.9842 85.9104 17.0822 85.811 17.1514C85.7115 17.2206 85.5932 17.2576 85.472 17.2576C85.3509 17.2576 85.2326 17.2206 85.1331 17.1514C85.0337 17.0822 84.9578 16.9842 84.9156 16.8706L83.1943 12.137C83.1642 12.0554 83.1168 11.9813 83.0553 11.9198C82.9938 11.8584 82.9197 11.811 82.8381 11.7809L78.1045 10.0596C77.9909 10.0174 77.893 9.94149 77.8238 9.84202C77.7546 9.74255 77.7175 9.62428 77.7175 9.50312C77.7175 9.38195 77.7546 9.26369 77.8238 9.16421C77.893 9.06474 77.9909 8.98882 78.1045 8.94666L82.8381 7.22535C82.9197 7.19528 82.9938 7.14787 83.0553 7.08639C83.1168 7.0249 83.1642 6.9508 83.1943 6.86921L84.9156 2.1356C84.9578 2.02201 85.0337 1.92404 85.1331 1.85486C85.2326 1.78568 85.3509 1.7486 85.472 1.7486C85.5932 1.7486 85.7115 1.78568 85.811 1.85486C85.9104 1.92404 85.9863 2.02201 86.0285 2.1356L87.7498 6.86921C87.7799 6.9508 87.8273 7.0249 87.8888 7.08639C87.9503 7.14787 88.0244 7.19528 88.106 7.22535L92.8396 8.94666C92.9532 8.98882 93.0511 9.06474 93.1203 9.16421C93.1895 9.26369 93.2266 9.38195 93.2266 9.50312C93.2266 9.62428 93.1895 9.74255 93.1203 9.84202C93.0511 9.94149 92.9532 10.0174 92.8396 10.0596L88.106 11.7809C88.0244 11.811 87.9503 11.8584 87.8888 11.9198C87.8273 11.9813 87.7799 12.0554 87.7498 12.137V12.137Z" stroke="#C3C3E6" stroke-width="1.18711" stroke-linecap="round" stroke-linejoin="round"/>
</svg>
