<svg width="228" height="228" viewBox="0 0 228 228" fill="none" xmlns="http://www.w3.org/2000/svg">
<g filter="url(#filter0_d_31_545)">
<path d="M37.1667 55.288C76.307 4.60256 193.522 46.267 214.074 54.0838C215.976 54.8073 217.167 56.6192 217.167 58.6543V189.288C217.167 192.049 214.928 194.288 212.167 194.288H40.7293C38.5971 194.288 36.7223 192.991 36.0814 190.958C30.6328 173.671 7.66286 93.4943 37.1667 55.288Z" fill="#5D737E"/>
</g>
<g filter="url(#filter1_d_31_545)">
<path d="M92.0517 177.444C90.884 176.109 90.5117 174.254 91.0735 172.571L118.176 91.3727C119.692 86.8295 126.113 86.8124 127.653 91.3475L155.23 172.531C155.809 174.235 155.428 176.118 154.232 177.463L126.646 208.473C124.646 210.721 121.126 210.706 119.146 208.44L92.0517 177.444Z" fill="#FED253"/>
</g>
<path d="M188.1 91.2733H176.7C175.188 91.2733 173.738 91.8735 172.669 92.9419C171.601 94.0103 171 95.4594 171 96.9703C171 98.4813 171.601 99.9303 172.669 100.999C173.738 102.067 175.188 102.667 176.7 102.667H188.1C189.612 102.667 191.062 102.067 192.131 100.999C193.199 99.9303 193.8 98.4813 193.8 96.9703C193.8 95.4594 193.199 94.0103 192.131 92.9419C191.062 91.8735 189.612 91.2733 188.1 91.2733Z" fill="black"/>
<path d="M210.9 22.9091H190.494L169.29 1.83017C168.875 1.08473 168.237 0.487293 167.466 0.121067C166.753 -0.0403556 166.013 -0.0403556 165.3 0.121067H62.7C61.987 -0.0403556 61.247 -0.0403556 60.534 0.121067C59.8226 0.363994 59.1917 0.797544 58.71 1.37441L37.506 22.9091H17.1C12.5648 22.9091 8.21535 24.7098 5.00847 27.915C1.8016 31.1202 0 35.4673 0 40.0002V188.123C0 192.655 1.8016 197.003 5.00847 200.208C8.21535 203.413 12.5648 205.214 17.1 205.214H91.2L109.44 226.065C109.985 226.674 110.653 227.161 111.399 227.494C112.146 227.828 112.954 228 113.772 228C114.59 228 115.398 227.828 116.145 227.494C116.891 227.161 117.559 226.674 118.104 226.065L136.8 205.214H210.9C215.435 205.214 219.785 203.413 222.992 200.208C226.198 197.003 228 192.655 228 188.123V40.0002C228 35.4673 226.198 31.1202 222.992 27.915C219.785 24.7098 215.435 22.9091 210.9 22.9091ZM117.306 68.4853H110.694L93.594 51.3942L99.294 45.6972H128.706L134.406 51.3942L117.306 68.4853ZM128.706 34.3032H99.294L76.494 11.5151H151.506L128.706 34.3032ZM139.194 40.0002L165.3 13.9078L180.006 28.6061L153.9 54.6985L139.194 40.0002ZM62.7 13.9078L88.806 40.0002L74.1 54.6985L47.994 28.6061L62.7 13.9078ZM17.1 193.82C15.5883 193.82 14.1384 193.219 13.0695 192.151C12.0005 191.083 11.4 189.634 11.4 188.123V40.0002C11.4 38.4892 12.0005 37.0402 13.0695 35.9718C14.1384 34.9034 15.5883 34.3032 17.1 34.3032H37.506L70.11 66.7761C70.6217 67.3211 71.2398 67.7555 71.9261 68.0524C72.6123 68.3494 73.3522 68.5025 74.1 68.5025C74.8478 68.5025 75.5877 68.3494 76.2739 68.0524C76.9602 67.7555 77.5783 67.3211 78.09 66.7761L85.5 59.484L101.802 75.7774L68.4 174.906C68.0791 175.846 68.0049 176.853 68.1845 177.831C68.3641 178.808 68.7916 179.723 69.426 180.489L80.826 193.82H17.1ZM114 213.645L80.484 175.475L112.404 79.8793H115.596L147.516 175.475L114 213.645ZM216.6 188.123C216.6 189.634 215.999 191.083 214.931 192.151C213.862 193.219 212.412 193.82 210.9 193.82H146.49L157.89 180.489C158.524 179.723 158.952 178.808 159.131 177.831C159.311 176.853 159.237 175.846 158.916 174.906L125.856 75.7774L142.5 59.484L149.91 66.7761C150.422 67.3211 151.04 67.7555 151.726 68.0524C152.412 68.3494 153.152 68.5025 153.9 68.5025C154.648 68.5025 155.388 68.3494 156.074 68.0524C156.76 67.7555 157.378 67.3211 157.89 66.7761L190.494 34.3032H210.9C212.412 34.3032 213.862 34.9034 214.931 35.9718C215.999 37.0402 216.6 38.4892 216.6 40.0002V188.123Z" fill="black"/>
<defs>
<filter id="filter0_d_31_545" x="14.4211" y="26.5606" width="202.746" height="171.727" filterUnits="userSpaceOnUse" color-interpolation-filters="sRGB">
<feFlood flood-opacity="0" result="BackgroundImageFix"/>
<feColorMatrix in="SourceAlpha" type="matrix" values="0 0 0 0 0 0 0 0 0 0 0 0 0 0 0 0 0 0 127 0" result="hardAlpha"/>
<feOffset dx="-4"/>
<feGaussianBlur stdDeviation="2"/>
<feComposite in2="hardAlpha" operator="out"/>
<feColorMatrix type="matrix" values="0 0 0 0 0.364706 0 0 0 0 0.45098 0 0 0 0 0.494118 0 0 0 1 0"/>
<feBlend mode="normal" in2="BackgroundImageFix" result="effect1_dropShadow_31_545"/>
<feBlend mode="normal" in="SourceGraphic" in2="effect1_dropShadow_31_545" result="shape"/>
</filter>
<filter id="filter1_d_31_545" x="82.8162" y="83.9557" width="72.6799" height="130.194" filterUnits="userSpaceOnUse" color-interpolation-filters="sRGB">
<feFlood flood-opacity="0" result="BackgroundImageFix"/>
<feColorMatrix in="SourceAlpha" type="matrix" values="0 0 0 0 0 0 0 0 0 0 0 0 0 0 0 0 0 0 127 0" result="hardAlpha"/>
<feOffset dx="-4"/>
<feGaussianBlur stdDeviation="2"/>
<feComposite in2="hardAlpha" operator="out"/>
<feColorMatrix type="matrix" values="0 0 0 0 0.996078 0 0 0 0 0.823529 0 0 0 0 0.32549 0 0 0 1 0"/>
<feBlend mode="normal" in2="BackgroundImageFix" result="effect1_dropShadow_31_545"/>
<feBlend mode="normal" in="SourceGraphic" in2="effect1_dropShadow_31_545" result="shape"/>
</filter>
</defs>
</svg>
