<svg width="32" height="32" viewBox="0 0 32 32" fill="none" xmlns="http://www.w3.org/2000/svg">
<path d="M19 14H24" stroke="#989898" stroke-width="2" stroke-linecap="round" stroke-linejoin="round"/>
<path d="M19 18H24" stroke="#989898" stroke-width="2" stroke-linecap="round" stroke-linejoin="round"/>
<path d="M11.5125 18C13.1694 18 14.5125 16.6569 14.5125 15C14.5125 13.3431 13.1694 12 11.5125 12C9.85564 12 8.5125 13.3431 8.5125 15C8.5125 16.6569 9.85564 18 11.5125 18Z" stroke="#989898" stroke-width="2" stroke-linecap="round" stroke-linejoin="round"/>
<path d="M7.6375 21C7.8578 20.1396 8.3582 19.377 9.05981 18.8324C9.76142 18.2878 10.6243 17.9922 11.5125 17.9922C12.4007 17.9922 13.2636 18.2878 13.9652 18.8324C14.6668 19.377 15.1672 20.1396 15.3875 21" stroke="#989898" stroke-width="2" stroke-linecap="round" stroke-linejoin="round"/>
<path d="M27 6H5C4.44772 6 4 6.44772 4 7V25C4 25.5523 4.44772 26 5 26H27C27.5523 26 28 25.5523 28 25V7C28 6.44772 27.5523 6 27 6Z" stroke="#989898" stroke-width="2" stroke-linecap="round" stroke-linejoin="round"/>
</svg>
