<svg width="32" height="32" viewBox="0 0 32 32" fill="none" xmlns="http://www.w3.org/2000/svg">
<path d="M16 21C18.7614 21 21 18.7614 21 16C21 13.2386 18.7614 11 16 11C13.2386 11 11 13.2386 11 16C11 18.7614 13.2386 21 16 21Z" stroke="#989898" stroke-width="2" stroke-linecap="round" stroke-linejoin="round"/>
<path d="M22.6375 26C20.4101 27.4788 17.7527 28.1715 15.0868 27.968C12.4209 27.7646 9.89939 26.6767 7.92223 24.8769C5.94507 23.0772 4.62557 20.6687 4.17309 18.0337C3.72061 15.3987 4.16107 12.688 5.42459 10.3318C6.6881 7.97556 8.7023 6.10879 11.1476 5.02767C13.5928 3.94655 16.3291 3.713 18.9222 4.36408C21.5154 5.01516 23.8168 6.51358 25.4613 8.62157C27.1059 10.7296 27.9994 13.3264 28 16C28 18.7625 27 21 24.5 21C22 21 21 18.7625 21 16V11" stroke="#989898" stroke-width="2" stroke-linecap="round" stroke-linejoin="round"/>
</svg>
