<svg width="32" height="32" viewBox="0 0 32 32" fill="none" xmlns="http://www.w3.org/2000/svg">
<path d="M19 26V20C19 19.7348 18.8946 19.4804 18.7071 19.2929C18.5196 19.1053 18.2652 19 18 19H14C13.7348 19 13.4804 19.1053 13.2929 19.2929C13.1054 19.4804 13 19.7348 13 20V26C13 26.2652 12.8946 26.5196 12.7071 26.7071C12.5196 26.8946 12.2652 27 12 27H6C5.73478 27 5.48043 26.8946 5.29289 26.7071C5.10536 26.5196 5 26.2652 5 26V14.4375C5.00224 14.2991 5.03215 14.1626 5.08796 14.0359C5.14378 13.9092 5.22437 13.795 5.325 13.7L15.325 4.61249C15.5093 4.44384 15.7501 4.35031 16 4.35031C16.2499 4.35031 16.4907 4.44384 16.675 4.61249L26.675 13.7C26.7756 13.795 26.8562 13.9092 26.912 14.0359C26.9679 14.1626 26.9978 14.2991 27 14.4375V26C27 26.2652 26.8946 26.5196 26.7071 26.7071C26.5196 26.8946 26.2652 27 26 27H20C19.7348 27 19.4804 26.8946 19.2929 26.7071C19.1054 26.5196 19 26.2652 19 26Z" stroke="#989898" stroke-width="2" stroke-linecap="round" stroke-linejoin="round"/>
</svg>
