<svg width="32" height="32" viewBox="0 0 32 32" fill="none" xmlns="http://www.w3.org/2000/svg">
<path d="M19.8375 20.4375L16.9375 28.4125C16.8665 28.6039 16.7386 28.7689 16.571 28.8855C16.4034 29.002 16.2041 29.0645 16 29.0645C15.7959 29.0645 15.5966 29.002 15.429 28.8855C15.2614 28.7689 15.1335 28.6039 15.0625 28.4125L12.1625 20.4375C12.1119 20.3 12.032 20.1752 11.9284 20.0716C11.8248 19.968 11.7 19.8881 11.5625 19.8375L3.5875 16.9375C3.39612 16.8665 3.23107 16.7386 3.11452 16.571C2.99796 16.4034 2.93549 16.2041 2.93549 16C2.93549 15.7959 2.99796 15.5966 3.11452 15.429C3.23107 15.2614 3.39612 15.1335 3.5875 15.0625L11.5625 12.1625C11.7 12.1119 11.8248 12.032 11.9284 11.9284C12.032 11.8248 12.1119 11.7 12.1625 11.5625L15.0625 3.5875C15.1335 3.39612 15.2614 3.23107 15.429 3.11452C15.5966 2.99796 15.7959 2.93549 16 2.93549C16.2041 2.93549 16.4034 2.99796 16.571 3.11452C16.7386 3.23107 16.8665 3.39612 16.9375 3.5875L19.8375 11.5625C19.8881 11.7 19.968 11.8248 20.0716 11.9284C20.1752 12.032 20.3 12.1119 20.4375 12.1625L28.4125 15.0625C28.6039 15.1335 28.7689 15.2614 28.8855 15.429C29.002 15.5966 29.0645 15.7959 29.0645 16C29.0645 16.2041 29.002 16.4034 28.8855 16.571C28.7689 16.7386 28.6039 16.8665 28.4125 16.9375L20.4375 19.8375C20.3 19.8881 20.1752 19.968 20.0716 20.0716C19.968 20.1752 19.8881 20.3 19.8375 20.4375V20.4375Z" stroke="#FED253" stroke-width="2" stroke-linecap="round" stroke-linejoin="round"/>
</svg>
