<svg width="32" height="32" viewBox="0 0 32 32" fill="none" xmlns="http://www.w3.org/2000/svg">
<path d="M11.65 15.35C11.2165 14.2865 10.9957 13.1484 11 12C11 10.22 11.5278 8.47991 12.5168 6.99987C13.5057 5.51983 14.9113 4.36627 16.5558 3.68508C18.2004 3.0039 20.01 2.82567 21.7558 3.17293C23.5016 3.5202 25.1053 4.37737 26.364 5.63604C27.6226 6.89471 28.4798 8.49836 28.8271 10.2442C29.1743 11.99 28.9961 13.7996 28.3149 15.4442C27.6337 17.0887 26.4802 18.4943 25.0001 19.4832C23.5201 20.4722 21.78 21 20 21C18.8516 21.0043 17.7135 20.7835 16.65 20.35V20.35L15 22H12V25H9V28H4V23L11.65 15.35Z" stroke="#989898" stroke-width="2" stroke-linecap="round" stroke-linejoin="round"/>
<path d="M22.5 11C23.3284 11 24 10.3284 24 9.5C24 8.67157 23.3284 8 22.5 8C21.6716 8 21 8.67157 21 9.5C21 10.3284 21.6716 11 22.5 11Z" fill="#989898"/>
</svg>
