<svg width="25" height="24" viewBox="0 0 25 24" fill="none" xmlns="http://www.w3.org/2000/svg">
<path d="M14.5123 10.5737H18.1818" stroke="#989898" stroke-width="1.4678" stroke-linecap="round" stroke-linejoin="round"/>
<path d="M14.5123 13.5093H18.1818" stroke="#989898" stroke-width="1.4678" stroke-linecap="round" stroke-linejoin="round"/>
<path d="M9.01726 13.5094C10.2332 13.5094 11.219 12.5236 11.219 11.3077C11.219 10.0917 10.2332 9.10596 9.01726 9.10596C7.80129 9.10596 6.81555 10.0917 6.81555 11.3077C6.81555 12.5236 7.80129 13.5094 9.01726 13.5094Z" stroke="#989898" stroke-width="1.4678" stroke-linecap="round" stroke-linejoin="round"/>
<path d="M6.17334 15.7111C6.33502 15.0797 6.70226 14.52 7.21718 14.1203C7.73209 13.7206 8.36538 13.5037 9.01721 13.5037C9.66904 13.5037 10.3023 13.7206 10.8172 14.1203C11.3322 14.52 11.6994 15.0797 11.8611 15.7111" stroke="#989898" stroke-width="1.4678" stroke-linecap="round" stroke-linejoin="round"/>
<path d="M20.3835 4.70264H4.23769C3.83236 4.70264 3.50378 5.03122 3.50378 5.43654V18.6468C3.50378 19.0521 3.83236 19.3807 4.23769 19.3807H20.3835C20.7888 19.3807 21.1174 19.0521 21.1174 18.6468V5.43654C21.1174 5.03122 20.7888 4.70264 20.3835 4.70264Z" stroke="#989898" stroke-width="1.4678" stroke-linecap="round" stroke-linejoin="round"/>
</svg>
