<svg width="24" height="25" viewBox="0 0 24 25" fill="none" xmlns="http://www.w3.org/2000/svg">
<path d="M8.58417 12.3311C9.33938 13.8907 10.6005 15.1485 12.1619 15.8997C12.2771 15.9542 12.4045 15.9778 12.5316 15.9682C12.6587 15.9585 12.781 15.916 12.8867 15.8447L15.1801 14.3126C15.2814 14.2439 15.3985 14.202 15.5204 14.1907C15.6424 14.1795 15.7651 14.1994 15.8773 14.2484L20.1706 16.0923C20.3174 16.1534 20.44 16.261 20.5195 16.3986C20.5991 16.5362 20.6312 16.6961 20.611 16.8538C20.4749 17.9159 19.9565 18.892 19.1528 19.5995C18.349 20.3069 17.315 20.6973 16.2443 20.6976C12.9353 20.6976 9.76194 19.3831 7.42218 17.0433C5.08241 14.7036 3.76794 11.5302 3.76794 8.22125C3.76819 7.15049 4.15858 6.1165 4.86607 5.31276C5.57356 4.50902 6.54967 3.99062 7.61175 3.85454C7.76939 3.83429 7.92932 3.86642 8.06691 3.94599C8.20449 4.02556 8.3121 4.14815 8.37318 4.29488L10.2171 8.59738C10.2651 8.70778 10.2851 8.82829 10.2755 8.94827C10.2659 9.06825 10.227 9.18403 10.1621 9.28541L8.63004 11.6155C8.56184 11.7209 8.5218 11.8421 8.51377 11.9673C8.50574 12.0926 8.52998 12.2179 8.58417 12.3311V12.3311Z" stroke="#989898" stroke-width="2.34848" stroke-linecap="round" stroke-linejoin="round"/>
</svg>
