<svg width="100" height="100" viewBox="0 0 100 100" fill="none" xmlns="http://www.w3.org/2000/svg">
<rect width="100" height="100" rx="4" fill="#1E1E1E"/>
<path d="M61 45.5V27.5H43" stroke="#FED253" stroke-width="2" stroke-linecap="round" stroke-linejoin="round"/>
<path d="M57 31.5H39V49.5H57V31.5Z" stroke="#FED253" stroke-width="2" stroke-linecap="round" stroke-linejoin="round"/>
<path d="M26.168 64.7266H26.6484C26.6094 65.1094 26.5039 65.4401 26.332 65.7188C26.1602 65.9948 25.9258 66.207 25.6289 66.3555C25.332 66.5039 24.974 66.5781 24.5547 66.5781C24.2318 66.5781 23.9388 66.5169 23.6758 66.3945C23.4154 66.2721 23.1914 66.099 23.0039 65.875C22.8164 65.6484 22.6719 65.3776 22.5703 65.0625C22.4688 64.7474 22.418 64.3971 22.418 64.0117V63.3008C22.418 62.9154 22.4688 62.5664 22.5703 62.2539C22.6719 61.9388 22.8177 61.668 23.0078 61.4414C23.1979 61.2148 23.4258 61.0404 23.6914 60.918C23.957 60.7956 24.2565 60.7344 24.5898 60.7344C24.9935 60.7344 25.3424 60.8086 25.6367 60.957C25.931 61.1029 26.1628 61.3138 26.332 61.5898C26.5039 61.8659 26.6094 62.1992 26.6484 62.5898H26.168C26.1315 62.2826 26.0508 62.0221 25.9258 61.8086C25.8008 61.5951 25.6276 61.4323 25.4062 61.3203C25.1875 61.2057 24.9154 61.1484 24.5898 61.1484C24.3242 61.1484 24.0872 61.1992 23.8789 61.3008C23.6706 61.4023 23.4935 61.5482 23.3477 61.7383C23.2018 61.9258 23.0898 62.151 23.0117 62.4141C22.9362 62.6771 22.8984 62.9701 22.8984 63.293V64.0117C22.8984 64.3242 22.9349 64.612 23.0078 64.875C23.0807 65.138 23.1875 65.3659 23.3281 65.5586C23.4714 65.7513 23.6458 65.901 23.8516 66.0078C24.0573 66.1146 24.2917 66.168 24.5547 66.168C24.8906 66.168 25.1706 66.1146 25.3945 66.0078C25.6211 65.8984 25.7969 65.737 25.9219 65.5234C26.0469 65.3099 26.1289 65.0443 26.168 64.7266ZM28.2305 60.5V66.5H27.7656V60.5H28.2305ZM30.0273 62.2734V66.5H29.5625V62.2734H30.0273ZM29.4805 61.0508C29.4805 60.9622 29.5078 60.888 29.5625 60.8281C29.6198 60.7656 29.6979 60.7344 29.7969 60.7344C29.8958 60.7344 29.974 60.7656 30.0312 60.8281C30.0911 60.888 30.1211 60.9622 30.1211 61.0508C30.1211 61.1367 30.0911 61.2109 30.0312 61.2734C29.974 61.3333 29.8958 61.3633 29.7969 61.3633C29.6979 61.3633 29.6198 61.3333 29.5625 61.2734C29.5078 61.2109 29.4805 61.1367 29.4805 61.0508ZM34.0508 68.125V63.0859L34.082 62.2734H34.5156V68.125H34.0508ZM31.1172 64.4297V64.3477C31.1172 64.0195 31.1536 63.724 31.2266 63.4609C31.2995 63.1953 31.4062 62.9688 31.5469 62.7812C31.6901 62.5911 31.862 62.4466 32.0625 62.3477C32.2656 62.2461 32.4961 62.1953 32.7539 62.1953C33.0013 62.1953 33.2214 62.2357 33.4141 62.3164C33.6068 62.3971 33.7721 62.513 33.9102 62.6641C34.0508 62.8151 34.1641 62.9948 34.25 63.2031C34.3359 63.4115 34.3984 63.6432 34.4375 63.8984V64.9414C34.4062 65.181 34.3477 65.401 34.2617 65.6016C34.1784 65.7995 34.0664 65.9727 33.9258 66.1211C33.7852 66.2669 33.6159 66.3802 33.418 66.4609C33.2227 66.5391 32.9987 66.5781 32.7461 66.5781C32.4909 66.5781 32.2617 66.526 32.0586 66.4219C31.8581 66.3177 31.6875 66.1706 31.5469 65.9805C31.4089 65.7878 31.3021 65.5599 31.2266 65.2969C31.1536 65.0339 31.1172 64.7448 31.1172 64.4297ZM31.5859 64.3477V64.4297C31.5859 64.6771 31.6107 64.9062 31.6602 65.1172C31.7122 65.3281 31.7891 65.513 31.8906 65.6719C31.9922 65.8307 32.1211 65.9544 32.2773 66.043C32.4362 66.1315 32.6211 66.1758 32.832 66.1758C33.1003 66.1758 33.3268 66.1237 33.5117 66.0195C33.6966 65.9154 33.8438 65.7773 33.9531 65.6055C34.0651 65.4336 34.1458 65.2461 34.1953 65.043V63.8281C34.1693 63.6953 34.125 63.5573 34.0625 63.4141C34 63.2708 33.9154 63.138 33.8086 63.0156C33.7044 62.8906 33.5729 62.7904 33.4141 62.7148C33.2552 62.6367 33.0638 62.5977 32.8398 62.5977C32.6263 62.5977 32.4401 62.6432 32.2812 62.7344C32.125 62.8229 31.9948 62.9466 31.8906 63.1055C31.7891 63.2643 31.7122 63.4492 31.6602 63.6602C31.6107 63.8711 31.5859 64.1003 31.5859 64.3477ZM38.4727 65.5234V62.2734H38.9414V66.5H38.4922L38.4727 65.5234ZM38.5586 64.7422L38.8008 64.7344C38.8008 65 38.7695 65.2448 38.707 65.4688C38.6445 65.6927 38.5469 65.888 38.4141 66.0547C38.2812 66.2214 38.1094 66.3503 37.8984 66.4414C37.6875 66.5326 37.4336 66.5781 37.1367 66.5781C36.931 66.5781 36.7422 66.5495 36.5703 66.4922C36.401 66.4323 36.2552 66.3385 36.1328 66.2109C36.0104 66.0833 35.9154 65.918 35.8477 65.7148C35.7826 65.5117 35.75 65.2656 35.75 64.9766V62.2734H36.2148V64.9844C36.2148 65.2109 36.2396 65.3997 36.2891 65.5508C36.3411 65.7018 36.4115 65.8229 36.5 65.9141C36.5911 66.0052 36.6953 66.0703 36.8125 66.1094C36.9297 66.1484 37.056 66.168 37.1914 66.168C37.5352 66.168 37.806 66.1016 38.0039 65.9688C38.2044 65.8359 38.3464 65.6615 38.4297 65.4453C38.5156 65.2266 38.5586 64.9922 38.5586 64.7422ZM41.7969 66.5781C41.5208 66.5781 41.2669 66.5273 41.0352 66.4258C40.806 66.3242 40.6055 66.181 40.4336 65.9961C40.2643 65.8112 40.1328 65.5924 40.0391 65.3398C39.9479 65.0846 39.9023 64.806 39.9023 64.5039V64.3359C39.9023 64.0104 39.9505 63.7161 40.0469 63.4531C40.1432 63.1901 40.276 62.9648 40.4453 62.7773C40.6146 62.5898 40.8073 62.4466 41.0234 62.3477C41.2422 62.2461 41.4714 62.1953 41.7109 62.1953C41.9792 62.1953 42.2174 62.2435 42.4258 62.3398C42.6341 62.4336 42.8086 62.5677 42.9492 62.7422C43.0924 62.9141 43.2005 63.1185 43.2734 63.3555C43.3464 63.5898 43.3828 63.849 43.3828 64.1328V64.418H40.1836V64.0195H42.918V63.9648C42.9128 63.7279 42.8646 63.5065 42.7734 63.3008C42.6849 63.0924 42.5521 62.9232 42.375 62.793C42.1979 62.6628 41.9766 62.5977 41.7109 62.5977C41.513 62.5977 41.3307 62.6393 41.1641 62.7227C41 62.806 40.8581 62.9258 40.7383 63.082C40.6211 63.2357 40.5299 63.4193 40.4648 63.6328C40.4023 63.8438 40.3711 64.0781 40.3711 64.3359V64.5039C40.3711 64.7383 40.4049 64.957 40.4727 65.1602C40.543 65.3607 40.6419 65.5378 40.7695 65.6914C40.8997 65.8451 41.0534 65.9648 41.2305 66.0508C41.4076 66.1367 41.6029 66.1797 41.8164 66.1797C42.0664 66.1797 42.2878 66.1341 42.4805 66.043C42.6732 65.9492 42.8464 65.8021 43 65.6016L43.293 65.8281C43.2018 65.9635 43.0872 66.0885 42.9492 66.2031C42.8138 66.3177 42.651 66.4089 42.4609 66.4766C42.2708 66.5443 42.0495 66.5781 41.7969 66.5781ZM48.8281 65.7422V63.5625C48.8281 63.362 48.7865 63.1888 48.7031 63.043C48.6198 62.8971 48.4974 62.7852 48.3359 62.707C48.1745 62.6289 47.9753 62.5898 47.7383 62.5898C47.5195 62.5898 47.3242 62.6289 47.1523 62.707C46.9831 62.7826 46.849 62.8854 46.75 63.0156C46.6536 63.1432 46.6055 63.2852 46.6055 63.4414L46.1367 63.4375C46.1367 63.2786 46.1758 63.125 46.2539 62.9766C46.332 62.8281 46.4427 62.6953 46.5859 62.5781C46.7292 62.4609 46.8997 62.3685 47.0977 62.3008C47.2982 62.2305 47.5182 62.1953 47.7578 62.1953C48.0599 62.1953 48.3255 62.2461 48.5547 62.3477C48.7865 62.4492 48.9674 62.6016 49.0977 62.8047C49.2279 63.0078 49.293 63.263 49.293 63.5703V65.6133C49.293 65.7591 49.3034 65.9102 49.3242 66.0664C49.3477 66.2227 49.3802 66.3516 49.4219 66.4531V66.5H48.9258C48.8945 66.4062 48.8698 66.2891 48.8516 66.1484C48.8359 66.0052 48.8281 65.8698 48.8281 65.7422ZM48.9375 64.0391L48.9453 64.3984H48.0273C47.7878 64.3984 47.5729 64.4206 47.3828 64.4648C47.1953 64.5065 47.0365 64.569 46.9062 64.6523C46.776 64.7331 46.6758 64.8307 46.6055 64.9453C46.5378 65.0599 46.5039 65.1901 46.5039 65.3359C46.5039 65.487 46.5417 65.625 46.6172 65.75C46.6953 65.875 46.8047 65.9753 46.9453 66.0508C47.0885 66.1237 47.2578 66.1602 47.4531 66.1602C47.7135 66.1602 47.9427 66.112 48.1406 66.0156C48.3411 65.9193 48.5065 65.793 48.6367 65.6367C48.7669 65.4805 48.8542 65.3099 48.8984 65.125L49.1016 65.3945C49.0677 65.5247 49.0052 65.6589 48.9141 65.7969C48.8255 65.9323 48.7096 66.0599 48.5664 66.1797C48.4232 66.2969 48.2539 66.3932 48.0586 66.4688C47.8659 66.5417 47.6471 66.5781 47.4023 66.5781C47.1263 66.5781 46.8854 66.526 46.6797 66.4219C46.4766 66.3177 46.3177 66.1758 46.2031 65.9961C46.0911 65.8138 46.0352 65.6081 46.0352 65.3789C46.0352 65.1706 46.0794 64.9844 46.168 64.8203C46.2565 64.6536 46.3841 64.513 46.5508 64.3984C46.7201 64.2812 46.9232 64.1927 47.1602 64.1328C47.3997 64.0703 47.668 64.0391 47.9648 64.0391H48.9375ZM53.293 68.125V63.0859L53.3242 62.2734H53.7578V68.125H53.293ZM50.3594 64.4297V64.3477C50.3594 64.0195 50.3958 63.724 50.4688 63.4609C50.5417 63.1953 50.6484 62.9688 50.7891 62.7812C50.9323 62.5911 51.1042 62.4466 51.3047 62.3477C51.5078 62.2461 51.7383 62.1953 51.9961 62.1953C52.2435 62.1953 52.4635 62.2357 52.6562 62.3164C52.849 62.3971 53.0143 62.513 53.1523 62.6641C53.293 62.8151 53.4062 62.9948 53.4922 63.2031C53.5781 63.4115 53.6406 63.6432 53.6797 63.8984V64.9414C53.6484 65.181 53.5898 65.401 53.5039 65.6016C53.4206 65.7995 53.3086 65.9727 53.168 66.1211C53.0273 66.2669 52.8581 66.3802 52.6602 66.4609C52.4648 66.5391 52.2409 66.5781 51.9883 66.5781C51.7331 66.5781 51.5039 66.526 51.3008 66.4219C51.1003 66.3177 50.9297 66.1706 50.7891 65.9805C50.651 65.7878 50.5443 65.5599 50.4688 65.2969C50.3958 65.0339 50.3594 64.7448 50.3594 64.4297ZM50.8281 64.3477V64.4297C50.8281 64.6771 50.8529 64.9062 50.9023 65.1172C50.9544 65.3281 51.0312 65.513 51.1328 65.6719C51.2344 65.8307 51.3633 65.9544 51.5195 66.043C51.6784 66.1315 51.8633 66.1758 52.0742 66.1758C52.3424 66.1758 52.569 66.1237 52.7539 66.0195C52.9388 65.9154 53.0859 65.7773 53.1953 65.6055C53.3073 65.4336 53.388 65.2461 53.4375 65.043V63.8281C53.4115 63.6953 53.3672 63.5573 53.3047 63.4141C53.2422 63.2708 53.1576 63.138 53.0508 63.0156C52.9466 62.8906 52.8151 62.7904 52.6562 62.7148C52.4974 62.6367 52.306 62.5977 52.082 62.5977C51.8685 62.5977 51.6823 62.6432 51.5234 62.7344C51.3672 62.8229 51.237 62.9466 51.1328 63.1055C51.0312 63.2643 50.9544 63.4492 50.9023 63.6602C50.8529 63.8711 50.8281 64.1003 50.8281 64.3477ZM57.7148 65.5234V62.2734H58.1836V66.5H57.7344L57.7148 65.5234ZM57.8008 64.7422L58.043 64.7344C58.043 65 58.0117 65.2448 57.9492 65.4688C57.8867 65.6927 57.7891 65.888 57.6562 66.0547C57.5234 66.2214 57.3516 66.3503 57.1406 66.4414C56.9297 66.5326 56.6758 66.5781 56.3789 66.5781C56.1732 66.5781 55.9844 66.5495 55.8125 66.4922C55.6432 66.4323 55.4974 66.3385 55.375 66.2109C55.2526 66.0833 55.1576 65.918 55.0898 65.7148C55.0247 65.5117 54.9922 65.2656 54.9922 64.9766V62.2734H55.457V64.9844C55.457 65.2109 55.4818 65.3997 55.5312 65.5508C55.5833 65.7018 55.6536 65.8229 55.7422 65.9141C55.8333 66.0052 55.9375 66.0703 56.0547 66.1094C56.1719 66.1484 56.2982 66.168 56.4336 66.168C56.7773 66.168 57.0482 66.1016 57.2461 65.9688C57.4466 65.8359 57.5885 65.6615 57.6719 65.4453C57.7578 65.2266 57.8008 64.9922 57.8008 64.7422ZM59.9258 62.2734V66.5H59.4609V62.2734H59.9258ZM59.3789 61.0508C59.3789 60.9622 59.4062 60.888 59.4609 60.8281C59.5182 60.7656 59.5964 60.7344 59.6953 60.7344C59.7943 60.7344 59.8724 60.7656 59.9297 60.8281C59.9896 60.888 60.0195 60.9622 60.0195 61.0508C60.0195 61.1367 59.9896 61.2109 59.9297 61.2734C59.8724 61.3333 59.7943 61.3633 59.6953 61.3633C59.5964 61.3633 59.5182 61.3333 59.4609 61.2734C59.4062 61.2109 59.3789 61.1367 59.3789 61.0508ZM63.6172 63.0859V68.125H63.1484V62.2734H63.5859L63.6172 63.0859ZM66.5547 64.3477V64.4297C66.5547 64.7448 66.5182 65.0339 66.4453 65.2969C66.3724 65.5599 66.2669 65.7878 66.1289 65.9805C65.9935 66.1706 65.8255 66.3177 65.625 66.4219C65.4245 66.526 65.1966 66.5781 64.9414 66.5781C64.6888 66.5781 64.4635 66.5391 64.2656 66.4609C64.0677 66.3828 63.8971 66.2721 63.7539 66.1289C63.6133 65.9831 63.5 65.8138 63.4141 65.6211C63.3307 65.4258 63.2721 65.2122 63.2383 64.9805V63.8984C63.2773 63.6432 63.3411 63.4115 63.4297 63.2031C63.5182 62.9948 63.6315 62.8151 63.7695 62.6641C63.9102 62.513 64.0768 62.3971 64.2695 62.3164C64.4622 62.2357 64.6823 62.1953 64.9297 62.1953C65.1875 62.1953 65.4167 62.2461 65.6172 62.3477C65.8203 62.4466 65.9909 62.5911 66.1289 62.7812C66.2695 62.9688 66.375 63.1953 66.4453 63.4609C66.5182 63.724 66.5547 64.0195 66.5547 64.3477ZM66.0859 64.4297V64.3477C66.0859 64.1003 66.0599 63.8711 66.0078 63.6602C65.9583 63.4492 65.8815 63.2656 65.7773 63.1094C65.6758 62.9505 65.5456 62.8268 65.3867 62.7383C65.2305 62.6497 65.0443 62.6055 64.8281 62.6055C64.6042 62.6055 64.4128 62.6432 64.2539 62.7188C64.0977 62.7917 63.9674 62.8893 63.8633 63.0117C63.7591 63.1315 63.6771 63.263 63.6172 63.4062C63.5573 63.5495 63.513 63.6901 63.4844 63.8281V65.0742C63.5339 65.2721 63.6133 65.4557 63.7227 65.625C63.832 65.7917 63.9779 65.9258 64.1602 66.0273C64.3451 66.1263 64.5703 66.1758 64.8359 66.1758C65.0495 66.1758 65.2344 66.1315 65.3906 66.043C65.5469 65.9544 65.6758 65.8307 65.7773 65.6719C65.8815 65.513 65.9583 65.3281 66.0078 65.1172C66.0599 64.9062 66.0859 64.6771 66.0859 64.4297ZM70.1641 65.7422V63.5625C70.1641 63.362 70.1224 63.1888 70.0391 63.043C69.9557 62.8971 69.8333 62.7852 69.6719 62.707C69.5104 62.6289 69.3112 62.5898 69.0742 62.5898C68.8555 62.5898 68.6602 62.6289 68.4883 62.707C68.319 62.7826 68.1849 62.8854 68.0859 63.0156C67.9896 63.1432 67.9414 63.2852 67.9414 63.4414L67.4727 63.4375C67.4727 63.2786 67.5117 63.125 67.5898 62.9766C67.668 62.8281 67.7786 62.6953 67.9219 62.5781C68.0651 62.4609 68.2357 62.3685 68.4336 62.3008C68.6341 62.2305 68.8542 62.1953 69.0938 62.1953C69.3958 62.1953 69.6615 62.2461 69.8906 62.3477C70.1224 62.4492 70.3034 62.6016 70.4336 62.8047C70.5638 63.0078 70.6289 63.263 70.6289 63.5703V65.6133C70.6289 65.7591 70.6393 65.9102 70.6602 66.0664C70.6836 66.2227 70.7161 66.3516 70.7578 66.4531V66.5H70.2617C70.2305 66.4062 70.2057 66.2891 70.1875 66.1484C70.1719 66.0052 70.1641 65.8698 70.1641 65.7422ZM70.2734 64.0391L70.2812 64.3984H69.3633C69.1237 64.3984 68.9089 64.4206 68.7188 64.4648C68.5312 64.5065 68.3724 64.569 68.2422 64.6523C68.112 64.7331 68.0117 64.8307 67.9414 64.9453C67.8737 65.0599 67.8398 65.1901 67.8398 65.3359C67.8398 65.487 67.8776 65.625 67.9531 65.75C68.0312 65.875 68.1406 65.9753 68.2812 66.0508C68.4245 66.1237 68.5938 66.1602 68.7891 66.1602C69.0495 66.1602 69.2786 66.112 69.4766 66.0156C69.6771 65.9193 69.8424 65.793 69.9727 65.6367C70.1029 65.4805 70.1901 65.3099 70.2344 65.125L70.4375 65.3945C70.4036 65.5247 70.3411 65.6589 70.25 65.7969C70.1615 65.9323 70.0456 66.0599 69.9023 66.1797C69.7591 66.2969 69.5898 66.3932 69.3945 66.4688C69.2018 66.5417 68.9831 66.5781 68.7383 66.5781C68.4622 66.5781 68.2214 66.526 68.0156 66.4219C67.8125 66.3177 67.6536 66.1758 67.5391 65.9961C67.4271 65.8138 67.3711 65.6081 67.3711 65.3789C67.3711 65.1706 67.4154 64.9844 67.5039 64.8203C67.5924 64.6536 67.7201 64.513 67.8867 64.3984C68.056 64.2812 68.2591 64.1927 68.4961 64.1328C68.7357 64.0703 69.0039 64.0391 69.3008 64.0391H70.2734ZM72.3477 62.9727V66.5H71.8828V62.2734H72.3359L72.3477 62.9727ZM73.8438 62.2422L73.832 62.6719C73.7799 62.6641 73.7292 62.6576 73.6797 62.6523C73.6302 62.6471 73.5768 62.6445 73.5195 62.6445C73.3164 62.6445 73.138 62.6823 72.9844 62.7578C72.8333 62.8307 72.7057 62.9336 72.6016 63.0664C72.4974 63.1966 72.418 63.3503 72.3633 63.5273C72.3086 63.7018 72.2773 63.8893 72.2695 64.0898L72.0977 64.1562C72.0977 63.8802 72.1263 63.6237 72.1836 63.3867C72.2409 63.1497 72.3281 62.9427 72.4453 62.7656C72.5651 62.5859 72.7148 62.4466 72.8945 62.3477C73.0768 62.2461 73.2904 62.1953 73.5352 62.1953C73.5951 62.1953 73.6536 62.2005 73.7109 62.2109C73.7708 62.2188 73.8151 62.2292 73.8438 62.2422ZM76.9922 65.7422V63.5625C76.9922 63.362 76.9505 63.1888 76.8672 63.043C76.7839 62.8971 76.6615 62.7852 76.5 62.707C76.3385 62.6289 76.1393 62.5898 75.9023 62.5898C75.6836 62.5898 75.4883 62.6289 75.3164 62.707C75.1471 62.7826 75.013 62.8854 74.9141 63.0156C74.8177 63.1432 74.7695 63.2852 74.7695 63.4414L74.3008 63.4375C74.3008 63.2786 74.3398 63.125 74.418 62.9766C74.4961 62.8281 74.6068 62.6953 74.75 62.5781C74.8932 62.4609 75.0638 62.3685 75.2617 62.3008C75.4622 62.2305 75.6823 62.1953 75.9219 62.1953C76.224 62.1953 76.4896 62.2461 76.7188 62.3477C76.9505 62.4492 77.1315 62.6016 77.2617 62.8047C77.3919 63.0078 77.457 63.263 77.457 63.5703V65.6133C77.457 65.7591 77.4674 65.9102 77.4883 66.0664C77.5117 66.2227 77.5443 66.3516 77.5859 66.4531V66.5H77.0898C77.0586 66.4062 77.0339 66.2891 77.0156 66.1484C77 66.0052 76.9922 65.8698 76.9922 65.7422ZM77.1016 64.0391L77.1094 64.3984H76.1914C75.9518 64.3984 75.737 64.4206 75.5469 64.4648C75.3594 64.5065 75.2005 64.569 75.0703 64.6523C74.9401 64.7331 74.8398 64.8307 74.7695 64.9453C74.7018 65.0599 74.668 65.1901 74.668 65.3359C74.668 65.487 74.7057 65.625 74.7812 65.75C74.8594 65.875 74.9688 65.9753 75.1094 66.0508C75.2526 66.1237 75.4219 66.1602 75.6172 66.1602C75.8776 66.1602 76.1068 66.112 76.3047 66.0156C76.5052 65.9193 76.6706 65.793 76.8008 65.6367C76.931 65.4805 77.0182 65.3099 77.0625 65.125L77.2656 65.3945C77.2318 65.5247 77.1693 65.6589 77.0781 65.7969C76.9896 65.9323 76.8737 66.0599 76.7305 66.1797C76.5872 66.2969 76.418 66.3932 76.2227 66.4688C76.0299 66.5417 75.8112 66.5781 75.5664 66.5781C75.2904 66.5781 75.0495 66.526 74.8438 66.4219C74.6406 66.3177 74.4818 66.1758 74.3672 65.9961C74.2552 65.8138 74.1992 65.6081 74.1992 65.3789C74.1992 65.1706 74.2435 64.9844 74.332 64.8203C74.4206 64.6536 74.5482 64.513 74.7148 64.3984C74.8841 64.2812 75.0872 64.1927 75.3242 64.1328C75.5638 64.0703 75.832 64.0391 76.1289 64.0391H77.1016ZM23.4414 71.2734V75.5H22.9766V71.2734H23.4414ZM22.8945 70.0508C22.8945 69.9622 22.9219 69.888 22.9766 69.8281C23.0339 69.7656 23.112 69.7344 23.2109 69.7344C23.3099 69.7344 23.388 69.7656 23.4453 69.8281C23.5052 69.888 23.5352 69.9622 23.5352 70.0508C23.5352 70.1367 23.5052 70.2109 23.4453 70.2734C23.388 70.3333 23.3099 70.3633 23.2109 70.3633C23.112 70.3633 23.0339 70.3333 22.9766 70.2734C22.9219 70.2109 22.8945 70.1367 22.8945 70.0508ZM25.1836 72.1758V75.5H24.7188V71.2734H25.1641L25.1836 72.1758ZM25.0781 73.125L24.8711 73.0078C24.8867 72.7578 24.9375 72.5234 25.0234 72.3047C25.1094 72.0859 25.2253 71.8932 25.3711 71.7266C25.5195 71.5599 25.6927 71.4297 25.8906 71.3359C26.0911 71.2422 26.3125 71.1953 26.5547 71.1953C26.7656 71.1953 26.9544 71.224 27.1211 71.2812C27.2878 71.3385 27.4297 71.4297 27.5469 71.5547C27.6641 71.6797 27.7526 71.8398 27.8125 72.0352C27.875 72.2305 27.9062 72.4688 27.9062 72.75V75.5H27.4375V72.7461C27.4375 72.4544 27.3971 72.2266 27.3164 72.0625C27.2357 71.8958 27.1211 71.7773 26.9727 71.707C26.8242 71.6367 26.6484 71.6016 26.4453 71.6016C26.2214 71.6016 26.0247 71.651 25.8555 71.75C25.6888 71.8464 25.5482 71.9727 25.4336 72.1289C25.3216 72.2826 25.2357 72.4479 25.1758 72.625C25.1159 72.7995 25.0833 72.9661 25.0781 73.125ZM31.6484 74.4219C31.6484 74.3073 31.6198 74.194 31.5625 74.082C31.5052 73.9701 31.3945 73.8672 31.2305 73.7734C31.069 73.6797 30.8307 73.6003 30.5156 73.5352C30.2812 73.4831 30.0716 73.4245 29.8867 73.3594C29.7044 73.2943 29.5508 73.2161 29.4258 73.125C29.3008 73.0339 29.2057 72.9245 29.1406 72.7969C29.0755 72.6693 29.043 72.5182 29.043 72.3438C29.043 72.1875 29.0768 72.0404 29.1445 71.9023C29.2148 71.7617 29.3138 71.6393 29.4414 71.5352C29.5716 71.4284 29.7279 71.3451 29.9102 71.2852C30.0951 71.2253 30.3021 71.1953 30.5312 71.1953C30.8568 71.1953 31.1354 71.2513 31.3672 71.3633C31.6016 71.4727 31.7799 71.6224 31.9023 71.8125C32.0273 72.0026 32.0898 72.2174 32.0898 72.457H31.625C31.625 72.3112 31.582 72.1732 31.4961 72.043C31.4128 71.9128 31.2891 71.806 31.125 71.7227C30.9635 71.6393 30.7656 71.5977 30.5312 71.5977C30.2891 71.5977 30.0924 71.6341 29.9414 71.707C29.7904 71.7799 29.6797 71.8724 29.6094 71.9844C29.5417 72.0964 29.5078 72.2122 29.5078 72.332C29.5078 72.4258 29.5221 72.5117 29.5508 72.5898C29.582 72.6654 29.6367 72.7357 29.7148 72.8008C29.7956 72.8659 29.9102 72.9271 30.0586 72.9844C30.207 73.0417 30.3997 73.0977 30.6367 73.1523C30.9779 73.2279 31.2565 73.3203 31.4727 73.4297C31.6914 73.5365 31.8529 73.6693 31.957 73.8281C32.0612 73.9844 32.1133 74.1745 32.1133 74.3984C32.1133 74.5729 32.0768 74.7331 32.0039 74.8789C31.931 75.0221 31.8255 75.1458 31.6875 75.25C31.5521 75.3542 31.388 75.4349 31.1953 75.4922C31.0052 75.5495 30.7917 75.5781 30.5547 75.5781C30.1979 75.5781 29.8958 75.5195 29.6484 75.4023C29.4036 75.2826 29.2174 75.1263 29.0898 74.9336C28.9648 74.7383 28.9023 74.5312 28.9023 74.3125H29.3672C29.3828 74.5312 29.4518 74.7044 29.5742 74.832C29.6966 74.957 29.8464 75.0456 30.0234 75.0977C30.2031 75.1497 30.3802 75.1758 30.5547 75.1758C30.7943 75.1758 30.9948 75.1406 31.1562 75.0703C31.3177 75 31.4401 74.9076 31.5234 74.793C31.6068 74.6784 31.6484 74.5547 31.6484 74.4219ZM34.8047 75.5781C34.5286 75.5781 34.2747 75.5273 34.043 75.4258C33.8138 75.3242 33.6133 75.181 33.4414 74.9961C33.2721 74.8112 33.1406 74.5924 33.0469 74.3398C32.9557 74.0846 32.9102 73.806 32.9102 73.5039V73.3359C32.9102 73.0104 32.9583 72.7161 33.0547 72.4531C33.151 72.1901 33.2839 71.9648 33.4531 71.7773C33.6224 71.5898 33.8151 71.4466 34.0312 71.3477C34.25 71.2461 34.4792 71.1953 34.7188 71.1953C34.987 71.1953 35.2253 71.2435 35.4336 71.3398C35.6419 71.4336 35.8164 71.5677 35.957 71.7422C36.1003 71.9141 36.2083 72.1185 36.2812 72.3555C36.3542 72.5898 36.3906 72.849 36.3906 73.1328V73.418H33.1914V73.0195H35.9258V72.9648C35.9206 72.7279 35.8724 72.5065 35.7812 72.3008C35.6927 72.0924 35.5599 71.9232 35.3828 71.793C35.2057 71.6628 34.9844 71.5977 34.7188 71.5977C34.5208 71.5977 34.3385 71.6393 34.1719 71.7227C34.0078 71.806 33.8659 71.9258 33.7461 72.082C33.6289 72.2357 33.5378 72.4193 33.4727 72.6328C33.4102 72.8438 33.3789 73.0781 33.3789 73.3359V73.5039C33.3789 73.7383 33.4128 73.957 33.4805 74.1602C33.5508 74.3607 33.6497 74.5378 33.7773 74.6914C33.9076 74.8451 34.0612 74.9648 34.2383 75.0508C34.4154 75.1367 34.6107 75.1797 34.8242 75.1797C35.0742 75.1797 35.2956 75.1341 35.4883 75.043C35.681 74.9492 35.8542 74.8021 36.0078 74.6016L36.3008 74.8281C36.2096 74.9635 36.0951 75.0885 35.957 75.2031C35.8216 75.3177 35.6589 75.4089 35.4688 75.4766C35.2786 75.5443 35.0573 75.5781 34.8047 75.5781ZM37.7773 71.9727V75.5H37.3125V71.2734H37.7656L37.7773 71.9727ZM39.2734 71.2422L39.2617 71.6719C39.2096 71.6641 39.1589 71.6576 39.1094 71.6523C39.0599 71.6471 39.0065 71.6445 38.9492 71.6445C38.7461 71.6445 38.5677 71.6823 38.4141 71.7578C38.263 71.8307 38.1354 71.9336 38.0312 72.0664C37.9271 72.1966 37.8477 72.3503 37.793 72.5273C37.7383 72.7018 37.707 72.8893 37.6992 73.0898L37.5273 73.1562C37.5273 72.8802 37.556 72.6237 37.6133 72.3867C37.6706 72.1497 37.7578 71.9427 37.875 71.7656C37.9948 71.5859 38.1445 71.4466 38.3242 71.3477C38.5065 71.2461 38.7201 71.1953 38.9648 71.1953C39.0247 71.1953 39.0833 71.2005 39.1406 71.2109C39.2005 71.2188 39.2448 71.2292 39.2734 71.2422ZM40.5273 71.2734V75.5H40.0625V71.2734H40.5273ZM39.9805 70.0508C39.9805 69.9622 40.0078 69.888 40.0625 69.8281C40.1198 69.7656 40.1979 69.7344 40.2969 69.7344C40.3958 69.7344 40.474 69.7656 40.5312 69.8281C40.5911 69.888 40.6211 69.9622 40.6211 70.0508C40.6211 70.1367 40.5911 70.2109 40.5312 70.2734C40.474 70.3333 40.3958 70.3633 40.2969 70.3633C40.1979 70.3633 40.1198 70.3333 40.0625 70.2734C40.0078 70.2109 39.9805 70.1367 39.9805 70.0508ZM42.2695 71.9727V75.5H41.8047V71.2734H42.2578L42.2695 71.9727ZM43.7656 71.2422L43.7539 71.6719C43.7018 71.6641 43.651 71.6576 43.6016 71.6523C43.5521 71.6471 43.4987 71.6445 43.4414 71.6445C43.2383 71.6445 43.0599 71.6823 42.9062 71.7578C42.7552 71.8307 42.6276 71.9336 42.5234 72.0664C42.4193 72.1966 42.3398 72.3503 42.2852 72.5273C42.2305 72.7018 42.1992 72.8893 42.1914 73.0898L42.0195 73.1562C42.0195 72.8802 42.0482 72.6237 42.1055 72.3867C42.1628 72.1497 42.25 71.9427 42.3672 71.7656C42.487 71.5859 42.6367 71.4466 42.8164 71.3477C42.9987 71.2461 43.2122 71.1953 43.457 71.1953C43.5169 71.1953 43.5755 71.2005 43.6328 71.2109C43.6927 71.2188 43.737 71.2292 43.7656 71.2422ZM49.1602 74.5234V71.2734H49.6289V75.5H49.1797L49.1602 74.5234ZM49.2461 73.7422L49.4883 73.7344C49.4883 74 49.457 74.2448 49.3945 74.4688C49.332 74.6927 49.2344 74.888 49.1016 75.0547C48.9688 75.2214 48.7969 75.3503 48.5859 75.4414C48.375 75.5326 48.1211 75.5781 47.8242 75.5781C47.6185 75.5781 47.4297 75.5495 47.2578 75.4922C47.0885 75.4323 46.9427 75.3385 46.8203 75.2109C46.6979 75.0833 46.6029 74.918 46.5352 74.7148C46.4701 74.5117 46.4375 74.2656 46.4375 73.9766V71.2734H46.9023V73.9844C46.9023 74.2109 46.9271 74.3997 46.9766 74.5508C47.0286 74.7018 47.099 74.8229 47.1875 74.9141C47.2786 75.0052 47.3828 75.0703 47.5 75.1094C47.6172 75.1484 47.7435 75.168 47.8789 75.168C48.2227 75.168 48.4935 75.1016 48.6914 74.9688C48.8919 74.8359 49.0339 74.6615 49.1172 74.4453C49.2031 74.2266 49.2461 73.9922 49.2461 73.7422ZM51.293 72.1484V75.5H50.8242V71.2734H51.2734L51.293 72.1484ZM51.207 73.125L50.9805 73.0078C50.9961 72.7578 51.043 72.5234 51.1211 72.3047C51.2018 72.0859 51.3138 71.8932 51.457 71.7266C51.6003 71.5599 51.7721 71.4297 51.9727 71.3359C52.1732 71.2422 52.401 71.1953 52.6562 71.1953C52.862 71.1953 53.0482 71.224 53.2148 71.2812C53.3841 71.3359 53.5273 71.4232 53.6445 71.543C53.7643 71.6602 53.8568 71.8138 53.9219 72.0039C53.987 72.194 54.0195 72.4219 54.0195 72.6875V75.5H53.5547V72.7031C53.5547 72.4219 53.5104 72.2018 53.4219 72.043C53.3359 71.8841 53.2148 71.7708 53.0586 71.7031C52.9049 71.6354 52.7266 71.6016 52.5234 71.6016C52.2839 71.6016 52.0807 71.651 51.9141 71.75C51.75 71.8464 51.6159 71.9727 51.5117 72.1289C51.4102 72.2826 51.3346 72.4479 51.2852 72.625C51.2357 72.7995 51.2096 72.9661 51.207 73.125ZM54.0156 72.7578L53.7031 72.7656C53.7161 72.5599 53.763 72.3633 53.8438 72.1758C53.9271 71.9883 54.0404 71.8216 54.1836 71.6758C54.3268 71.5273 54.4974 71.4102 54.6953 71.3242C54.8958 71.2383 55.1211 71.1953 55.3711 71.1953C55.5898 71.1953 55.7852 71.2253 55.957 71.2852C56.1289 71.3424 56.2734 71.4349 56.3906 71.5625C56.5104 71.6875 56.6016 71.8477 56.6641 72.043C56.7266 72.2383 56.7578 72.4727 56.7578 72.7461V75.5H56.2891V72.7422C56.2891 72.4427 56.2448 72.2109 56.1562 72.0469C56.0703 71.8802 55.9505 71.7643 55.7969 71.6992C55.6432 71.6341 55.4635 71.6016 55.2578 71.6016C55.0547 71.6042 54.8763 71.6419 54.7227 71.7148C54.569 71.7852 54.4401 71.8789 54.3359 71.9961C54.2344 72.1107 54.1562 72.2344 54.1016 72.3672C54.0495 72.5 54.0208 72.6302 54.0156 72.7578ZM60.5156 74.7422V72.5625C60.5156 72.362 60.474 72.1888 60.3906 72.043C60.3073 71.8971 60.1849 71.7852 60.0234 71.707C59.862 71.6289 59.6628 71.5898 59.4258 71.5898C59.207 71.5898 59.0117 71.6289 58.8398 71.707C58.6706 71.7826 58.5365 71.8854 58.4375 72.0156C58.3411 72.1432 58.293 72.2852 58.293 72.4414L57.8242 72.4375C57.8242 72.2786 57.8633 72.125 57.9414 71.9766C58.0195 71.8281 58.1302 71.6953 58.2734 71.5781C58.4167 71.4609 58.5872 71.3685 58.7852 71.3008C58.9857 71.2305 59.2057 71.1953 59.4453 71.1953C59.7474 71.1953 60.013 71.2461 60.2422 71.3477C60.474 71.4492 60.6549 71.6016 60.7852 71.8047C60.9154 72.0078 60.9805 72.263 60.9805 72.5703V74.6133C60.9805 74.7591 60.9909 74.9102 61.0117 75.0664C61.0352 75.2227 61.0677 75.3516 61.1094 75.4531V75.5H60.6133C60.582 75.4062 60.5573 75.2891 60.5391 75.1484C60.5234 75.0052 60.5156 74.8698 60.5156 74.7422ZM60.625 73.0391L60.6328 73.3984H59.7148C59.4753 73.3984 59.2604 73.4206 59.0703 73.4648C58.8828 73.5065 58.724 73.569 58.5938 73.6523C58.4635 73.7331 58.3633 73.8307 58.293 73.9453C58.2253 74.0599 58.1914 74.1901 58.1914 74.3359C58.1914 74.487 58.2292 74.625 58.3047 74.75C58.3828 74.875 58.4922 74.9753 58.6328 75.0508C58.776 75.1237 58.9453 75.1602 59.1406 75.1602C59.401 75.1602 59.6302 75.112 59.8281 75.0156C60.0286 74.9193 60.194 74.793 60.3242 74.6367C60.4544 74.4805 60.5417 74.3099 60.5859 74.125L60.7891 74.3945C60.7552 74.5247 60.6927 74.6589 60.6016 74.7969C60.513 74.9323 60.3971 75.0599 60.2539 75.1797C60.1107 75.2969 59.9414 75.3932 59.7461 75.4688C59.5534 75.5417 59.3346 75.5781 59.0898 75.5781C58.8138 75.5781 58.5729 75.526 58.3672 75.4219C58.1641 75.3177 58.0052 75.1758 57.8906 74.9961C57.7786 74.8138 57.7227 74.6081 57.7227 74.3789C57.7227 74.1706 57.7669 73.9844 57.8555 73.8203C57.944 73.6536 58.0716 73.513 58.2383 73.3984C58.4076 73.2812 58.6107 73.1927 58.8477 73.1328C59.0872 73.0703 59.3555 73.0391 59.6523 73.0391H60.625ZM64.9883 75.5H64.5234V70.75C64.5234 70.4609 64.5729 70.2174 64.6719 70.0195C64.7734 69.8216 64.9167 69.6719 65.1016 69.5703C65.2891 69.4688 65.5117 69.418 65.7695 69.418C65.8503 69.418 65.9336 69.4232 66.0195 69.4336C66.1055 69.4414 66.1888 69.4583 66.2695 69.4844L66.2344 69.8789C66.1693 69.8607 66.1029 69.849 66.0352 69.8438C65.9701 69.8359 65.8932 69.832 65.8047 69.832C65.6354 69.832 65.4896 69.8685 65.3672 69.9414C65.2448 70.0117 65.151 70.1146 65.0859 70.25C65.0208 70.3854 64.9883 70.5521 64.9883 70.75V75.5ZM65.9961 71.2734V71.6562H63.8242V71.2734H65.9961ZM66.5781 73.4531V73.3242C66.5781 73.0169 66.6224 72.7331 66.7109 72.4727C66.7995 72.2122 66.9258 71.987 67.0898 71.7969C67.2565 71.6068 67.4557 71.4596 67.6875 71.3555C67.9193 71.2487 68.1771 71.1953 68.4609 71.1953C68.7474 71.1953 69.0065 71.2487 69.2383 71.3555C69.4701 71.4596 69.6693 71.6068 69.8359 71.7969C70.0026 71.987 70.1302 72.2122 70.2188 72.4727C70.3073 72.7331 70.3516 73.0169 70.3516 73.3242V73.4531C70.3516 73.7604 70.3073 74.0443 70.2188 74.3047C70.1302 74.5625 70.0026 74.7865 69.8359 74.9766C69.6719 75.1667 69.474 75.3151 69.2422 75.4219C69.0104 75.526 68.7526 75.5781 68.4688 75.5781C68.1823 75.5781 67.9232 75.526 67.6914 75.4219C67.4596 75.3151 67.2604 75.1667 67.0938 74.9766C66.9271 74.7865 66.7995 74.5625 66.7109 74.3047C66.6224 74.0443 66.5781 73.7604 66.5781 73.4531ZM67.043 73.3242V73.4531C67.043 73.6849 67.0742 73.9049 67.1367 74.1133C67.1992 74.319 67.2904 74.5026 67.4102 74.6641C67.5299 74.8229 67.6784 74.9479 67.8555 75.0391C68.0326 75.1302 68.237 75.1758 68.4688 75.1758C68.6979 75.1758 68.8997 75.1302 69.0742 75.0391C69.2513 74.9479 69.3997 74.8229 69.5195 74.6641C69.6393 74.5026 69.7292 74.319 69.7891 74.1133C69.8516 73.9049 69.8828 73.6849 69.8828 73.4531V73.3242C69.8828 73.0951 69.8516 72.8776 69.7891 72.6719C69.7292 72.4661 69.638 72.2826 69.5156 72.1211C69.3958 71.9596 69.2474 71.832 69.0703 71.7383C68.8932 71.6445 68.6901 71.5977 68.4609 71.5977C68.2318 71.5977 68.0286 71.6445 67.8516 71.7383C67.6771 71.832 67.5286 71.9596 67.4062 72.1211C67.2865 72.2826 67.1953 72.4661 67.1328 72.6719C67.0729 72.8776 67.043 73.0951 67.043 73.3242ZM72.918 71.2734V71.6562H70.8008V71.2734H72.918ZM71.5781 70.1875H72.043V74.4727C72.043 74.668 72.069 74.8151 72.1211 74.9141C72.1732 75.013 72.2409 75.0794 72.3242 75.1133C72.4076 75.1471 72.4974 75.1641 72.5938 75.1641C72.6641 75.1641 72.7318 75.1602 72.7969 75.1523C72.862 75.1419 72.9206 75.1315 72.9727 75.1211L72.9922 75.5156C72.9349 75.5339 72.8607 75.5482 72.7695 75.5586C72.6784 75.5716 72.5872 75.5781 72.4961 75.5781C72.3164 75.5781 72.1576 75.5456 72.0195 75.4805C71.8815 75.4128 71.7734 75.2982 71.6953 75.1367C71.6172 74.9727 71.5781 74.75 71.5781 74.4688V70.1875ZM73.5625 73.4531V73.3242C73.5625 73.0169 73.6068 72.7331 73.6953 72.4727C73.7839 72.2122 73.9102 71.987 74.0742 71.7969C74.2409 71.6068 74.4401 71.4596 74.6719 71.3555C74.9036 71.2487 75.1615 71.1953 75.4453 71.1953C75.7318 71.1953 75.9909 71.2487 76.2227 71.3555C76.4544 71.4596 76.6536 71.6068 76.8203 71.7969C76.987 71.987 77.1146 72.2122 77.2031 72.4727C77.2917 72.7331 77.3359 73.0169 77.3359 73.3242V73.4531C77.3359 73.7604 77.2917 74.0443 77.2031 74.3047C77.1146 74.5625 76.987 74.7865 76.8203 74.9766C76.6562 75.1667 76.4583 75.3151 76.2266 75.4219C75.9948 75.526 75.737 75.5781 75.4531 75.5781C75.1667 75.5781 74.9076 75.526 74.6758 75.4219C74.444 75.3151 74.2448 75.1667 74.0781 74.9766C73.9115 74.7865 73.7839 74.5625 73.6953 74.3047C73.6068 74.0443 73.5625 73.7604 73.5625 73.4531ZM74.0273 73.3242V73.4531C74.0273 73.6849 74.0586 73.9049 74.1211 74.1133C74.1836 74.319 74.2747 74.5026 74.3945 74.6641C74.5143 74.8229 74.6628 74.9479 74.8398 75.0391C75.0169 75.1302 75.2214 75.1758 75.4531 75.1758C75.6823 75.1758 75.8841 75.1302 76.0586 75.0391C76.2357 74.9479 76.3841 74.8229 76.5039 74.6641C76.6237 74.5026 76.7135 74.319 76.7734 74.1133C76.8359 73.9049 76.8672 73.6849 76.8672 73.4531V73.3242C76.8672 73.0951 76.8359 72.8776 76.7734 72.6719C76.7135 72.4661 76.6224 72.2826 76.5 72.1211C76.3802 71.9596 76.2318 71.832 76.0547 71.7383C75.8776 71.6445 75.6745 71.5977 75.4453 71.5977C75.2161 71.5977 75.013 71.6445 74.8359 71.7383C74.6615 71.832 74.513 71.9596 74.3906 72.1211C74.2708 72.2826 74.1797 72.4661 74.1172 72.6719C74.0573 72.8776 74.0273 73.0951 74.0273 73.3242Z" fill="#FED253"/>
</svg>
