<svg width="100" height="100" viewBox="0 0 100 100" fill="none" xmlns="http://www.w3.org/2000/svg">
<rect width="100" height="100" rx="4" fill="#1E1E1E"/>
<path d="M61 50V32H43" stroke="#FED253" stroke-width="2" stroke-linecap="round" stroke-linejoin="round"/>
<path d="M57 36H39V54H57V36Z" stroke="#FED253" stroke-width="2" stroke-linecap="round" stroke-linejoin="round"/>
<path d="M37.4727 69.5625C37.4727 69.4297 37.4518 69.3125 37.4102 69.2109C37.3711 69.1068 37.3008 69.013 37.1992 68.9297C37.1003 68.8464 36.9622 68.7669 36.7852 68.6914C36.6107 68.6159 36.3893 68.5391 36.1211 68.4609C35.8398 68.3776 35.5859 68.2852 35.3594 68.1836C35.1328 68.0794 34.9388 67.9609 34.7773 67.8281C34.6159 67.6953 34.4922 67.543 34.4062 67.3711C34.3203 67.1992 34.2773 67.0026 34.2773 66.7812C34.2773 66.5599 34.3229 66.3555 34.4141 66.168C34.5052 65.9805 34.6354 65.8177 34.8047 65.6797C34.9766 65.5391 35.181 65.4297 35.418 65.3516C35.6549 65.2734 35.9193 65.2344 36.2109 65.2344C36.638 65.2344 37 65.3164 37.2969 65.4805C37.5964 65.6419 37.8242 65.8542 37.9805 66.1172C38.1367 66.3776 38.2148 66.6562 38.2148 66.9531H37.4648C37.4648 66.7396 37.4193 66.5508 37.3281 66.3867C37.237 66.2201 37.099 66.0898 36.9141 65.9961C36.7292 65.8997 36.4948 65.8516 36.2109 65.8516C35.9427 65.8516 35.7214 65.8919 35.5469 65.9727C35.3724 66.0534 35.2422 66.1628 35.1562 66.3008C35.0729 66.4388 35.0312 66.5964 35.0312 66.7734C35.0312 66.8932 35.056 67.0026 35.1055 67.1016C35.1576 67.1979 35.237 67.2878 35.3438 67.3711C35.4531 67.4544 35.5911 67.5312 35.7578 67.6016C35.9271 67.6719 36.1289 67.7396 36.3633 67.8047C36.6862 67.8958 36.9648 67.9974 37.1992 68.1094C37.4336 68.2214 37.6263 68.3477 37.7773 68.4883C37.931 68.6263 38.0443 68.7839 38.1172 68.9609C38.1927 69.1354 38.2305 69.3333 38.2305 69.5547C38.2305 69.7865 38.1836 69.9961 38.0898 70.1836C37.9961 70.3711 37.862 70.5312 37.6875 70.6641C37.513 70.7969 37.3034 70.8997 37.0586 70.9727C36.8164 71.043 36.5456 71.0781 36.2461 71.0781C35.9831 71.0781 35.724 71.0417 35.4688 70.9688C35.2161 70.8958 34.9857 70.7865 34.7773 70.6406C34.5716 70.4948 34.4062 70.3151 34.2812 70.1016C34.1589 69.8854 34.0977 69.6354 34.0977 69.3516H34.8477C34.8477 69.5469 34.8854 69.7148 34.9609 69.8555C35.0365 69.9935 35.1393 70.1081 35.2695 70.1992C35.4023 70.2904 35.5521 70.3581 35.7188 70.4023C35.888 70.444 36.0638 70.4648 36.2461 70.4648C36.5091 70.4648 36.7318 70.4284 36.9141 70.3555C37.0964 70.2826 37.2344 70.1784 37.3281 70.043C37.4245 69.9076 37.4727 69.7474 37.4727 69.5625ZM40.8359 71.0781C40.5417 71.0781 40.2747 71.0286 40.0352 70.9297C39.7982 70.8281 39.5938 70.6862 39.4219 70.5039C39.2526 70.3216 39.1224 70.1055 39.0312 69.8555C38.9401 69.6055 38.8945 69.332 38.8945 69.0352V68.8711C38.8945 68.5273 38.9453 68.2214 39.0469 67.9531C39.1484 67.6823 39.2865 67.4531 39.4609 67.2656C39.6354 67.0781 39.8333 66.9362 40.0547 66.8398C40.276 66.7435 40.5052 66.6953 40.7422 66.6953C41.0443 66.6953 41.3047 66.7474 41.5234 66.8516C41.7448 66.9557 41.9258 67.1016 42.0664 67.2891C42.207 67.474 42.3112 67.6927 42.3789 67.9453C42.4466 68.1953 42.4805 68.4688 42.4805 68.7656V69.0898H39.3242V68.5H41.7578V68.4453C41.7474 68.2578 41.7083 68.0755 41.6406 67.8984C41.5755 67.7214 41.4714 67.5755 41.3281 67.4609C41.1849 67.3464 40.9896 67.2891 40.7422 67.2891C40.5781 67.2891 40.4271 67.3242 40.2891 67.3945C40.151 67.4622 40.0326 67.5638 39.9336 67.6992C39.8346 67.8346 39.7578 68 39.7031 68.1953C39.6484 68.3906 39.6211 68.6159 39.6211 68.8711V69.0352C39.6211 69.2357 39.6484 69.4245 39.7031 69.6016C39.7604 69.776 39.8424 69.9297 39.9492 70.0625C40.0586 70.1953 40.1901 70.2995 40.3438 70.375C40.5 70.4505 40.6771 70.4883 40.875 70.4883C41.1302 70.4883 41.3464 70.4362 41.5234 70.332C41.7005 70.2279 41.8555 70.0885 41.9883 69.9141L42.4258 70.2617C42.3346 70.3997 42.2188 70.5312 42.0781 70.6562C41.9375 70.7812 41.7643 70.8828 41.5586 70.9609C41.3555 71.0391 41.1146 71.0781 40.8359 71.0781ZM44.043 67.6133V71H43.3164V66.7734H44.0039L44.043 67.6133ZM43.8945 68.7266L43.5586 68.7148C43.5612 68.4258 43.599 68.1589 43.6719 67.9141C43.7448 67.6667 43.8529 67.4518 43.9961 67.2695C44.1393 67.0872 44.3177 66.9466 44.5312 66.8477C44.7448 66.7461 44.9922 66.6953 45.2734 66.6953C45.4714 66.6953 45.6536 66.724 45.8203 66.7812C45.987 66.8359 46.1315 66.9232 46.2539 67.043C46.3763 67.1628 46.4714 67.3164 46.5391 67.5039C46.6068 67.6914 46.6406 67.918 46.6406 68.1836V71H45.918V68.2188C45.918 67.9974 45.8802 67.8203 45.8047 67.6875C45.7318 67.5547 45.6276 67.4583 45.4922 67.3984C45.3568 67.3359 45.1979 67.3047 45.0156 67.3047C44.8021 67.3047 44.6237 67.3424 44.4805 67.418C44.3372 67.4935 44.2227 67.5977 44.1367 67.7305C44.0508 67.8633 43.9883 68.0156 43.9492 68.1875C43.9128 68.3568 43.8945 68.5365 43.8945 68.7266ZM46.6328 68.3281L46.1484 68.4766C46.151 68.2448 46.1888 68.0221 46.2617 67.8086C46.3372 67.5951 46.4453 67.4049 46.5859 67.2383C46.7292 67.0716 46.9049 66.9401 47.1133 66.8438C47.3216 66.7448 47.5599 66.6953 47.8281 66.6953C48.0547 66.6953 48.2552 66.7253 48.4297 66.7852C48.6068 66.8451 48.7552 66.9375 48.875 67.0625C48.9974 67.1849 49.0898 67.3424 49.1523 67.5352C49.2148 67.7279 49.2461 67.957 49.2461 68.2227V71H48.5195V68.2148C48.5195 67.9779 48.4818 67.7943 48.4062 67.6641C48.3333 67.5312 48.2292 67.4388 48.0938 67.3867C47.9609 67.332 47.8021 67.3047 47.6172 67.3047C47.4583 67.3047 47.3177 67.332 47.1953 67.3867C47.0729 67.4414 46.9701 67.5169 46.8867 67.6133C46.8034 67.707 46.7396 67.8151 46.6953 67.9375C46.6536 68.0599 46.6328 68.1901 46.6328 68.3281ZM53.4023 71H52.6797V66.3281C52.6797 66.0234 52.7344 65.7669 52.8438 65.5586C52.9557 65.3477 53.1159 65.1888 53.3242 65.082C53.5326 64.9727 53.7799 64.918 54.0664 64.918C54.1497 64.918 54.2331 64.9232 54.3164 64.9336C54.4023 64.944 54.4857 64.9596 54.5664 64.9805L54.5273 65.5703C54.4727 65.5573 54.4102 65.5482 54.3398 65.543C54.2721 65.5378 54.2044 65.5352 54.1367 65.5352C53.9831 65.5352 53.8503 65.5664 53.7383 65.6289C53.6289 65.6888 53.5456 65.7773 53.4883 65.8945C53.431 66.0117 53.4023 66.1562 53.4023 66.3281V71ZM54.3008 66.7734V67.3281H52.0117V66.7734H54.3008ZM54.9141 68.9336V68.8438C54.9141 68.5391 54.9583 68.2565 55.0469 67.9961C55.1354 67.7331 55.263 67.5052 55.4297 67.3125C55.5964 67.1172 55.7982 66.9661 56.0352 66.8594C56.2721 66.75 56.5378 66.6953 56.832 66.6953C57.1289 66.6953 57.3958 66.75 57.6328 66.8594C57.8724 66.9661 58.0755 67.1172 58.2422 67.3125C58.4115 67.5052 58.5404 67.7331 58.6289 67.9961C58.7174 68.2565 58.7617 68.5391 58.7617 68.8438V68.9336C58.7617 69.2383 58.7174 69.5208 58.6289 69.7812C58.5404 70.0417 58.4115 70.2695 58.2422 70.4648C58.0755 70.6576 57.8737 70.8086 57.6367 70.918C57.4023 71.0247 57.1367 71.0781 56.8398 71.0781C56.543 71.0781 56.276 71.0247 56.0391 70.918C55.8021 70.8086 55.599 70.6576 55.4297 70.4648C55.263 70.2695 55.1354 70.0417 55.0469 69.7812C54.9583 69.5208 54.9141 69.2383 54.9141 68.9336ZM55.6367 68.8438V68.9336C55.6367 69.1445 55.6615 69.3438 55.7109 69.5312C55.7604 69.7161 55.8346 69.8802 55.9336 70.0234C56.0352 70.1667 56.1615 70.2799 56.3125 70.3633C56.4635 70.444 56.6393 70.4844 56.8398 70.4844C57.0378 70.4844 57.2109 70.444 57.3594 70.3633C57.5104 70.2799 57.6354 70.1667 57.7344 70.0234C57.8333 69.8802 57.9076 69.7161 57.957 69.5312C58.0091 69.3438 58.0352 69.1445 58.0352 68.9336V68.8438C58.0352 68.6354 58.0091 68.4388 57.957 68.2539C57.9076 68.0664 57.832 67.901 57.7305 67.7578C57.6315 67.612 57.5065 67.4974 57.3555 67.4141C57.207 67.3307 57.0326 67.2891 56.832 67.2891C56.6341 67.2891 56.4596 67.3307 56.3086 67.4141C56.1602 67.4974 56.0352 67.612 55.9336 67.7578C55.8346 67.901 55.7604 68.0664 55.7109 68.2539C55.6615 68.4388 55.6367 68.6354 55.6367 68.8438ZM61.4375 66.7734V67.3281H59.1523V66.7734H61.4375ZM59.9258 65.7461H60.6484V69.9531C60.6484 70.0964 60.6706 70.2044 60.7148 70.2773C60.7591 70.3503 60.8164 70.3984 60.8867 70.4219C60.957 70.4453 61.0326 70.457 61.1133 70.457C61.1732 70.457 61.2357 70.4518 61.3008 70.4414C61.3685 70.4284 61.4193 70.418 61.4531 70.4102L61.457 71C61.3997 71.0182 61.3242 71.0352 61.2305 71.0508C61.1393 71.069 61.0286 71.0781 60.8984 71.0781C60.7214 71.0781 60.5586 71.043 60.4102 70.9727C60.2617 70.9023 60.1432 70.7852 60.0547 70.6211C59.9688 70.4544 59.9258 70.2305 59.9258 69.9492V65.7461ZM62.0156 68.9336V68.8438C62.0156 68.5391 62.0599 68.2565 62.1484 67.9961C62.237 67.7331 62.3646 67.5052 62.5312 67.3125C62.6979 67.1172 62.8997 66.9661 63.1367 66.8594C63.3737 66.75 63.6393 66.6953 63.9336 66.6953C64.2305 66.6953 64.4974 66.75 64.7344 66.8594C64.974 66.9661 65.1771 67.1172 65.3438 67.3125C65.513 67.5052 65.6419 67.7331 65.7305 67.9961C65.819 68.2565 65.8633 68.5391 65.8633 68.8438V68.9336C65.8633 69.2383 65.819 69.5208 65.7305 69.7812C65.6419 70.0417 65.513 70.2695 65.3438 70.4648C65.1771 70.6576 64.9753 70.8086 64.7383 70.918C64.5039 71.0247 64.2383 71.0781 63.9414 71.0781C63.6445 71.0781 63.3776 71.0247 63.1406 70.918C62.9036 70.8086 62.7005 70.6576 62.5312 70.4648C62.3646 70.2695 62.237 70.0417 62.1484 69.7812C62.0599 69.5208 62.0156 69.2383 62.0156 68.9336ZM62.7383 68.8438V68.9336C62.7383 69.1445 62.763 69.3438 62.8125 69.5312C62.862 69.7161 62.9362 69.8802 63.0352 70.0234C63.1367 70.1667 63.263 70.2799 63.4141 70.3633C63.5651 70.444 63.7409 70.4844 63.9414 70.4844C64.1393 70.4844 64.3125 70.444 64.4609 70.3633C64.612 70.2799 64.737 70.1667 64.8359 70.0234C64.9349 69.8802 65.0091 69.7161 65.0586 69.5312C65.1107 69.3438 65.1367 69.1445 65.1367 68.9336V68.8438C65.1367 68.6354 65.1107 68.4388 65.0586 68.2539C65.0091 68.0664 64.9336 67.901 64.832 67.7578C64.7331 67.612 64.6081 67.4974 64.457 67.4141C64.3086 67.3307 64.1341 67.2891 63.9336 67.2891C63.7357 67.2891 63.5612 67.3307 63.4102 67.4141C63.2617 67.4974 63.1367 67.612 63.0352 67.7578C62.9362 67.901 62.862 68.0664 62.8125 68.2539C62.763 68.4388 62.7383 68.6354 62.7383 68.8438Z" fill="#FED253"/>
</svg>
