<svg width="100" height="100" viewBox="0 0 100 100" fill="none" xmlns="http://www.w3.org/2000/svg">
<rect x="1.5" y="1.5" width="97" height="97" rx="2.5" fill="#F1F1F1"/>
<path d="M60 48.5H40C39.4696 48.5 38.9609 48.2893 38.5858 47.9142C38.2107 47.5391 38 47.0304 38 46.5V32.5C38 31.9696 38.2107 31.4609 38.5858 31.0858C38.9609 30.7107 39.4696 30.5 40 30.5H44L46 27.5H54L56 30.5H60C60.5304 30.5 61.0391 30.7107 61.4142 31.0858C61.7893 31.4609 62 31.9696 62 32.5V46.5C62 47.0304 61.7893 47.5391 61.4142 47.9142C61.0391 48.2893 60.5304 48.5 60 48.5Z" stroke="#989898" stroke-width="2" stroke-linecap="round" stroke-linejoin="round"/>
<path d="M50 43.5C52.4853 43.5 54.5 41.4853 54.5 39C54.5 36.5147 52.4853 34.5 50 34.5C47.5147 34.5 45.5 36.5147 45.5 39C45.5 41.4853 47.5147 43.5 50 43.5Z" stroke="#989898" stroke-width="2" stroke-linecap="round" stroke-linejoin="round"/>
<path d="M25.4531 64.6914H26.2031C26.1641 65.0508 26.0612 65.3724 25.8945 65.6562C25.7279 65.9401 25.4922 66.1654 25.1875 66.332C24.8828 66.4961 24.5026 66.5781 24.0469 66.5781C23.7135 66.5781 23.4102 66.5156 23.1367 66.3906C22.8659 66.2656 22.6328 66.0885 22.4375 65.8594C22.2422 65.6276 22.0911 65.3503 21.9844 65.0273C21.8802 64.7018 21.8281 64.3398 21.8281 63.9414V63.375C21.8281 62.9766 21.8802 62.6159 21.9844 62.293C22.0911 61.9674 22.2435 61.6888 22.4414 61.457C22.6419 61.2253 22.8828 61.0469 23.1641 60.9219C23.4453 60.7969 23.7617 60.7344 24.1133 60.7344C24.543 60.7344 24.9062 60.8151 25.2031 60.9766C25.5 61.138 25.7305 61.362 25.8945 61.6484C26.0612 61.9323 26.1641 62.2617 26.2031 62.6367H25.4531C25.4167 62.3711 25.349 62.1432 25.25 61.9531C25.151 61.7604 25.0104 61.612 24.8281 61.5078C24.6458 61.4036 24.4076 61.3516 24.1133 61.3516C23.8607 61.3516 23.638 61.3997 23.4453 61.4961C23.2552 61.5924 23.0951 61.7292 22.9648 61.9062C22.8372 62.0833 22.7409 62.2956 22.6758 62.543C22.6107 62.7904 22.5781 63.0651 22.5781 63.3672V63.9414C22.5781 64.2201 22.6068 64.4818 22.6641 64.7266C22.724 64.9714 22.8138 65.1862 22.9336 65.3711C23.0534 65.556 23.2057 65.7018 23.3906 65.8086C23.5755 65.9128 23.7943 65.9648 24.0469 65.9648C24.3672 65.9648 24.6224 65.9141 24.8125 65.8125C25.0026 65.7109 25.1458 65.5651 25.2422 65.375C25.3411 65.1849 25.4115 64.957 25.4531 64.6914ZM27.9062 60.5V66.5H27.1797V60.5H27.9062ZM29.8516 62.2734V66.5H29.125V62.2734H29.8516ZM29.0703 61.1523C29.0703 61.0352 29.1055 60.9362 29.1758 60.8555C29.2487 60.7747 29.3555 60.7344 29.4961 60.7344C29.6341 60.7344 29.7396 60.7747 29.8125 60.8555C29.888 60.9362 29.9258 61.0352 29.9258 61.1523C29.9258 61.2643 29.888 61.3607 29.8125 61.4414C29.7396 61.5195 29.6341 61.5586 29.4961 61.5586C29.3555 61.5586 29.2487 61.5195 29.1758 61.4414C29.1055 61.3607 29.0703 61.2643 29.0703 61.1523ZM33.6719 68.125V63.0859L33.7344 62.2734H34.3984V68.125H33.6719ZM30.832 64.4336V64.3516C30.832 64.0286 30.8698 63.7357 30.9453 63.4727C31.0208 63.207 31.1315 62.9792 31.2773 62.7891C31.4232 62.599 31.599 62.4531 31.8047 62.3516C32.013 62.2474 32.25 62.1953 32.5156 62.1953C32.7812 62.1953 33.0143 62.2422 33.2148 62.3359C33.418 62.4271 33.5898 62.5612 33.7305 62.7383C33.8737 62.9128 33.987 63.1237 34.0703 63.3711C34.1536 63.6185 34.2109 63.8984 34.2422 64.2109V64.5703C34.2135 64.8802 34.1576 65.1589 34.0742 65.4062C33.9909 65.6536 33.8776 65.8646 33.7344 66.0391C33.5938 66.2135 33.4206 66.3477 33.2148 66.4414C33.0117 66.5326 32.776 66.5781 32.5078 66.5781C32.2474 66.5781 32.013 66.5247 31.8047 66.418C31.599 66.3112 31.4232 66.1615 31.2773 65.9688C31.1341 65.776 31.0234 65.5495 30.9453 65.2891C30.8698 65.026 30.832 64.7409 30.832 64.4336ZM31.5586 64.3516V64.4336C31.5586 64.6445 31.5807 64.8438 31.625 65.0312C31.6693 65.2161 31.737 65.3802 31.8281 65.5234C31.9219 65.6667 32.0391 65.7799 32.1797 65.8633C32.3229 65.944 32.4922 65.9844 32.6875 65.9844C32.9271 65.9844 33.1263 65.9323 33.2852 65.8281C33.4466 65.724 33.5755 65.5872 33.6719 65.418C33.7682 65.2461 33.8424 65.0625 33.8945 64.8672V63.9258C33.8659 63.7826 33.8203 63.6432 33.7578 63.5078C33.6979 63.3724 33.6198 63.2513 33.5234 63.1445C33.4271 63.0352 33.3099 62.9492 33.1719 62.8867C33.0365 62.8216 32.8776 62.7891 32.6953 62.7891C32.4974 62.7891 32.3268 62.8307 32.1836 62.9141C32.0404 62.9974 31.9219 63.112 31.8281 63.2578C31.737 63.401 31.6693 63.5664 31.625 63.7539C31.5807 63.9414 31.5586 64.1406 31.5586 64.3516ZM38.1445 65.5234V62.2734H38.8711V66.5H38.1797L38.1445 65.5234ZM38.2812 64.6328L38.582 64.625C38.582 64.9062 38.5521 65.1667 38.4922 65.4062C38.4349 65.6432 38.3411 65.849 38.2109 66.0234C38.0807 66.1979 37.9102 66.3346 37.6992 66.4336C37.4883 66.5299 37.2318 66.5781 36.9297 66.5781C36.724 66.5781 36.5352 66.5482 36.3633 66.4883C36.194 66.4284 36.0482 66.3359 35.9258 66.2109C35.8034 66.0859 35.7083 65.9232 35.6406 65.7227C35.5755 65.5221 35.543 65.2812 35.543 65V62.2734H36.2656V65.0078C36.2656 65.1979 36.2865 65.3555 36.3281 65.4805C36.3724 65.6029 36.431 65.7005 36.5039 65.7734C36.5794 65.8438 36.6628 65.8932 36.7539 65.9219C36.8477 65.9505 36.944 65.9648 37.043 65.9648C37.3503 65.9648 37.5938 65.9062 37.7734 65.7891C37.9531 65.6693 38.082 65.5091 38.1602 65.3086C38.2409 65.1055 38.2812 64.8802 38.2812 64.6328ZM41.7266 66.5781C41.4323 66.5781 41.1654 66.5286 40.9258 66.4297C40.6888 66.3281 40.4844 66.1862 40.3125 66.0039C40.1432 65.8216 40.013 65.6055 39.9219 65.3555C39.8307 65.1055 39.7852 64.832 39.7852 64.5352V64.3711C39.7852 64.0273 39.8359 63.7214 39.9375 63.4531C40.0391 63.1823 40.1771 62.9531 40.3516 62.7656C40.526 62.5781 40.724 62.4362 40.9453 62.3398C41.1667 62.2435 41.3958 62.1953 41.6328 62.1953C41.9349 62.1953 42.1953 62.2474 42.4141 62.3516C42.6354 62.4557 42.8164 62.6016 42.957 62.7891C43.0977 62.974 43.2018 63.1927 43.2695 63.4453C43.3372 63.6953 43.3711 63.9688 43.3711 64.2656V64.5898H40.2148V64H42.6484V63.9453C42.638 63.7578 42.599 63.5755 42.5312 63.3984C42.4661 63.2214 42.362 63.0755 42.2188 62.9609C42.0755 62.8464 41.8802 62.7891 41.6328 62.7891C41.4688 62.7891 41.3177 62.8242 41.1797 62.8945C41.0417 62.9622 40.9232 63.0638 40.8242 63.1992C40.7253 63.3346 40.6484 63.5 40.5938 63.6953C40.5391 63.8906 40.5117 64.1159 40.5117 64.3711V64.5352C40.5117 64.7357 40.5391 64.9245 40.5938 65.1016C40.651 65.276 40.7331 65.4297 40.8398 65.5625C40.9492 65.6953 41.0807 65.7995 41.2344 65.875C41.3906 65.9505 41.5677 65.9883 41.7656 65.9883C42.0208 65.9883 42.237 65.9362 42.4141 65.832C42.5911 65.7279 42.7461 65.5885 42.8789 65.4141L43.3164 65.7617C43.2253 65.8997 43.1094 66.0312 42.9688 66.1562C42.8281 66.2812 42.6549 66.3828 42.4492 66.4609C42.2461 66.5391 42.0052 66.5781 41.7266 66.5781ZM48.6914 65.7773V63.6016C48.6914 63.4349 48.6576 63.2904 48.5898 63.168C48.5247 63.043 48.4258 62.9466 48.293 62.8789C48.1602 62.8112 47.9961 62.7773 47.8008 62.7773C47.6185 62.7773 47.4583 62.8086 47.3203 62.8711C47.1849 62.9336 47.0781 63.0156 47 63.1172C46.9245 63.2188 46.8867 63.3281 46.8867 63.4453H46.1641C46.1641 63.2943 46.2031 63.1445 46.2812 62.9961C46.3594 62.8477 46.4714 62.7135 46.6172 62.5938C46.7656 62.4714 46.9427 62.375 47.1484 62.3047C47.3568 62.2318 47.5885 62.1953 47.8438 62.1953C48.151 62.1953 48.4219 62.2474 48.6562 62.3516C48.8932 62.4557 49.0781 62.6133 49.2109 62.8242C49.3464 63.0326 49.4141 63.2943 49.4141 63.6094V65.5781C49.4141 65.7188 49.4258 65.8685 49.4492 66.0273C49.4753 66.1862 49.513 66.3229 49.5625 66.4375V66.5H48.8086C48.7721 66.4167 48.7435 66.306 48.7227 66.168C48.7018 66.0273 48.6914 65.8971 48.6914 65.7773ZM48.8164 63.9375L48.8242 64.4453H48.0938C47.888 64.4453 47.7044 64.4622 47.543 64.4961C47.3815 64.5273 47.2461 64.5755 47.1367 64.6406C47.0273 64.7057 46.944 64.7878 46.8867 64.8867C46.8294 64.9831 46.8008 65.0964 46.8008 65.2266C46.8008 65.3594 46.8307 65.4805 46.8906 65.5898C46.9505 65.6992 47.0404 65.7865 47.1602 65.8516C47.2826 65.9141 47.4323 65.9453 47.6094 65.9453C47.8307 65.9453 48.026 65.8984 48.1953 65.8047C48.3646 65.7109 48.4987 65.5964 48.5977 65.4609C48.6992 65.3255 48.7539 65.194 48.7617 65.0664L49.0703 65.4141C49.0521 65.5234 49.0026 65.6445 48.9219 65.7773C48.8411 65.9102 48.7331 66.0378 48.5977 66.1602C48.4648 66.2799 48.306 66.3802 48.1211 66.4609C47.9388 66.5391 47.7331 66.5781 47.5039 66.5781C47.2174 66.5781 46.9661 66.5221 46.75 66.4102C46.5365 66.2982 46.3698 66.1484 46.25 65.9609C46.1328 65.7708 46.0742 65.5586 46.0742 65.3242C46.0742 65.0977 46.1185 64.8984 46.207 64.7266C46.2956 64.5521 46.4232 64.4076 46.5898 64.293C46.7565 64.1758 46.957 64.0872 47.1914 64.0273C47.4258 63.9674 47.6875 63.9375 47.9766 63.9375H48.8164ZM53.2109 68.125V63.0859L53.2734 62.2734H53.9375V68.125H53.2109ZM50.3711 64.4336V64.3516C50.3711 64.0286 50.4089 63.7357 50.4844 63.4727C50.5599 63.207 50.6706 62.9792 50.8164 62.7891C50.9622 62.599 51.138 62.4531 51.3438 62.3516C51.5521 62.2474 51.7891 62.1953 52.0547 62.1953C52.3203 62.1953 52.5534 62.2422 52.7539 62.3359C52.957 62.4271 53.1289 62.5612 53.2695 62.7383C53.4128 62.9128 53.526 63.1237 53.6094 63.3711C53.6927 63.6185 53.75 63.8984 53.7812 64.2109V64.5703C53.7526 64.8802 53.6966 65.1589 53.6133 65.4062C53.5299 65.6536 53.4167 65.8646 53.2734 66.0391C53.1328 66.2135 52.9596 66.3477 52.7539 66.4414C52.5508 66.5326 52.3151 66.5781 52.0469 66.5781C51.7865 66.5781 51.5521 66.5247 51.3438 66.418C51.138 66.3112 50.9622 66.1615 50.8164 65.9688C50.6732 65.776 50.5625 65.5495 50.4844 65.2891C50.4089 65.026 50.3711 64.7409 50.3711 64.4336ZM51.0977 64.3516V64.4336C51.0977 64.6445 51.1198 64.8438 51.1641 65.0312C51.2083 65.2161 51.276 65.3802 51.3672 65.5234C51.4609 65.6667 51.5781 65.7799 51.7188 65.8633C51.862 65.944 52.0312 65.9844 52.2266 65.9844C52.4661 65.9844 52.6654 65.9323 52.8242 65.8281C52.9857 65.724 53.1146 65.5872 53.2109 65.418C53.3073 65.2461 53.3815 65.0625 53.4336 64.8672V63.9258C53.4049 63.7826 53.3594 63.6432 53.2969 63.5078C53.237 63.3724 53.1589 63.2513 53.0625 63.1445C52.9661 63.0352 52.849 62.9492 52.7109 62.8867C52.5755 62.8216 52.4167 62.7891 52.2344 62.7891C52.0365 62.7891 51.8659 62.8307 51.7227 62.9141C51.5794 62.9974 51.4609 63.112 51.3672 63.2578C51.276 63.401 51.2083 63.5664 51.1641 63.7539C51.1198 63.9414 51.0977 64.1406 51.0977 64.3516ZM57.6836 65.5234V62.2734H58.4102V66.5H57.7188L57.6836 65.5234ZM57.8203 64.6328L58.1211 64.625C58.1211 64.9062 58.0911 65.1667 58.0312 65.4062C57.974 65.6432 57.8802 65.849 57.75 66.0234C57.6198 66.1979 57.4492 66.3346 57.2383 66.4336C57.0273 66.5299 56.7708 66.5781 56.4688 66.5781C56.263 66.5781 56.0742 66.5482 55.9023 66.4883C55.7331 66.4284 55.5872 66.3359 55.4648 66.2109C55.3424 66.0859 55.2474 65.9232 55.1797 65.7227C55.1146 65.5221 55.082 65.2812 55.082 65V62.2734H55.8047V65.0078C55.8047 65.1979 55.8255 65.3555 55.8672 65.4805C55.9115 65.6029 55.9701 65.7005 56.043 65.7734C56.1185 65.8438 56.2018 65.8932 56.293 65.9219C56.3867 65.9505 56.4831 65.9648 56.582 65.9648C56.8893 65.9648 57.1328 65.9062 57.3125 65.7891C57.4922 65.6693 57.6211 65.5091 57.6992 65.3086C57.7799 65.1055 57.8203 64.8802 57.8203 64.6328ZM60.2969 62.2734V66.5H59.5703V62.2734H60.2969ZM59.5156 61.1523C59.5156 61.0352 59.5508 60.9362 59.6211 60.8555C59.694 60.7747 59.8008 60.7344 59.9414 60.7344C60.0794 60.7344 60.1849 60.7747 60.2578 60.8555C60.3333 60.9362 60.3711 61.0352 60.3711 61.1523C60.3711 61.2643 60.3333 61.3607 60.2578 61.4414C60.1849 61.5195 60.0794 61.5586 59.9414 61.5586C59.8008 61.5586 59.694 61.5195 59.6211 61.4414C59.5508 61.3607 59.5156 61.2643 59.5156 61.1523ZM64.1641 63.0859V68.125H63.4375V62.2734H64.1016L64.1641 63.0859ZM67.0117 64.3516V64.4336C67.0117 64.7409 66.9753 65.026 66.9023 65.2891C66.8294 65.5495 66.7227 65.776 66.582 65.9688C66.444 66.1615 66.2734 66.3112 66.0703 66.418C65.8672 66.5247 65.6341 66.5781 65.3711 66.5781C65.1029 66.5781 64.8659 66.5339 64.6602 66.4453C64.4544 66.3568 64.2799 66.2279 64.1367 66.0586C63.9935 65.8893 63.8789 65.6862 63.793 65.4492C63.7096 65.2122 63.6523 64.9453 63.6211 64.6484V64.2109C63.6523 63.8984 63.7109 63.6185 63.7969 63.3711C63.8828 63.1237 63.9961 62.9128 64.1367 62.7383C64.2799 62.5612 64.4531 62.4271 64.6562 62.3359C64.8594 62.2422 65.0938 62.1953 65.3594 62.1953C65.625 62.1953 65.8607 62.2474 66.0664 62.3516C66.2721 62.4531 66.4453 62.599 66.5859 62.7891C66.7266 62.9792 66.832 63.207 66.9023 63.4727C66.9753 63.7357 67.0117 64.0286 67.0117 64.3516ZM66.2852 64.4336V64.3516C66.2852 64.1406 66.263 63.9427 66.2188 63.7578C66.1745 63.5703 66.1055 63.4062 66.0117 63.2656C65.9206 63.1224 65.8034 63.0104 65.6602 62.9297C65.5169 62.8464 65.3464 62.8047 65.1484 62.8047C64.9661 62.8047 64.8073 62.8359 64.6719 62.8984C64.5391 62.9609 64.4258 63.0456 64.332 63.1523C64.2383 63.2565 64.1615 63.3763 64.1016 63.5117C64.0443 63.6445 64.0013 63.7826 63.9727 63.9258V64.9375C64.0247 65.1198 64.0977 65.2917 64.1914 65.4531C64.2852 65.612 64.4102 65.7409 64.5664 65.8398C64.7227 65.9362 64.9193 65.9844 65.1562 65.9844C65.3516 65.9844 65.5195 65.944 65.6602 65.8633C65.8034 65.7799 65.9206 65.6667 66.0117 65.5234C66.1055 65.3802 66.1745 65.2161 66.2188 65.0312C66.263 64.8438 66.2852 64.6445 66.2852 64.4336ZM70.4258 65.7773V63.6016C70.4258 63.4349 70.3919 63.2904 70.3242 63.168C70.2591 63.043 70.1602 62.9466 70.0273 62.8789C69.8945 62.8112 69.7305 62.7773 69.5352 62.7773C69.3529 62.7773 69.1927 62.8086 69.0547 62.8711C68.9193 62.9336 68.8125 63.0156 68.7344 63.1172C68.6589 63.2188 68.6211 63.3281 68.6211 63.4453H67.8984C67.8984 63.2943 67.9375 63.1445 68.0156 62.9961C68.0938 62.8477 68.2057 62.7135 68.3516 62.5938C68.5 62.4714 68.6771 62.375 68.8828 62.3047C69.0911 62.2318 69.3229 62.1953 69.5781 62.1953C69.8854 62.1953 70.1562 62.2474 70.3906 62.3516C70.6276 62.4557 70.8125 62.6133 70.9453 62.8242C71.0807 63.0326 71.1484 63.2943 71.1484 63.6094V65.5781C71.1484 65.7188 71.1602 65.8685 71.1836 66.0273C71.2096 66.1862 71.2474 66.3229 71.2969 66.4375V66.5H70.543C70.5065 66.4167 70.4779 66.306 70.457 66.168C70.4362 66.0273 70.4258 65.8971 70.4258 65.7773ZM70.5508 63.9375L70.5586 64.4453H69.8281C69.6224 64.4453 69.4388 64.4622 69.2773 64.4961C69.1159 64.5273 68.9805 64.5755 68.8711 64.6406C68.7617 64.7057 68.6784 64.7878 68.6211 64.8867C68.5638 64.9831 68.5352 65.0964 68.5352 65.2266C68.5352 65.3594 68.5651 65.4805 68.625 65.5898C68.6849 65.6992 68.7747 65.7865 68.8945 65.8516C69.0169 65.9141 69.1667 65.9453 69.3438 65.9453C69.5651 65.9453 69.7604 65.8984 69.9297 65.8047C70.099 65.7109 70.2331 65.5964 70.332 65.4609C70.4336 65.3255 70.4883 65.194 70.4961 65.0664L70.8047 65.4141C70.7865 65.5234 70.737 65.6445 70.6562 65.7773C70.5755 65.9102 70.4674 66.0378 70.332 66.1602C70.1992 66.2799 70.0404 66.3802 69.8555 66.4609C69.6732 66.5391 69.4674 66.5781 69.2383 66.5781C68.9518 66.5781 68.7005 66.5221 68.4844 66.4102C68.2708 66.2982 68.1042 66.1484 67.9844 65.9609C67.8672 65.7708 67.8086 65.5586 67.8086 65.3242C67.8086 65.0977 67.8529 64.8984 67.9414 64.7266C68.0299 64.5521 68.1576 64.4076 68.3242 64.293C68.4909 64.1758 68.6914 64.0872 68.9258 64.0273C69.1602 63.9674 69.4219 63.9375 69.7109 63.9375H70.5508ZM73.0078 62.9375V66.5H72.2852V62.2734H72.9883L73.0078 62.9375ZM74.3281 62.25L74.3242 62.9219C74.2643 62.9089 74.207 62.901 74.1523 62.8984C74.1003 62.8932 74.0404 62.8906 73.9727 62.8906C73.806 62.8906 73.6589 62.9167 73.5312 62.9688C73.4036 63.0208 73.2956 63.0938 73.207 63.1875C73.1185 63.2812 73.0482 63.3932 72.9961 63.5234C72.9466 63.651 72.9141 63.7917 72.8984 63.9453L72.6953 64.0625C72.6953 63.8073 72.7201 63.5677 72.7695 63.3438C72.8216 63.1198 72.901 62.9219 73.0078 62.75C73.1146 62.5755 73.25 62.4401 73.4141 62.3438C73.5807 62.2448 73.7786 62.1953 74.0078 62.1953C74.0599 62.1953 74.1198 62.2018 74.1875 62.2148C74.2552 62.2253 74.3021 62.237 74.3281 62.25ZM77.332 65.7773V63.6016C77.332 63.4349 77.2982 63.2904 77.2305 63.168C77.1654 63.043 77.0664 62.9466 76.9336 62.8789C76.8008 62.8112 76.6367 62.7773 76.4414 62.7773C76.2591 62.7773 76.099 62.8086 75.9609 62.8711C75.8255 62.9336 75.7188 63.0156 75.6406 63.1172C75.5651 63.2188 75.5273 63.3281 75.5273 63.4453H74.8047C74.8047 63.2943 74.8438 63.1445 74.9219 62.9961C75 62.8477 75.112 62.7135 75.2578 62.5938C75.4062 62.4714 75.5833 62.375 75.7891 62.3047C75.9974 62.2318 76.2292 62.1953 76.4844 62.1953C76.7917 62.1953 77.0625 62.2474 77.2969 62.3516C77.5339 62.4557 77.7188 62.6133 77.8516 62.8242C77.987 63.0326 78.0547 63.2943 78.0547 63.6094V65.5781C78.0547 65.7188 78.0664 65.8685 78.0898 66.0273C78.1159 66.1862 78.1536 66.3229 78.2031 66.4375V66.5H77.4492C77.4128 66.4167 77.3841 66.306 77.3633 66.168C77.3424 66.0273 77.332 65.8971 77.332 65.7773ZM77.457 63.9375L77.4648 64.4453H76.7344C76.5286 64.4453 76.3451 64.4622 76.1836 64.4961C76.0221 64.5273 75.8867 64.5755 75.7773 64.6406C75.668 64.7057 75.5846 64.7878 75.5273 64.8867C75.4701 64.9831 75.4414 65.0964 75.4414 65.2266C75.4414 65.3594 75.4714 65.4805 75.5312 65.5898C75.5911 65.6992 75.681 65.7865 75.8008 65.8516C75.9232 65.9141 76.0729 65.9453 76.25 65.9453C76.4714 65.9453 76.6667 65.8984 76.8359 65.8047C77.0052 65.7109 77.1393 65.5964 77.2383 65.4609C77.3398 65.3255 77.3945 65.194 77.4023 65.0664L77.7109 65.4141C77.6927 65.5234 77.6432 65.6445 77.5625 65.7773C77.4818 65.9102 77.3737 66.0378 77.2383 66.1602C77.1055 66.2799 76.9466 66.3802 76.7617 66.4609C76.5794 66.5391 76.3737 66.5781 76.1445 66.5781C75.8581 66.5781 75.6068 66.5221 75.3906 66.4102C75.1771 66.2982 75.0104 66.1484 74.8906 65.9609C74.7734 65.7708 74.7148 65.5586 74.7148 65.3242C74.7148 65.0977 74.7591 64.8984 74.8477 64.7266C74.9362 64.5521 75.0638 64.4076 75.2305 64.293C75.3971 64.1758 75.5977 64.0872 75.832 64.0273C76.0664 63.9674 76.3281 63.9375 76.6172 63.9375H77.457ZM24.1094 72.1133V75.5H23.3828V71.2734H24.0703L24.1094 72.1133ZM23.9609 73.2266L23.625 73.2148C23.6276 72.9258 23.6654 72.6589 23.7383 72.4141C23.8112 72.1667 23.9193 71.9518 24.0625 71.7695C24.2057 71.5872 24.3841 71.4466 24.5977 71.3477C24.8112 71.2461 25.0586 71.1953 25.3398 71.1953C25.5378 71.1953 25.7201 71.224 25.8867 71.2812C26.0534 71.3359 26.1979 71.4232 26.3203 71.543C26.4427 71.6628 26.5378 71.8164 26.6055 72.0039C26.6732 72.1914 26.707 72.418 26.707 72.6836V75.5H25.9844V72.7188C25.9844 72.4974 25.9466 72.3203 25.8711 72.1875C25.7982 72.0547 25.694 71.9583 25.5586 71.8984C25.4232 71.8359 25.2643 71.8047 25.082 71.8047C24.8685 71.8047 24.6901 71.8424 24.5469 71.918C24.4036 71.9935 24.2891 72.0977 24.2031 72.2305C24.1172 72.3633 24.0547 72.5156 24.0156 72.6875C23.9792 72.8568 23.9609 73.0365 23.9609 73.2266ZM26.6992 72.8281L26.2148 72.9766C26.2174 72.7448 26.2552 72.5221 26.3281 72.3086C26.4036 72.0951 26.5117 71.9049 26.6523 71.7383C26.7956 71.5716 26.9714 71.4401 27.1797 71.3438C27.388 71.2448 27.6263 71.1953 27.8945 71.1953C28.1211 71.1953 28.3216 71.2253 28.4961 71.2852C28.6732 71.3451 28.8216 71.4375 28.9414 71.5625C29.0638 71.6849 29.1562 71.8424 29.2188 72.0352C29.2812 72.2279 29.3125 72.457 29.3125 72.7227V75.5H28.5859V72.7148C28.5859 72.4779 28.5482 72.2943 28.4727 72.1641C28.3997 72.0312 28.2956 71.9388 28.1602 71.8867C28.0273 71.832 27.8685 71.8047 27.6836 71.8047C27.5247 71.8047 27.3841 71.832 27.2617 71.8867C27.1393 71.9414 27.0365 72.0169 26.9531 72.1133C26.8698 72.207 26.806 72.3151 26.7617 72.4375C26.7201 72.5599 26.6992 72.6901 26.6992 72.8281ZM32.9922 74.5234V71.2734H33.7188V75.5H33.0273L32.9922 74.5234ZM33.1289 73.6328L33.4297 73.625C33.4297 73.9062 33.3997 74.1667 33.3398 74.4062C33.2826 74.6432 33.1888 74.849 33.0586 75.0234C32.9284 75.1979 32.7578 75.3346 32.5469 75.4336C32.3359 75.5299 32.0794 75.5781 31.7773 75.5781C31.5716 75.5781 31.3828 75.5482 31.2109 75.4883C31.0417 75.4284 30.8958 75.3359 30.7734 75.2109C30.651 75.0859 30.556 74.9232 30.4883 74.7227C30.4232 74.5221 30.3906 74.2812 30.3906 74V71.2734H31.1133V74.0078C31.1133 74.1979 31.1341 74.3555 31.1758 74.4805C31.2201 74.6029 31.2786 74.7005 31.3516 74.7734C31.4271 74.8438 31.5104 74.8932 31.6016 74.9219C31.6953 74.9505 31.7917 74.9648 31.8906 74.9648C32.1979 74.9648 32.4414 74.9062 32.6211 74.7891C32.8008 74.6693 32.9297 74.5091 33.0078 74.3086C33.0885 74.1055 33.1289 73.8802 33.1289 73.6328ZM37.4844 74.6797V69.5H38.2109V75.5H37.5469L37.4844 74.6797ZM34.6406 73.4336V73.3516C34.6406 73.0286 34.6797 72.7357 34.7578 72.4727C34.8385 72.207 34.9518 71.9792 35.0977 71.7891C35.2461 71.599 35.4219 71.4531 35.625 71.3516C35.8307 71.2474 36.0599 71.1953 36.3125 71.1953C36.5781 71.1953 36.8099 71.2422 37.0078 71.3359C37.2083 71.4271 37.3776 71.5612 37.5156 71.7383C37.6562 71.9128 37.7669 72.1237 37.8477 72.3711C37.9284 72.6185 37.9844 72.8984 38.0156 73.2109V73.5703C37.987 73.8802 37.931 74.1589 37.8477 74.4062C37.7669 74.6536 37.6562 74.8646 37.5156 75.0391C37.3776 75.2135 37.2083 75.3477 37.0078 75.4414C36.8073 75.5326 36.5729 75.5781 36.3047 75.5781C36.0573 75.5781 35.8307 75.5247 35.625 75.418C35.4219 75.3112 35.2461 75.1615 35.0977 74.9688C34.9518 74.776 34.8385 74.5495 34.7578 74.2891C34.6797 74.026 34.6406 73.7409 34.6406 73.4336ZM35.3672 73.3516V73.4336C35.3672 73.6445 35.388 73.8424 35.4297 74.0273C35.474 74.2122 35.5417 74.375 35.6328 74.5156C35.724 74.6562 35.8398 74.7669 35.9805 74.8477C36.1211 74.9258 36.2891 74.9648 36.4844 74.9648C36.724 74.9648 36.9206 74.9141 37.0742 74.8125C37.2305 74.7109 37.3555 74.5768 37.4492 74.4102C37.543 74.2435 37.6159 74.0625 37.668 73.8672V72.9258C37.6367 72.7826 37.5911 72.6445 37.5312 72.5117C37.474 72.3763 37.3984 72.2565 37.3047 72.1523C37.2135 72.0456 37.1003 71.9609 36.9648 71.8984C36.832 71.8359 36.6745 71.8047 36.4922 71.8047C36.2943 71.8047 36.1237 71.8464 35.9805 71.9297C35.8398 72.0104 35.724 72.1224 35.6328 72.2656C35.5417 72.4062 35.474 72.5703 35.4297 72.7578C35.388 72.9427 35.3672 73.1406 35.3672 73.3516ZM41.8281 74.7773V72.6016C41.8281 72.4349 41.7943 72.2904 41.7266 72.168C41.6615 72.043 41.5625 71.9466 41.4297 71.8789C41.2969 71.8112 41.1328 71.7773 40.9375 71.7773C40.7552 71.7773 40.5951 71.8086 40.457 71.8711C40.3216 71.9336 40.2148 72.0156 40.1367 72.1172C40.0612 72.2188 40.0234 72.3281 40.0234 72.4453H39.3008C39.3008 72.2943 39.3398 72.1445 39.418 71.9961C39.4961 71.8477 39.6081 71.7135 39.7539 71.5938C39.9023 71.4714 40.0794 71.375 40.2852 71.3047C40.4935 71.2318 40.7253 71.1953 40.9805 71.1953C41.2878 71.1953 41.5586 71.2474 41.793 71.3516C42.0299 71.4557 42.2148 71.6133 42.3477 71.8242C42.4831 72.0326 42.5508 72.2943 42.5508 72.6094V74.5781C42.5508 74.7188 42.5625 74.8685 42.5859 75.0273C42.612 75.1862 42.6497 75.3229 42.6992 75.4375V75.5H41.9453C41.9089 75.4167 41.8802 75.306 41.8594 75.168C41.8385 75.0273 41.8281 74.8971 41.8281 74.7773ZM41.9531 72.9375L41.9609 73.4453H41.2305C41.0247 73.4453 40.8411 73.4622 40.6797 73.4961C40.5182 73.5273 40.3828 73.5755 40.2734 73.6406C40.1641 73.7057 40.0807 73.7878 40.0234 73.8867C39.9661 73.9831 39.9375 74.0964 39.9375 74.2266C39.9375 74.3594 39.9674 74.4805 40.0273 74.5898C40.0872 74.6992 40.1771 74.7865 40.2969 74.8516C40.4193 74.9141 40.569 74.9453 40.7461 74.9453C40.9674 74.9453 41.1628 74.8984 41.332 74.8047C41.5013 74.7109 41.6354 74.5964 41.7344 74.4609C41.8359 74.3255 41.8906 74.194 41.8984 74.0664L42.207 74.4141C42.1888 74.5234 42.1393 74.6445 42.0586 74.7773C41.9779 74.9102 41.8698 75.0378 41.7344 75.1602C41.6016 75.2799 41.4427 75.3802 41.2578 75.4609C41.0755 75.5391 40.8698 75.5781 40.6406 75.5781C40.3542 75.5781 40.1029 75.5221 39.8867 75.4102C39.6732 75.2982 39.5065 75.1484 39.3867 74.9609C39.2695 74.7708 39.2109 74.5586 39.2109 74.3242C39.2109 74.0977 39.2552 73.8984 39.3438 73.7266C39.4323 73.5521 39.5599 73.4076 39.7266 73.293C39.8932 73.1758 40.0938 73.0872 40.3281 73.0273C40.5625 72.9674 40.8242 72.9375 41.1133 72.9375H41.9531ZM44.4102 71.9375V75.5H43.6875V71.2734H44.3906L44.4102 71.9375ZM45.7305 71.25L45.7266 71.9219C45.6667 71.9089 45.6094 71.901 45.5547 71.8984C45.5026 71.8932 45.4427 71.8906 45.375 71.8906C45.2083 71.8906 45.0612 71.9167 44.9336 71.9688C44.806 72.0208 44.6979 72.0938 44.6094 72.1875C44.5208 72.2812 44.4505 72.3932 44.3984 72.5234C44.349 72.651 44.3164 72.7917 44.3008 72.9453L44.0977 73.0625C44.0977 72.8073 44.1224 72.5677 44.1719 72.3438C44.224 72.1198 44.3034 71.9219 44.4102 71.75C44.5169 71.5755 44.6523 71.4401 44.8164 71.3438C44.9831 71.2448 45.181 71.1953 45.4102 71.1953C45.4622 71.1953 45.5221 71.2018 45.5898 71.2148C45.6576 71.2253 45.7044 71.237 45.7305 71.25ZM50.8438 74.3789C50.8438 74.2747 50.8203 74.1784 50.7734 74.0898C50.7292 73.9987 50.6367 73.9167 50.4961 73.8438C50.3581 73.7682 50.1497 73.7031 49.8711 73.6484C49.6367 73.599 49.4245 73.5404 49.2344 73.4727C49.0469 73.4049 48.8867 73.3229 48.7539 73.2266C48.6237 73.1302 48.5234 73.0169 48.4531 72.8867C48.3828 72.7565 48.3477 72.6042 48.3477 72.4297C48.3477 72.263 48.3841 72.1055 48.457 71.957C48.5326 71.8086 48.638 71.6771 48.7734 71.5625C48.9115 71.4479 49.0768 71.3581 49.2695 71.293C49.4622 71.2279 49.6771 71.1953 49.9141 71.1953C50.2526 71.1953 50.5417 71.2552 50.7812 71.375C51.0208 71.4948 51.2044 71.6549 51.332 71.8555C51.4596 72.0534 51.5234 72.2734 51.5234 72.5156H50.8008C50.8008 72.3984 50.7656 72.2852 50.6953 72.1758C50.6276 72.0638 50.5273 71.9714 50.3945 71.8984C50.2643 71.8255 50.1042 71.7891 49.9141 71.7891C49.7135 71.7891 49.5508 71.8203 49.4258 71.8828C49.3034 71.9427 49.2135 72.0195 49.1562 72.1133C49.1016 72.207 49.0742 72.306 49.0742 72.4102C49.0742 72.4883 49.0872 72.5586 49.1133 72.6211C49.1419 72.681 49.1914 72.737 49.2617 72.7891C49.332 72.8385 49.431 72.8854 49.5586 72.9297C49.6862 72.974 49.849 73.0182 50.0469 73.0625C50.3932 73.1406 50.6784 73.2344 50.9023 73.3438C51.1263 73.4531 51.293 73.5872 51.4023 73.7461C51.5117 73.9049 51.5664 74.0977 51.5664 74.3242C51.5664 74.5091 51.5273 74.6784 51.4492 74.832C51.3737 74.9857 51.263 75.1185 51.1172 75.2305C50.974 75.3398 50.8021 75.4258 50.6016 75.4883C50.4036 75.5482 50.181 75.5781 49.9336 75.5781C49.5612 75.5781 49.2461 75.5117 48.9883 75.3789C48.7305 75.2461 48.5352 75.0742 48.4023 74.8633C48.2695 74.6523 48.2031 74.4297 48.2031 74.1953H48.9297C48.9401 74.3932 48.9974 74.5508 49.1016 74.668C49.2057 74.7826 49.3333 74.8646 49.4844 74.9141C49.6354 74.9609 49.7852 74.9844 49.9336 74.9844C50.1315 74.9844 50.2969 74.9583 50.4297 74.9062C50.5651 74.8542 50.668 74.7826 50.7383 74.6914C50.8086 74.6003 50.8438 74.4961 50.8438 74.3789ZM55.1016 74.5234V71.2734H55.8281V75.5H55.1367L55.1016 74.5234ZM55.2383 73.6328L55.5391 73.625C55.5391 73.9062 55.5091 74.1667 55.4492 74.4062C55.3919 74.6432 55.2982 74.849 55.168 75.0234C55.0378 75.1979 54.8672 75.3346 54.6562 75.4336C54.4453 75.5299 54.1888 75.5781 53.8867 75.5781C53.681 75.5781 53.4922 75.5482 53.3203 75.4883C53.151 75.4284 53.0052 75.3359 52.8828 75.2109C52.7604 75.0859 52.6654 74.9232 52.5977 74.7227C52.5326 74.5221 52.5 74.2812 52.5 74V71.2734H53.2227V74.0078C53.2227 74.1979 53.2435 74.3555 53.2852 74.4805C53.3294 74.6029 53.388 74.7005 53.4609 74.7734C53.5365 74.8438 53.6198 74.8932 53.7109 74.9219C53.8047 74.9505 53.901 74.9648 54 74.9648C54.3073 74.9648 54.5508 74.9062 54.7305 74.7891C54.9102 74.6693 55.0391 74.5091 55.1172 74.3086C55.1979 74.1055 55.2383 73.8802 55.2383 73.6328ZM59.4219 74.7773V72.6016C59.4219 72.4349 59.388 72.2904 59.3203 72.168C59.2552 72.043 59.1562 71.9466 59.0234 71.8789C58.8906 71.8112 58.7266 71.7773 58.5312 71.7773C58.349 71.7773 58.1888 71.8086 58.0508 71.8711C57.9154 71.9336 57.8086 72.0156 57.7305 72.1172C57.6549 72.2188 57.6172 72.3281 57.6172 72.4453H56.8945C56.8945 72.2943 56.9336 72.1445 57.0117 71.9961C57.0898 71.8477 57.2018 71.7135 57.3477 71.5938C57.4961 71.4714 57.6732 71.375 57.8789 71.3047C58.0872 71.2318 58.319 71.1953 58.5742 71.1953C58.8815 71.1953 59.1523 71.2474 59.3867 71.3516C59.6237 71.4557 59.8086 71.6133 59.9414 71.8242C60.0768 72.0326 60.1445 72.2943 60.1445 72.6094V74.5781C60.1445 74.7188 60.1562 74.8685 60.1797 75.0273C60.2057 75.1862 60.2435 75.3229 60.293 75.4375V75.5H59.5391C59.5026 75.4167 59.474 75.306 59.4531 75.168C59.4323 75.0273 59.4219 74.8971 59.4219 74.7773ZM59.5469 72.9375L59.5547 73.4453H58.8242C58.6185 73.4453 58.4349 73.4622 58.2734 73.4961C58.112 73.5273 57.9766 73.5755 57.8672 73.6406C57.7578 73.7057 57.6745 73.7878 57.6172 73.8867C57.5599 73.9831 57.5312 74.0964 57.5312 74.2266C57.5312 74.3594 57.5612 74.4805 57.6211 74.5898C57.681 74.6992 57.7708 74.7865 57.8906 74.8516C58.013 74.9141 58.1628 74.9453 58.3398 74.9453C58.5612 74.9453 58.7565 74.8984 58.9258 74.8047C59.0951 74.7109 59.2292 74.5964 59.3281 74.4609C59.4297 74.3255 59.4844 74.194 59.4922 74.0664L59.8008 74.4141C59.7826 74.5234 59.7331 74.6445 59.6523 74.7773C59.5716 74.9102 59.4635 75.0378 59.3281 75.1602C59.1953 75.2799 59.0365 75.3802 58.8516 75.4609C58.6693 75.5391 58.4635 75.5781 58.2344 75.5781C57.9479 75.5781 57.6966 75.5221 57.4805 75.4102C57.2669 75.2982 57.1003 75.1484 56.9805 74.9609C56.8633 74.7708 56.8047 74.5586 56.8047 74.3242C56.8047 74.0977 56.849 73.8984 56.9375 73.7266C57.026 73.5521 57.1536 73.4076 57.3203 73.293C57.487 73.1758 57.6875 73.0872 57.9219 73.0273C58.1562 72.9674 58.418 72.9375 58.707 72.9375H59.5469ZM64.3438 75.5H63.6211V70.8281C63.6211 70.5234 63.6758 70.2669 63.7852 70.0586C63.8971 69.8477 64.0573 69.6888 64.2656 69.582C64.474 69.4727 64.7214 69.418 65.0078 69.418C65.0911 69.418 65.1745 69.4232 65.2578 69.4336C65.3438 69.444 65.4271 69.4596 65.5078 69.4805L65.4688 70.0703C65.4141 70.0573 65.3516 70.0482 65.2812 70.043C65.2135 70.0378 65.1458 70.0352 65.0781 70.0352C64.9245 70.0352 64.7917 70.0664 64.6797 70.1289C64.5703 70.1888 64.487 70.2773 64.4297 70.3945C64.3724 70.5117 64.3438 70.6562 64.3438 70.8281V75.5ZM65.2422 71.2734V71.8281H62.9531V71.2734H65.2422ZM65.8555 73.4336V73.3438C65.8555 73.0391 65.8997 72.7565 65.9883 72.4961C66.0768 72.2331 66.2044 72.0052 66.3711 71.8125C66.5378 71.6172 66.7396 71.4661 66.9766 71.3594C67.2135 71.25 67.4792 71.1953 67.7734 71.1953C68.0703 71.1953 68.3372 71.25 68.5742 71.3594C68.8138 71.4661 69.0169 71.6172 69.1836 71.8125C69.3529 72.0052 69.4818 72.2331 69.5703 72.4961C69.6589 72.7565 69.7031 73.0391 69.7031 73.3438V73.4336C69.7031 73.7383 69.6589 74.0208 69.5703 74.2812C69.4818 74.5417 69.3529 74.7695 69.1836 74.9648C69.0169 75.1576 68.8151 75.3086 68.5781 75.418C68.3438 75.5247 68.0781 75.5781 67.7812 75.5781C67.4844 75.5781 67.2174 75.5247 66.9805 75.418C66.7435 75.3086 66.5404 75.1576 66.3711 74.9648C66.2044 74.7695 66.0768 74.5417 65.9883 74.2812C65.8997 74.0208 65.8555 73.7383 65.8555 73.4336ZM66.5781 73.3438V73.4336C66.5781 73.6445 66.6029 73.8438 66.6523 74.0312C66.7018 74.2161 66.776 74.3802 66.875 74.5234C66.9766 74.6667 67.1029 74.7799 67.2539 74.8633C67.4049 74.944 67.5807 74.9844 67.7812 74.9844C67.9792 74.9844 68.1523 74.944 68.3008 74.8633C68.4518 74.7799 68.5768 74.6667 68.6758 74.5234C68.7747 74.3802 68.849 74.2161 68.8984 74.0312C68.9505 73.8438 68.9766 73.6445 68.9766 73.4336V73.3438C68.9766 73.1354 68.9505 72.9388 68.8984 72.7539C68.849 72.5664 68.7734 72.401 68.6719 72.2578C68.5729 72.112 68.4479 71.9974 68.2969 71.9141C68.1484 71.8307 67.974 71.7891 67.7734 71.7891C67.5755 71.7891 67.401 71.8307 67.25 71.9141C67.1016 71.9974 66.9766 72.112 66.875 72.2578C66.776 72.401 66.7018 72.5664 66.6523 72.7539C66.6029 72.9388 66.5781 73.1354 66.5781 73.3438ZM72.3789 71.2734V71.8281H70.0938V71.2734H72.3789ZM70.8672 70.2461H71.5898V74.4531C71.5898 74.5964 71.612 74.7044 71.6562 74.7773C71.7005 74.8503 71.7578 74.8984 71.8281 74.9219C71.8984 74.9453 71.974 74.957 72.0547 74.957C72.1146 74.957 72.1771 74.9518 72.2422 74.9414C72.3099 74.9284 72.3607 74.918 72.3945 74.9102L72.3984 75.5C72.3411 75.5182 72.2656 75.5352 72.1719 75.5508C72.0807 75.569 71.9701 75.5781 71.8398 75.5781C71.6628 75.5781 71.5 75.543 71.3516 75.4727C71.2031 75.4023 71.0846 75.2852 70.9961 75.1211C70.9102 74.9544 70.8672 74.7305 70.8672 74.4492V70.2461ZM72.957 73.4336V73.3438C72.957 73.0391 73.0013 72.7565 73.0898 72.4961C73.1784 72.2331 73.306 72.0052 73.4727 71.8125C73.6393 71.6172 73.8411 71.4661 74.0781 71.3594C74.3151 71.25 74.5807 71.1953 74.875 71.1953C75.1719 71.1953 75.4388 71.25 75.6758 71.3594C75.9154 71.4661 76.1185 71.6172 76.2852 71.8125C76.4544 72.0052 76.5833 72.2331 76.6719 72.4961C76.7604 72.7565 76.8047 73.0391 76.8047 73.3438V73.4336C76.8047 73.7383 76.7604 74.0208 76.6719 74.2812C76.5833 74.5417 76.4544 74.7695 76.2852 74.9648C76.1185 75.1576 75.9167 75.3086 75.6797 75.418C75.4453 75.5247 75.1797 75.5781 74.8828 75.5781C74.5859 75.5781 74.319 75.5247 74.082 75.418C73.8451 75.3086 73.6419 75.1576 73.4727 74.9648C73.306 74.7695 73.1784 74.5417 73.0898 74.2812C73.0013 74.0208 72.957 73.7383 72.957 73.4336ZM73.6797 73.3438V73.4336C73.6797 73.6445 73.7044 73.8438 73.7539 74.0312C73.8034 74.2161 73.8776 74.3802 73.9766 74.5234C74.0781 74.6667 74.2044 74.7799 74.3555 74.8633C74.5065 74.944 74.6823 74.9844 74.8828 74.9844C75.0807 74.9844 75.2539 74.944 75.4023 74.8633C75.5534 74.7799 75.6784 74.6667 75.7773 74.5234C75.8763 74.3802 75.9505 74.2161 76 74.0312C76.0521 73.8438 76.0781 73.6445 76.0781 73.4336V73.3438C76.0781 73.1354 76.0521 72.9388 76 72.7539C75.9505 72.5664 75.875 72.401 75.7734 72.2578C75.6745 72.112 75.5495 71.9974 75.3984 71.9141C75.25 71.8307 75.0755 71.7891 74.875 71.7891C74.6771 71.7891 74.5026 71.8307 74.3516 71.9141C74.2031 71.9974 74.0781 72.112 73.9766 72.2578C73.8776 72.401 73.8034 72.5664 73.7539 72.7539C73.7044 72.9388 73.6797 73.1354 73.6797 73.3438Z" fill="#989898"/>
<rect x="1.5" y="1.5" width="97" height="97" rx="2.5" stroke="#989898" stroke-width="3" stroke-dasharray="10 10"/>
</svg>
