<svg width="100" height="100" viewBox="0 0 100 100" fill="none" xmlns="http://www.w3.org/2000/svg">
<rect x="0.5" y="0.5" width="99" height="99" rx="3.5" fill="#F1F1F1"/>
<path d="M60 48.5H40C39.4696 48.5 38.9609 48.2893 38.5858 47.9142C38.2107 47.5391 38 47.0304 38 46.5V32.5C38 31.9696 38.2107 31.4609 38.5858 31.0858C38.9609 30.7107 39.4696 30.5 40 30.5H44L46 27.5H54L56 30.5H60C60.5304 30.5 61.0391 30.7107 61.4142 31.0858C61.7893 31.4609 62 31.9696 62 32.5V46.5C62 47.0304 61.7893 47.5391 61.4142 47.9142C61.0391 48.2893 60.5304 48.5 60 48.5Z" stroke="#1E1E1E" stroke-width="2" stroke-linecap="round" stroke-linejoin="round"/>
<path d="M50 43.5C52.4853 43.5 54.5 41.4853 54.5 39C54.5 36.5147 52.4853 34.5 50 34.5C47.5147 34.5 45.5 36.5147 45.5 39C45.5 41.4853 47.5147 43.5 50 43.5Z" stroke="#1E1E1E" stroke-width="2" stroke-linecap="round" stroke-linejoin="round"/>
<path d="M25.4531 64.6914H26.2031C26.1641 65.0508 26.0612 65.3724 25.8945 65.6562C25.7279 65.9401 25.4922 66.1654 25.1875 66.332C24.8828 66.4961 24.5026 66.5781 24.0469 66.5781C23.7135 66.5781 23.4102 66.5156 23.1367 66.3906C22.8659 66.2656 22.6328 66.0885 22.4375 65.8594C22.2422 65.6276 22.0911 65.3503 21.9844 65.0273C21.8802 64.7018 21.8281 64.3398 21.8281 63.9414V63.375C21.8281 62.9766 21.8802 62.6159 21.9844 62.293C22.0911 61.9674 22.2435 61.6888 22.4414 61.457C22.6419 61.2253 22.8828 61.0469 23.1641 60.9219C23.4453 60.7969 23.7617 60.7344 24.1133 60.7344C24.543 60.7344 24.9062 60.8151 25.2031 60.9766C25.5 61.138 25.7305 61.362 25.8945 61.6484C26.0612 61.9323 26.1641 62.2617 26.2031 62.6367H25.4531C25.4167 62.3711 25.349 62.1432 25.25 61.9531C25.151 61.7604 25.0104 61.612 24.8281 61.5078C24.6458 61.4036 24.4076 61.3516 24.1133 61.3516C23.8607 61.3516 23.638 61.3997 23.4453 61.4961C23.2552 61.5924 23.0951 61.7292 22.9648 61.9062C22.8372 62.0833 22.7409 62.2956 22.6758 62.543C22.6107 62.7904 22.5781 63.0651 22.5781 63.3672V63.9414C22.5781 64.2201 22.6068 64.4818 22.6641 64.7266C22.724 64.9714 22.8138 65.1862 22.9336 65.3711C23.0534 65.556 23.2057 65.7018 23.3906 65.8086C23.5755 65.9128 23.7943 65.9648 24.0469 65.9648C24.3672 65.9648 24.6224 65.9141 24.8125 65.8125C25.0026 65.7109 25.1458 65.5651 25.2422 65.375C25.3411 65.1849 25.4115 64.957 25.4531 64.6914ZM27.9062 60.5V66.5H27.1797V60.5H27.9062ZM29.8516 62.2734V66.5H29.125V62.2734H29.8516ZM29.0703 61.1523C29.0703 61.0352 29.1055 60.9362 29.1758 60.8555C29.2487 60.7747 29.3555 60.7344 29.4961 60.7344C29.6341 60.7344 29.7396 60.7747 29.8125 60.8555C29.888 60.9362 29.9258 61.0352 29.9258 61.1523C29.9258 61.2643 29.888 61.3607 29.8125 61.4414C29.7396 61.5195 29.6341 61.5586 29.4961 61.5586C29.3555 61.5586 29.2487 61.5195 29.1758 61.4414C29.1055 61.3607 29.0703 61.2643 29.0703 61.1523ZM33.6719 68.125V63.0859L33.7344 62.2734H34.3984V68.125H33.6719ZM30.832 64.4336V64.3516C30.832 64.0286 30.8698 63.7357 30.9453 63.4727C31.0208 63.207 31.1315 62.9792 31.2773 62.7891C31.4232 62.599 31.599 62.4531 31.8047 62.3516C32.013 62.2474 32.25 62.1953 32.5156 62.1953C32.7812 62.1953 33.0143 62.2422 33.2148 62.3359C33.418 62.4271 33.5898 62.5612 33.7305 62.7383C33.8737 62.9128 33.987 63.1237 34.0703 63.3711C34.1536 63.6185 34.2109 63.8984 34.2422 64.2109V64.5703C34.2135 64.8802 34.1576 65.1589 34.0742 65.4062C33.9909 65.6536 33.8776 65.8646 33.7344 66.0391C33.5938 66.2135 33.4206 66.3477 33.2148 66.4414C33.0117 66.5326 32.776 66.5781 32.5078 66.5781C32.2474 66.5781 32.013 66.5247 31.8047 66.418C31.599 66.3112 31.4232 66.1615 31.2773 65.9688C31.1341 65.776 31.0234 65.5495 30.9453 65.2891C30.8698 65.026 30.832 64.7409 30.832 64.4336ZM31.5586 64.3516V64.4336C31.5586 64.6445 31.5807 64.8438 31.625 65.0312C31.6693 65.2161 31.737 65.3802 31.8281 65.5234C31.9219 65.6667 32.0391 65.7799 32.1797 65.8633C32.3229 65.944 32.4922 65.9844 32.6875 65.9844C32.9271 65.9844 33.1263 65.9323 33.2852 65.8281C33.4466 65.724 33.5755 65.5872 33.6719 65.418C33.7682 65.2461 33.8424 65.0625 33.8945 64.8672V63.9258C33.8659 63.7826 33.8203 63.6432 33.7578 63.5078C33.6979 63.3724 33.6198 63.2513 33.5234 63.1445C33.4271 63.0352 33.3099 62.9492 33.1719 62.8867C33.0365 62.8216 32.8776 62.7891 32.6953 62.7891C32.4974 62.7891 32.3268 62.8307 32.1836 62.9141C32.0404 62.9974 31.9219 63.112 31.8281 63.2578C31.737 63.401 31.6693 63.5664 31.625 63.7539C31.5807 63.9414 31.5586 64.1406 31.5586 64.3516ZM38.1445 65.5234V62.2734H38.8711V66.5H38.1797L38.1445 65.5234ZM38.2812 64.6328L38.582 64.625C38.582 64.9062 38.5521 65.1667 38.4922 65.4062C38.4349 65.6432 38.3411 65.849 38.2109 66.0234C38.0807 66.1979 37.9102 66.3346 37.6992 66.4336C37.4883 66.5299 37.2318 66.5781 36.9297 66.5781C36.724 66.5781 36.5352 66.5482 36.3633 66.4883C36.194 66.4284 36.0482 66.3359 35.9258 66.2109C35.8034 66.0859 35.7083 65.9232 35.6406 65.7227C35.5755 65.5221 35.543 65.2812 35.543 65V62.2734H36.2656V65.0078C36.2656 65.1979 36.2865 65.3555 36.3281 65.4805C36.3724 65.6029 36.431 65.7005 36.5039 65.7734C36.5794 65.8438 36.6628 65.8932 36.7539 65.9219C36.8477 65.9505 36.944 65.9648 37.043 65.9648C37.3503 65.9648 37.5938 65.9062 37.7734 65.7891C37.9531 65.6693 38.082 65.5091 38.1602 65.3086C38.2409 65.1055 38.2812 64.8802 38.2812 64.6328ZM41.7266 66.5781C41.4323 66.5781 41.1654 66.5286 40.9258 66.4297C40.6888 66.3281 40.4844 66.1862 40.3125 66.0039C40.1432 65.8216 40.013 65.6055 39.9219 65.3555C39.8307 65.1055 39.7852 64.832 39.7852 64.5352V64.3711C39.7852 64.0273 39.8359 63.7214 39.9375 63.4531C40.0391 63.1823 40.1771 62.9531 40.3516 62.7656C40.526 62.5781 40.724 62.4362 40.9453 62.3398C41.1667 62.2435 41.3958 62.1953 41.6328 62.1953C41.9349 62.1953 42.1953 62.2474 42.4141 62.3516C42.6354 62.4557 42.8164 62.6016 42.957 62.7891C43.0977 62.974 43.2018 63.1927 43.2695 63.4453C43.3372 63.6953 43.3711 63.9688 43.3711 64.2656V64.5898H40.2148V64H42.6484V63.9453C42.638 63.7578 42.599 63.5755 42.5312 63.3984C42.4661 63.2214 42.362 63.0755 42.2188 62.9609C42.0755 62.8464 41.8802 62.7891 41.6328 62.7891C41.4688 62.7891 41.3177 62.8242 41.1797 62.8945C41.0417 62.9622 40.9232 63.0638 40.8242 63.1992C40.7253 63.3346 40.6484 63.5 40.5938 63.6953C40.5391 63.8906 40.5117 64.1159 40.5117 64.3711V64.5352C40.5117 64.7357 40.5391 64.9245 40.5938 65.1016C40.651 65.276 40.7331 65.4297 40.8398 65.5625C40.9492 65.6953 41.0807 65.7995 41.2344 65.875C41.3906 65.9505 41.5677 65.9883 41.7656 65.9883C42.0208 65.9883 42.237 65.9362 42.4141 65.832C42.5911 65.7279 42.7461 65.5885 42.8789 65.4141L43.3164 65.7617C43.2253 65.8997 43.1094 66.0312 42.9688 66.1562C42.8281 66.2812 42.6549 66.3828 42.4492 66.4609C42.2461 66.5391 42.0052 66.5781 41.7266 66.5781ZM48.6914 65.7773V63.6016C48.6914 63.4349 48.6576 63.2904 48.5898 63.168C48.5247 63.043 48.4258 62.9466 48.293 62.8789C48.1602 62.8112 47.9961 62.7773 47.8008 62.7773C47.6185 62.7773 47.4583 62.8086 47.3203 62.8711C47.1849 62.9336 47.0781 63.0156 47 63.1172C46.9245 63.2188 46.8867 63.3281 46.8867 63.4453H46.1641C46.1641 63.2943 46.2031 63.1445 46.2812 62.9961C46.3594 62.8477 46.4714 62.7135 46.6172 62.5938C46.7656 62.4714 46.9427 62.375 47.1484 62.3047C47.3568 62.2318 47.5885 62.1953 47.8438 62.1953C48.151 62.1953 48.4219 62.2474 48.6562 62.3516C48.8932 62.4557 49.0781 62.6133 49.2109 62.8242C49.3464 63.0326 49.4141 63.2943 49.4141 63.6094V65.5781C49.4141 65.7188 49.4258 65.8685 49.4492 66.0273C49.4753 66.1862 49.513 66.3229 49.5625 66.4375V66.5H48.8086C48.7721 66.4167 48.7435 66.306 48.7227 66.168C48.7018 66.0273 48.6914 65.8971 48.6914 65.7773ZM48.8164 63.9375L48.8242 64.4453H48.0938C47.888 64.4453 47.7044 64.4622 47.543 64.4961C47.3815 64.5273 47.2461 64.5755 47.1367 64.6406C47.0273 64.7057 46.944 64.7878 46.8867 64.8867C46.8294 64.9831 46.8008 65.0964 46.8008 65.2266C46.8008 65.3594 46.8307 65.4805 46.8906 65.5898C46.9505 65.6992 47.0404 65.7865 47.1602 65.8516C47.2826 65.9141 47.4323 65.9453 47.6094 65.9453C47.8307 65.9453 48.026 65.8984 48.1953 65.8047C48.3646 65.7109 48.4987 65.5964 48.5977 65.4609C48.6992 65.3255 48.7539 65.194 48.7617 65.0664L49.0703 65.4141C49.0521 65.5234 49.0026 65.6445 48.9219 65.7773C48.8411 65.9102 48.7331 66.0378 48.5977 66.1602C48.4648 66.2799 48.306 66.3802 48.1211 66.4609C47.9388 66.5391 47.7331 66.5781 47.5039 66.5781C47.2174 66.5781 46.9661 66.5221 46.75 66.4102C46.5365 66.2982 46.3698 66.1484 46.25 65.9609C46.1328 65.7708 46.0742 65.5586 46.0742 65.3242C46.0742 65.0977 46.1185 64.8984 46.207 64.7266C46.2956 64.5521 46.4232 64.4076 46.5898 64.293C46.7565 64.1758 46.957 64.0872 47.1914 64.0273C47.4258 63.9674 47.6875 63.9375 47.9766 63.9375H48.8164ZM53.2109 68.125V63.0859L53.2734 62.2734H53.9375V68.125H53.2109ZM50.3711 64.4336V64.3516C50.3711 64.0286 50.4089 63.7357 50.4844 63.4727C50.5599 63.207 50.6706 62.9792 50.8164 62.7891C50.9622 62.599 51.138 62.4531 51.3438 62.3516C51.5521 62.2474 51.7891 62.1953 52.0547 62.1953C52.3203 62.1953 52.5534 62.2422 52.7539 62.3359C52.957 62.4271 53.1289 62.5612 53.2695 62.7383C53.4128 62.9128 53.526 63.1237 53.6094 63.3711C53.6927 63.6185 53.75 63.8984 53.7812 64.2109V64.5703C53.7526 64.8802 53.6966 65.1589 53.6133 65.4062C53.5299 65.6536 53.4167 65.8646 53.2734 66.0391C53.1328 66.2135 52.9596 66.3477 52.7539 66.4414C52.5508 66.5326 52.3151 66.5781 52.0469 66.5781C51.7865 66.5781 51.5521 66.5247 51.3438 66.418C51.138 66.3112 50.9622 66.1615 50.8164 65.9688C50.6732 65.776 50.5625 65.5495 50.4844 65.2891C50.4089 65.026 50.3711 64.7409 50.3711 64.4336ZM51.0977 64.3516V64.4336C51.0977 64.6445 51.1198 64.8438 51.1641 65.0312C51.2083 65.2161 51.276 65.3802 51.3672 65.5234C51.4609 65.6667 51.5781 65.7799 51.7188 65.8633C51.862 65.944 52.0312 65.9844 52.2266 65.9844C52.4661 65.9844 52.6654 65.9323 52.8242 65.8281C52.9857 65.724 53.1146 65.5872 53.2109 65.418C53.3073 65.2461 53.3815 65.0625 53.4336 64.8672V63.9258C53.4049 63.7826 53.3594 63.6432 53.2969 63.5078C53.237 63.3724 53.1589 63.2513 53.0625 63.1445C52.9661 63.0352 52.849 62.9492 52.7109 62.8867C52.5755 62.8216 52.4167 62.7891 52.2344 62.7891C52.0365 62.7891 51.8659 62.8307 51.7227 62.9141C51.5794 62.9974 51.4609 63.112 51.3672 63.2578C51.276 63.401 51.2083 63.5664 51.1641 63.7539C51.1198 63.9414 51.0977 64.1406 51.0977 64.3516ZM57.6836 65.5234V62.2734H58.4102V66.5H57.7188L57.6836 65.5234ZM57.8203 64.6328L58.1211 64.625C58.1211 64.9062 58.0911 65.1667 58.0312 65.4062C57.974 65.6432 57.8802 65.849 57.75 66.0234C57.6198 66.1979 57.4492 66.3346 57.2383 66.4336C57.0273 66.5299 56.7708 66.5781 56.4688 66.5781C56.263 66.5781 56.0742 66.5482 55.9023 66.4883C55.7331 66.4284 55.5872 66.3359 55.4648 66.2109C55.3424 66.0859 55.2474 65.9232 55.1797 65.7227C55.1146 65.5221 55.082 65.2812 55.082 65V62.2734H55.8047V65.0078C55.8047 65.1979 55.8255 65.3555 55.8672 65.4805C55.9115 65.6029 55.9701 65.7005 56.043 65.7734C56.1185 65.8438 56.2018 65.8932 56.293 65.9219C56.3867 65.9505 56.4831 65.9648 56.582 65.9648C56.8893 65.9648 57.1328 65.9062 57.3125 65.7891C57.4922 65.6693 57.6211 65.5091 57.6992 65.3086C57.7799 65.1055 57.8203 64.8802 57.8203 64.6328ZM60.2969 62.2734V66.5H59.5703V62.2734H60.2969ZM59.5156 61.1523C59.5156 61.0352 59.5508 60.9362 59.6211 60.8555C59.694 60.7747 59.8008 60.7344 59.9414 60.7344C60.0794 60.7344 60.1849 60.7747 60.2578 60.8555C60.3333 60.9362 60.3711 61.0352 60.3711 61.1523C60.3711 61.2643 60.3333 61.3607 60.2578 61.4414C60.1849 61.5195 60.0794 61.5586 59.9414 61.5586C59.8008 61.5586 59.694 61.5195 59.6211 61.4414C59.5508 61.3607 59.5156 61.2643 59.5156 61.1523ZM64.1641 63.0859V68.125H63.4375V62.2734H64.1016L64.1641 63.0859ZM67.0117 64.3516V64.4336C67.0117 64.7409 66.9753 65.026 66.9023 65.2891C66.8294 65.5495 66.7227 65.776 66.582 65.9688C66.444 66.1615 66.2734 66.3112 66.0703 66.418C65.8672 66.5247 65.6341 66.5781 65.3711 66.5781C65.1029 66.5781 64.8659 66.5339 64.6602 66.4453C64.4544 66.3568 64.2799 66.2279 64.1367 66.0586C63.9935 65.8893 63.8789 65.6862 63.793 65.4492C63.7096 65.2122 63.6523 64.9453 63.6211 64.6484V64.2109C63.6523 63.8984 63.7109 63.6185 63.7969 63.3711C63.8828 63.1237 63.9961 62.9128 64.1367 62.7383C64.2799 62.5612 64.4531 62.4271 64.6562 62.3359C64.8594 62.2422 65.0938 62.1953 65.3594 62.1953C65.625 62.1953 65.8607 62.2474 66.0664 62.3516C66.2721 62.4531 66.4453 62.599 66.5859 62.7891C66.7266 62.9792 66.832 63.207 66.9023 63.4727C66.9753 63.7357 67.0117 64.0286 67.0117 64.3516ZM66.2852 64.4336V64.3516C66.2852 64.1406 66.263 63.9427 66.2188 63.7578C66.1745 63.5703 66.1055 63.4062 66.0117 63.2656C65.9206 63.1224 65.8034 63.0104 65.6602 62.9297C65.5169 62.8464 65.3464 62.8047 65.1484 62.8047C64.9661 62.8047 64.8073 62.8359 64.6719 62.8984C64.5391 62.9609 64.4258 63.0456 64.332 63.1523C64.2383 63.2565 64.1615 63.3763 64.1016 63.5117C64.0443 63.6445 64.0013 63.7826 63.9727 63.9258V64.9375C64.0247 65.1198 64.0977 65.2917 64.1914 65.4531C64.2852 65.612 64.4102 65.7409 64.5664 65.8398C64.7227 65.9362 64.9193 65.9844 65.1562 65.9844C65.3516 65.9844 65.5195 65.944 65.6602 65.8633C65.8034 65.7799 65.9206 65.6667 66.0117 65.5234C66.1055 65.3802 66.1745 65.2161 66.2188 65.0312C66.263 64.8438 66.2852 64.6445 66.2852 64.4336ZM70.4258 65.7773V63.6016C70.4258 63.4349 70.3919 63.2904 70.3242 63.168C70.2591 63.043 70.1602 62.9466 70.0273 62.8789C69.8945 62.8112 69.7305 62.7773 69.5352 62.7773C69.3529 62.7773 69.1927 62.8086 69.0547 62.8711C68.9193 62.9336 68.8125 63.0156 68.7344 63.1172C68.6589 63.2188 68.6211 63.3281 68.6211 63.4453H67.8984C67.8984 63.2943 67.9375 63.1445 68.0156 62.9961C68.0938 62.8477 68.2057 62.7135 68.3516 62.5938C68.5 62.4714 68.6771 62.375 68.8828 62.3047C69.0911 62.2318 69.3229 62.1953 69.5781 62.1953C69.8854 62.1953 70.1562 62.2474 70.3906 62.3516C70.6276 62.4557 70.8125 62.6133 70.9453 62.8242C71.0807 63.0326 71.1484 63.2943 71.1484 63.6094V65.5781C71.1484 65.7188 71.1602 65.8685 71.1836 66.0273C71.2096 66.1862 71.2474 66.3229 71.2969 66.4375V66.5H70.543C70.5065 66.4167 70.4779 66.306 70.457 66.168C70.4362 66.0273 70.4258 65.8971 70.4258 65.7773ZM70.5508 63.9375L70.5586 64.4453H69.8281C69.6224 64.4453 69.4388 64.4622 69.2773 64.4961C69.1159 64.5273 68.9805 64.5755 68.8711 64.6406C68.7617 64.7057 68.6784 64.7878 68.6211 64.8867C68.5638 64.9831 68.5352 65.0964 68.5352 65.2266C68.5352 65.3594 68.5651 65.4805 68.625 65.5898C68.6849 65.6992 68.7747 65.7865 68.8945 65.8516C69.0169 65.9141 69.1667 65.9453 69.3438 65.9453C69.5651 65.9453 69.7604 65.8984 69.9297 65.8047C70.099 65.7109 70.2331 65.5964 70.332 65.4609C70.4336 65.3255 70.4883 65.194 70.4961 65.0664L70.8047 65.4141C70.7865 65.5234 70.737 65.6445 70.6562 65.7773C70.5755 65.9102 70.4674 66.0378 70.332 66.1602C70.1992 66.2799 70.0404 66.3802 69.8555 66.4609C69.6732 66.5391 69.4674 66.5781 69.2383 66.5781C68.9518 66.5781 68.7005 66.5221 68.4844 66.4102C68.2708 66.2982 68.1042 66.1484 67.9844 65.9609C67.8672 65.7708 67.8086 65.5586 67.8086 65.3242C67.8086 65.0977 67.8529 64.8984 67.9414 64.7266C68.0299 64.5521 68.1576 64.4076 68.3242 64.293C68.4909 64.1758 68.6914 64.0872 68.9258 64.0273C69.1602 63.9674 69.4219 63.9375 69.7109 63.9375H70.5508ZM73.0078 62.9375V66.5H72.2852V62.2734H72.9883L73.0078 62.9375ZM74.3281 62.25L74.3242 62.9219C74.2643 62.9089 74.207 62.901 74.1523 62.8984C74.1003 62.8932 74.0404 62.8906 73.9727 62.8906C73.806 62.8906 73.6589 62.9167 73.5312 62.9688C73.4036 63.0208 73.2956 63.0938 73.207 63.1875C73.1185 63.2812 73.0482 63.3932 72.9961 63.5234C72.9466 63.651 72.9141 63.7917 72.8984 63.9453L72.6953 64.0625C72.6953 63.8073 72.7201 63.5677 72.7695 63.3438C72.8216 63.1198 72.901 62.9219 73.0078 62.75C73.1146 62.5755 73.25 62.4401 73.4141 62.3438C73.5807 62.2448 73.7786 62.1953 74.0078 62.1953C74.0599 62.1953 74.1198 62.2018 74.1875 62.2148C74.2552 62.2253 74.3021 62.237 74.3281 62.25ZM77.332 65.7773V63.6016C77.332 63.4349 77.2982 63.2904 77.2305 63.168C77.1654 63.043 77.0664 62.9466 76.9336 62.8789C76.8008 62.8112 76.6367 62.7773 76.4414 62.7773C76.2591 62.7773 76.099 62.8086 75.9609 62.8711C75.8255 62.9336 75.7188 63.0156 75.6406 63.1172C75.5651 63.2188 75.5273 63.3281 75.5273 63.4453H74.8047C74.8047 63.2943 74.8438 63.1445 74.9219 62.9961C75 62.8477 75.112 62.7135 75.2578 62.5938C75.4062 62.4714 75.5833 62.375 75.7891 62.3047C75.9974 62.2318 76.2292 62.1953 76.4844 62.1953C76.7917 62.1953 77.0625 62.2474 77.2969 62.3516C77.5339 62.4557 77.7188 62.6133 77.8516 62.8242C77.987 63.0326 78.0547 63.2943 78.0547 63.6094V65.5781C78.0547 65.7188 78.0664 65.8685 78.0898 66.0273C78.1159 66.1862 78.1536 66.3229 78.2031 66.4375V66.5H77.4492C77.4128 66.4167 77.3841 66.306 77.3633 66.168C77.3424 66.0273 77.332 65.8971 77.332 65.7773ZM77.457 63.9375L77.4648 64.4453H76.7344C76.5286 64.4453 76.3451 64.4622 76.1836 64.4961C76.0221 64.5273 75.8867 64.5755 75.7773 64.6406C75.668 64.7057 75.5846 64.7878 75.5273 64.8867C75.4701 64.9831 75.4414 65.0964 75.4414 65.2266C75.4414 65.3594 75.4714 65.4805 75.5312 65.5898C75.5911 65.6992 75.681 65.7865 75.8008 65.8516C75.9232 65.9141 76.0729 65.9453 76.25 65.9453C76.4714 65.9453 76.6667 65.8984 76.8359 65.8047C77.0052 65.7109 77.1393 65.5964 77.2383 65.4609C77.3398 65.3255 77.3945 65.194 77.4023 65.0664L77.7109 65.4141C77.6927 65.5234 77.6432 65.6445 77.5625 65.7773C77.4818 65.9102 77.3737 66.0378 77.2383 66.1602C77.1055 66.2799 76.9466 66.3802 76.7617 66.4609C76.5794 66.5391 76.3737 66.5781 76.1445 66.5781C75.8581 66.5781 75.6068 66.5221 75.3906 66.4102C75.1771 66.2982 75.0104 66.1484 74.8906 65.9609C74.7734 65.7708 74.7148 65.5586 74.7148 65.3242C74.7148 65.0977 74.7591 64.8984 74.8477 64.7266C74.9362 64.5521 75.0638 64.4076 75.2305 64.293C75.3971 64.1758 75.5977 64.0872 75.832 64.0273C76.0664 63.9674 76.3281 63.9375 76.6172 63.9375H77.457ZM18.418 74.7773V72.6016C18.418 72.4349 18.3841 72.2904 18.3164 72.168C18.2513 72.043 18.1523 71.9466 18.0195 71.8789C17.8867 71.8112 17.7227 71.7773 17.5273 71.7773C17.3451 71.7773 17.1849 71.8086 17.0469 71.8711C16.9115 71.9336 16.8047 72.0156 16.7266 72.1172C16.651 72.2188 16.6133 72.3281 16.6133 72.4453H15.8906C15.8906 72.2943 15.9297 72.1445 16.0078 71.9961C16.0859 71.8477 16.1979 71.7135 16.3438 71.5938C16.4922 71.4714 16.6693 71.375 16.875 71.3047C17.0833 71.2318 17.3151 71.1953 17.5703 71.1953C17.8776 71.1953 18.1484 71.2474 18.3828 71.3516C18.6198 71.4557 18.8047 71.6133 18.9375 71.8242C19.0729 72.0326 19.1406 72.2943 19.1406 72.6094V74.5781C19.1406 74.7188 19.1523 74.8685 19.1758 75.0273C19.2018 75.1862 19.2396 75.3229 19.2891 75.4375V75.5H18.5352C18.4987 75.4167 18.4701 75.306 18.4492 75.168C18.4284 75.0273 18.418 74.8971 18.418 74.7773ZM18.543 72.9375L18.5508 73.4453H17.8203C17.6146 73.4453 17.431 73.4622 17.2695 73.4961C17.1081 73.5273 16.9727 73.5755 16.8633 73.6406C16.7539 73.7057 16.6706 73.7878 16.6133 73.8867C16.556 73.9831 16.5273 74.0964 16.5273 74.2266C16.5273 74.3594 16.5573 74.4805 16.6172 74.5898C16.6771 74.6992 16.7669 74.7865 16.8867 74.8516C17.0091 74.9141 17.1589 74.9453 17.3359 74.9453C17.5573 74.9453 17.7526 74.8984 17.9219 74.8047C18.0911 74.7109 18.2253 74.5964 18.3242 74.4609C18.4258 74.3255 18.4805 74.194 18.4883 74.0664L18.7969 74.4141C18.7786 74.5234 18.7292 74.6445 18.6484 74.7773C18.5677 74.9102 18.4596 75.0378 18.3242 75.1602C18.1914 75.2799 18.0326 75.3802 17.8477 75.4609C17.6654 75.5391 17.4596 75.5781 17.2305 75.5781C16.944 75.5781 16.6927 75.5221 16.4766 75.4102C16.263 75.2982 16.0964 75.1484 15.9766 74.9609C15.8594 74.7708 15.8008 74.5586 15.8008 74.3242C15.8008 74.0977 15.8451 73.8984 15.9336 73.7266C16.0221 73.5521 16.1497 73.4076 16.3164 73.293C16.4831 73.1758 16.6836 73.0872 16.918 73.0273C17.1523 72.9674 17.4141 72.9375 17.7031 72.9375H18.543ZM22.9414 74.6797V69.5H23.668V75.5H23.0039L22.9414 74.6797ZM20.0977 73.4336V73.3516C20.0977 73.0286 20.1367 72.7357 20.2148 72.4727C20.2956 72.207 20.4089 71.9792 20.5547 71.7891C20.7031 71.599 20.8789 71.4531 21.082 71.3516C21.2878 71.2474 21.5169 71.1953 21.7695 71.1953C22.0352 71.1953 22.2669 71.2422 22.4648 71.3359C22.6654 71.4271 22.8346 71.5612 22.9727 71.7383C23.1133 71.9128 23.224 72.1237 23.3047 72.3711C23.3854 72.6185 23.4414 72.8984 23.4727 73.2109V73.5703C23.444 73.8802 23.388 74.1589 23.3047 74.4062C23.224 74.6536 23.1133 74.8646 22.9727 75.0391C22.8346 75.2135 22.6654 75.3477 22.4648 75.4414C22.2643 75.5326 22.0299 75.5781 21.7617 75.5781C21.5143 75.5781 21.2878 75.5247 21.082 75.418C20.8789 75.3112 20.7031 75.1615 20.5547 74.9688C20.4089 74.776 20.2956 74.5495 20.2148 74.2891C20.1367 74.026 20.0977 73.7409 20.0977 73.4336ZM20.8242 73.3516V73.4336C20.8242 73.6445 20.8451 73.8424 20.8867 74.0273C20.931 74.2122 20.9987 74.375 21.0898 74.5156C21.181 74.6562 21.2969 74.7669 21.4375 74.8477C21.5781 74.9258 21.7461 74.9648 21.9414 74.9648C22.181 74.9648 22.3776 74.9141 22.5312 74.8125C22.6875 74.7109 22.8125 74.5768 22.9062 74.4102C23 74.2435 23.0729 74.0625 23.125 73.8672V72.9258C23.0938 72.7826 23.0482 72.6445 22.9883 72.5117C22.931 72.3763 22.8555 72.2565 22.7617 72.1523C22.6706 72.0456 22.5573 71.9609 22.4219 71.8984C22.2891 71.8359 22.1315 71.8047 21.9492 71.8047C21.7513 71.8047 21.5807 71.8464 21.4375 71.9297C21.2969 72.0104 21.181 72.1224 21.0898 72.2656C20.9987 72.4062 20.931 72.5703 20.8867 72.7578C20.8451 72.9427 20.8242 73.1406 20.8242 73.3516ZM25.5781 71.2734V75.5H24.8516V71.2734H25.5781ZM24.7969 70.1523C24.7969 70.0352 24.832 69.9362 24.9023 69.8555C24.9753 69.7747 25.082 69.7344 25.2227 69.7344C25.3607 69.7344 25.4661 69.7747 25.5391 69.8555C25.6146 69.9362 25.6523 70.0352 25.6523 70.1523C25.6523 70.2643 25.6146 70.3607 25.5391 70.4414C25.4661 70.5195 25.3607 70.5586 25.2227 70.5586C25.082 70.5586 24.9753 70.5195 24.9023 70.4414C24.832 70.3607 24.7969 70.2643 24.7969 70.1523ZM28.4297 74.9844C28.6016 74.9844 28.7604 74.9492 28.9062 74.8789C29.0521 74.8086 29.1719 74.7122 29.2656 74.5898C29.3594 74.4648 29.4128 74.3229 29.4258 74.1641H30.1133C30.1003 74.4141 30.0156 74.6471 29.8594 74.8633C29.7057 75.0768 29.5039 75.25 29.2539 75.3828C29.0039 75.513 28.7292 75.5781 28.4297 75.5781C28.112 75.5781 27.8346 75.5221 27.5977 75.4102C27.3633 75.2982 27.168 75.1445 27.0117 74.9492C26.8581 74.7539 26.7422 74.5299 26.6641 74.2773C26.5885 74.0221 26.5508 73.7526 26.5508 73.4688V73.3047C26.5508 73.0208 26.5885 72.7526 26.6641 72.5C26.7422 72.2448 26.8581 72.0195 27.0117 71.8242C27.168 71.6289 27.3633 71.4753 27.5977 71.3633C27.8346 71.2513 28.112 71.1953 28.4297 71.1953C28.7604 71.1953 29.0495 71.263 29.2969 71.3984C29.5443 71.5312 29.7383 71.7135 29.8789 71.9453C30.0221 72.1745 30.1003 72.4349 30.1133 72.7266H29.4258C29.4128 72.5521 29.3633 72.3945 29.2773 72.2539C29.194 72.1133 29.0794 72.0013 28.9336 71.918C28.7904 71.832 28.6224 71.7891 28.4297 71.7891C28.2083 71.7891 28.0221 71.8333 27.8711 71.9219C27.7227 72.0078 27.6042 72.125 27.5156 72.2734C27.4297 72.4193 27.3672 72.582 27.3281 72.7617C27.2917 72.9388 27.2734 73.1198 27.2734 73.3047V73.4688C27.2734 73.6536 27.2917 73.8359 27.3281 74.0156C27.3646 74.1953 27.4258 74.3581 27.5117 74.5039C27.6003 74.6497 27.7188 74.7669 27.8672 74.8555C28.0182 74.9414 28.2057 74.9844 28.4297 74.9844ZM31.7109 71.2734V75.5H30.9844V71.2734H31.7109ZM30.9297 70.1523C30.9297 70.0352 30.9648 69.9362 31.0352 69.8555C31.1081 69.7747 31.2148 69.7344 31.3555 69.7344C31.4935 69.7344 31.599 69.7747 31.6719 69.8555C31.7474 69.9362 31.7852 70.0352 31.7852 70.1523C31.7852 70.2643 31.7474 70.3607 31.6719 70.4414C31.599 70.5195 31.4935 70.5586 31.3555 70.5586C31.2148 70.5586 31.1081 70.5195 31.0352 70.4414C30.9648 70.3607 30.9297 70.2643 30.9297 70.1523ZM32.6797 73.4336V73.3438C32.6797 73.0391 32.724 72.7565 32.8125 72.4961C32.901 72.2331 33.0286 72.0052 33.1953 71.8125C33.362 71.6172 33.5638 71.4661 33.8008 71.3594C34.0378 71.25 34.3034 71.1953 34.5977 71.1953C34.8945 71.1953 35.1615 71.25 35.3984 71.3594C35.638 71.4661 35.8411 71.6172 36.0078 71.8125C36.1771 72.0052 36.306 72.2331 36.3945 72.4961C36.4831 72.7565 36.5273 73.0391 36.5273 73.3438V73.4336C36.5273 73.7383 36.4831 74.0208 36.3945 74.2812C36.306 74.5417 36.1771 74.7695 36.0078 74.9648C35.8411 75.1576 35.6393 75.3086 35.4023 75.418C35.168 75.5247 34.9023 75.5781 34.6055 75.5781C34.3086 75.5781 34.0417 75.5247 33.8047 75.418C33.5677 75.3086 33.3646 75.1576 33.1953 74.9648C33.0286 74.7695 32.901 74.5417 32.8125 74.2812C32.724 74.0208 32.6797 73.7383 32.6797 73.4336ZM33.4023 73.3438V73.4336C33.4023 73.6445 33.4271 73.8438 33.4766 74.0312C33.526 74.2161 33.6003 74.3802 33.6992 74.5234C33.8008 74.6667 33.9271 74.7799 34.0781 74.8633C34.2292 74.944 34.4049 74.9844 34.6055 74.9844C34.8034 74.9844 34.9766 74.944 35.125 74.8633C35.276 74.7799 35.401 74.6667 35.5 74.5234C35.599 74.3802 35.6732 74.2161 35.7227 74.0312C35.7747 73.8438 35.8008 73.6445 35.8008 73.4336V73.3438C35.8008 73.1354 35.7747 72.9388 35.7227 72.7539C35.6732 72.5664 35.5977 72.401 35.4961 72.2578C35.3971 72.112 35.2721 71.9974 35.1211 71.9141C34.9727 71.8307 34.7982 71.7891 34.5977 71.7891C34.3997 71.7891 34.2253 71.8307 34.0742 71.9141C33.9258 71.9974 33.8008 72.112 33.6992 72.2578C33.6003 72.401 33.526 72.5664 33.4766 72.7539C33.4271 72.9388 33.4023 73.1354 33.4023 73.3438ZM38.1562 72.1758V75.5H37.4336V71.2734H38.1172L38.1562 72.1758ZM37.9844 73.2266L37.6836 73.2148C37.6862 72.9258 37.7292 72.6589 37.8125 72.4141C37.8958 72.1667 38.013 71.9518 38.1641 71.7695C38.3151 71.5872 38.4948 71.4466 38.7031 71.3477C38.9141 71.2461 39.1471 71.1953 39.4023 71.1953C39.6107 71.1953 39.7982 71.224 39.9648 71.2812C40.1315 71.3359 40.2734 71.4245 40.3906 71.5469C40.5104 71.6693 40.6016 71.8281 40.6641 72.0234C40.7266 72.2161 40.7578 72.4518 40.7578 72.7305V75.5H40.0312V72.7227C40.0312 72.5013 39.9987 72.3242 39.9336 72.1914C39.8685 72.056 39.7734 71.9583 39.6484 71.8984C39.5234 71.8359 39.3698 71.8047 39.1875 71.8047C39.0078 71.8047 38.8438 71.8424 38.6953 71.918C38.5495 71.9935 38.4232 72.0977 38.3164 72.2305C38.2122 72.3633 38.1302 72.5156 38.0703 72.6875C38.013 72.8568 37.9844 73.0365 37.9844 73.2266ZM44.3477 74.7773V72.6016C44.3477 72.4349 44.3138 72.2904 44.2461 72.168C44.181 72.043 44.082 71.9466 43.9492 71.8789C43.8164 71.8112 43.6523 71.7773 43.457 71.7773C43.2747 71.7773 43.1146 71.8086 42.9766 71.8711C42.8411 71.9336 42.7344 72.0156 42.6562 72.1172C42.5807 72.2188 42.543 72.3281 42.543 72.4453H41.8203C41.8203 72.2943 41.8594 72.1445 41.9375 71.9961C42.0156 71.8477 42.1276 71.7135 42.2734 71.5938C42.4219 71.4714 42.599 71.375 42.8047 71.3047C43.013 71.2318 43.2448 71.1953 43.5 71.1953C43.8073 71.1953 44.0781 71.2474 44.3125 71.3516C44.5495 71.4557 44.7344 71.6133 44.8672 71.8242C45.0026 72.0326 45.0703 72.2943 45.0703 72.6094V74.5781C45.0703 74.7188 45.082 74.8685 45.1055 75.0273C45.1315 75.1862 45.1693 75.3229 45.2188 75.4375V75.5H44.4648C44.4284 75.4167 44.3997 75.306 44.3789 75.168C44.3581 75.0273 44.3477 74.8971 44.3477 74.7773ZM44.4727 72.9375L44.4805 73.4453H43.75C43.5443 73.4453 43.3607 73.4622 43.1992 73.4961C43.0378 73.5273 42.9023 73.5755 42.793 73.6406C42.6836 73.7057 42.6003 73.7878 42.543 73.8867C42.4857 73.9831 42.457 74.0964 42.457 74.2266C42.457 74.3594 42.487 74.4805 42.5469 74.5898C42.6068 74.6992 42.6966 74.7865 42.8164 74.8516C42.9388 74.9141 43.0885 74.9453 43.2656 74.9453C43.487 74.9453 43.6823 74.8984 43.8516 74.8047C44.0208 74.7109 44.1549 74.5964 44.2539 74.4609C44.3555 74.3255 44.4102 74.194 44.418 74.0664L44.7266 74.4141C44.7083 74.5234 44.6589 74.6445 44.5781 74.7773C44.4974 74.9102 44.3893 75.0378 44.2539 75.1602C44.1211 75.2799 43.9622 75.3802 43.7773 75.4609C43.5951 75.5391 43.3893 75.5781 43.1602 75.5781C42.8737 75.5781 42.6224 75.5221 42.4062 75.4102C42.1927 75.2982 42.026 75.1484 41.9062 74.9609C41.7891 74.7708 41.7305 74.5586 41.7305 74.3242C41.7305 74.0977 41.7747 73.8984 41.8633 73.7266C41.9518 73.5521 42.0794 73.4076 42.2461 73.293C42.4128 73.1758 42.6133 73.0872 42.8477 73.0273C43.082 72.9674 43.3438 72.9375 43.6328 72.9375H44.4727ZM46.9297 71.9375V75.5H46.207V71.2734H46.9102L46.9297 71.9375ZM48.25 71.25L48.2461 71.9219C48.1862 71.9089 48.1289 71.901 48.0742 71.8984C48.0221 71.8932 47.9622 71.8906 47.8945 71.8906C47.7279 71.8906 47.5807 71.9167 47.4531 71.9688C47.3255 72.0208 47.2174 72.0938 47.1289 72.1875C47.0404 72.2812 46.9701 72.3932 46.918 72.5234C46.8685 72.651 46.8359 72.7917 46.8203 72.9453L46.6172 73.0625C46.6172 72.8073 46.6419 72.5677 46.6914 72.3438C46.7435 72.1198 46.8229 71.9219 46.9297 71.75C47.0365 71.5755 47.1719 71.4401 47.3359 71.3438C47.5026 71.2448 47.7005 71.1953 47.9297 71.1953C47.9818 71.1953 48.0417 71.2018 48.1094 71.2148C48.1771 71.2253 48.224 71.237 48.25 71.25ZM53.4883 74.5234V71.2734H54.2148V75.5H53.5234L53.4883 74.5234ZM53.625 73.6328L53.9258 73.625C53.9258 73.9062 53.8958 74.1667 53.8359 74.4062C53.7786 74.6432 53.6849 74.849 53.5547 75.0234C53.4245 75.1979 53.2539 75.3346 53.043 75.4336C52.832 75.5299 52.5755 75.5781 52.2734 75.5781C52.0677 75.5781 51.8789 75.5482 51.707 75.4883C51.5378 75.4284 51.3919 75.3359 51.2695 75.2109C51.1471 75.0859 51.0521 74.9232 50.9844 74.7227C50.9193 74.5221 50.8867 74.2812 50.8867 74V71.2734H51.6094V74.0078C51.6094 74.1979 51.6302 74.3555 51.6719 74.4805C51.7161 74.6029 51.7747 74.7005 51.8477 74.7734C51.9232 74.8438 52.0065 74.8932 52.0977 74.9219C52.1914 74.9505 52.2878 74.9648 52.3867 74.9648C52.694 74.9648 52.9375 74.9062 53.1172 74.7891C53.2969 74.6693 53.4258 74.5091 53.5039 74.3086C53.5846 74.1055 53.625 73.8802 53.625 73.6328ZM56.0352 72.1133V75.5H55.3086V71.2734H55.9961L56.0352 72.1133ZM55.8867 73.2266L55.5508 73.2148C55.5534 72.9258 55.5911 72.6589 55.6641 72.4141C55.737 72.1667 55.8451 71.9518 55.9883 71.7695C56.1315 71.5872 56.3099 71.4466 56.5234 71.3477C56.737 71.2461 56.9844 71.1953 57.2656 71.1953C57.4635 71.1953 57.6458 71.224 57.8125 71.2812C57.9792 71.3359 58.1237 71.4232 58.2461 71.543C58.3685 71.6628 58.4635 71.8164 58.5312 72.0039C58.599 72.1914 58.6328 72.418 58.6328 72.6836V75.5H57.9102V72.7188C57.9102 72.4974 57.8724 72.3203 57.7969 72.1875C57.724 72.0547 57.6198 71.9583 57.4844 71.8984C57.349 71.8359 57.1901 71.8047 57.0078 71.8047C56.7943 71.8047 56.6159 71.8424 56.4727 71.918C56.3294 71.9935 56.2148 72.0977 56.1289 72.2305C56.043 72.3633 55.9805 72.5156 55.9414 72.6875C55.9049 72.8568 55.8867 73.0365 55.8867 73.2266ZM58.625 72.8281L58.1406 72.9766C58.1432 72.7448 58.181 72.5221 58.2539 72.3086C58.3294 72.0951 58.4375 71.9049 58.5781 71.7383C58.7214 71.5716 58.8971 71.4401 59.1055 71.3438C59.3138 71.2448 59.5521 71.1953 59.8203 71.1953C60.0469 71.1953 60.2474 71.2253 60.4219 71.2852C60.599 71.3451 60.7474 71.4375 60.8672 71.5625C60.9896 71.6849 61.082 71.8424 61.1445 72.0352C61.207 72.2279 61.2383 72.457 61.2383 72.7227V75.5H60.5117V72.7148C60.5117 72.4779 60.474 72.2943 60.3984 72.1641C60.3255 72.0312 60.2214 71.9388 60.0859 71.8867C59.9531 71.832 59.7943 71.8047 59.6094 71.8047C59.4505 71.8047 59.3099 71.832 59.1875 71.8867C59.0651 71.9414 58.9622 72.0169 58.8789 72.1133C58.7956 72.207 58.7318 72.3151 58.6875 72.4375C58.6458 72.5599 58.625 72.6901 58.625 72.8281ZM64.8242 74.7773V72.6016C64.8242 72.4349 64.7904 72.2904 64.7227 72.168C64.6576 72.043 64.5586 71.9466 64.4258 71.8789C64.293 71.8112 64.1289 71.7773 63.9336 71.7773C63.7513 71.7773 63.5911 71.8086 63.4531 71.8711C63.3177 71.9336 63.2109 72.0156 63.1328 72.1172C63.0573 72.2188 63.0195 72.3281 63.0195 72.4453H62.2969C62.2969 72.2943 62.3359 72.1445 62.4141 71.9961C62.4922 71.8477 62.6042 71.7135 62.75 71.5938C62.8984 71.4714 63.0755 71.375 63.2812 71.3047C63.4896 71.2318 63.7214 71.1953 63.9766 71.1953C64.2839 71.1953 64.5547 71.2474 64.7891 71.3516C65.026 71.4557 65.2109 71.6133 65.3438 71.8242C65.4792 72.0326 65.5469 72.2943 65.5469 72.6094V74.5781C65.5469 74.7188 65.5586 74.8685 65.582 75.0273C65.6081 75.1862 65.6458 75.3229 65.6953 75.4375V75.5H64.9414C64.9049 75.4167 64.8763 75.306 64.8555 75.168C64.8346 75.0273 64.8242 74.8971 64.8242 74.7773ZM64.9492 72.9375L64.957 73.4453H64.2266C64.0208 73.4453 63.8372 73.4622 63.6758 73.4961C63.5143 73.5273 63.3789 73.5755 63.2695 73.6406C63.1602 73.7057 63.0768 73.7878 63.0195 73.8867C62.9622 73.9831 62.9336 74.0964 62.9336 74.2266C62.9336 74.3594 62.9635 74.4805 63.0234 74.5898C63.0833 74.6992 63.1732 74.7865 63.293 74.8516C63.4154 74.9141 63.5651 74.9453 63.7422 74.9453C63.9635 74.9453 64.1589 74.8984 64.3281 74.8047C64.4974 74.7109 64.6315 74.5964 64.7305 74.4609C64.832 74.3255 64.8867 74.194 64.8945 74.0664L65.2031 74.4141C65.1849 74.5234 65.1354 74.6445 65.0547 74.7773C64.974 74.9102 64.8659 75.0378 64.7305 75.1602C64.5977 75.2799 64.4388 75.3802 64.2539 75.4609C64.0716 75.5391 63.8659 75.5781 63.6367 75.5781C63.3503 75.5781 63.099 75.5221 62.8828 75.4102C62.6693 75.2982 62.5026 75.1484 62.3828 74.9609C62.2656 74.7708 62.207 74.5586 62.207 74.3242C62.207 74.0977 62.2513 73.8984 62.3398 73.7266C62.4284 73.5521 62.556 73.4076 62.7227 73.293C62.8893 73.1758 63.0898 73.0872 63.3242 73.0273C63.5586 72.9674 63.8203 72.9375 64.1094 72.9375H64.9492ZM69.7461 75.5H69.0234V70.8281C69.0234 70.5234 69.0781 70.2669 69.1875 70.0586C69.2995 69.8477 69.4596 69.6888 69.668 69.582C69.8763 69.4727 70.1237 69.418 70.4102 69.418C70.4935 69.418 70.5768 69.4232 70.6602 69.4336C70.7461 69.444 70.8294 69.4596 70.9102 69.4805L70.8711 70.0703C70.8164 70.0573 70.7539 70.0482 70.6836 70.043C70.6159 70.0378 70.5482 70.0352 70.4805 70.0352C70.3268 70.0352 70.194 70.0664 70.082 70.1289C69.9727 70.1888 69.8893 70.2773 69.832 70.3945C69.7747 70.5117 69.7461 70.6562 69.7461 70.8281V75.5ZM70.6445 71.2734V71.8281H68.3555V71.2734H70.6445ZM71.2578 73.4336V73.3438C71.2578 73.0391 71.3021 72.7565 71.3906 72.4961C71.4792 72.2331 71.6068 72.0052 71.7734 71.8125C71.9401 71.6172 72.1419 71.4661 72.3789 71.3594C72.6159 71.25 72.8815 71.1953 73.1758 71.1953C73.4727 71.1953 73.7396 71.25 73.9766 71.3594C74.2161 71.4661 74.4193 71.6172 74.5859 71.8125C74.7552 72.0052 74.8841 72.2331 74.9727 72.4961C75.0612 72.7565 75.1055 73.0391 75.1055 73.3438V73.4336C75.1055 73.7383 75.0612 74.0208 74.9727 74.2812C74.8841 74.5417 74.7552 74.7695 74.5859 74.9648C74.4193 75.1576 74.2174 75.3086 73.9805 75.418C73.7461 75.5247 73.4805 75.5781 73.1836 75.5781C72.8867 75.5781 72.6198 75.5247 72.3828 75.418C72.1458 75.3086 71.9427 75.1576 71.7734 74.9648C71.6068 74.7695 71.4792 74.5417 71.3906 74.2812C71.3021 74.0208 71.2578 73.7383 71.2578 73.4336ZM71.9805 73.3438V73.4336C71.9805 73.6445 72.0052 73.8438 72.0547 74.0312C72.1042 74.2161 72.1784 74.3802 72.2773 74.5234C72.3789 74.6667 72.5052 74.7799 72.6562 74.8633C72.8073 74.944 72.9831 74.9844 73.1836 74.9844C73.3815 74.9844 73.5547 74.944 73.7031 74.8633C73.8542 74.7799 73.9792 74.6667 74.0781 74.5234C74.1771 74.3802 74.2513 74.2161 74.3008 74.0312C74.3529 73.8438 74.3789 73.6445 74.3789 73.4336V73.3438C74.3789 73.1354 74.3529 72.9388 74.3008 72.7539C74.2513 72.5664 74.1758 72.401 74.0742 72.2578C73.9753 72.112 73.8503 71.9974 73.6992 71.9141C73.5508 71.8307 73.3763 71.7891 73.1758 71.7891C72.9779 71.7891 72.8034 71.8307 72.6523 71.9141C72.5039 71.9974 72.3789 72.112 72.2773 72.2578C72.1784 72.401 72.1042 72.5664 72.0547 72.7539C72.0052 72.9388 71.9805 73.1354 71.9805 73.3438ZM77.7812 71.2734V71.8281H75.4961V71.2734H77.7812ZM76.2695 70.2461H76.9922V74.4531C76.9922 74.5964 77.0143 74.7044 77.0586 74.7773C77.1029 74.8503 77.1602 74.8984 77.2305 74.9219C77.3008 74.9453 77.3763 74.957 77.457 74.957C77.5169 74.957 77.5794 74.9518 77.6445 74.9414C77.7122 74.9284 77.763 74.918 77.7969 74.9102L77.8008 75.5C77.7435 75.5182 77.668 75.5352 77.5742 75.5508C77.4831 75.569 77.3724 75.5781 77.2422 75.5781C77.0651 75.5781 76.9023 75.543 76.7539 75.4727C76.6055 75.4023 76.487 75.2852 76.3984 75.1211C76.3125 74.9544 76.2695 74.7305 76.2695 74.4492V70.2461ZM78.3594 73.4336V73.3438C78.3594 73.0391 78.4036 72.7565 78.4922 72.4961C78.5807 72.2331 78.7083 72.0052 78.875 71.8125C79.0417 71.6172 79.2435 71.4661 79.4805 71.3594C79.7174 71.25 79.9831 71.1953 80.2773 71.1953C80.5742 71.1953 80.8411 71.25 81.0781 71.3594C81.3177 71.4661 81.5208 71.6172 81.6875 71.8125C81.8568 72.0052 81.9857 72.2331 82.0742 72.4961C82.1628 72.7565 82.207 73.0391 82.207 73.3438V73.4336C82.207 73.7383 82.1628 74.0208 82.0742 74.2812C81.9857 74.5417 81.8568 74.7695 81.6875 74.9648C81.5208 75.1576 81.319 75.3086 81.082 75.418C80.8477 75.5247 80.582 75.5781 80.2852 75.5781C79.9883 75.5781 79.7214 75.5247 79.4844 75.418C79.2474 75.3086 79.0443 75.1576 78.875 74.9648C78.7083 74.7695 78.5807 74.5417 78.4922 74.2812C78.4036 74.0208 78.3594 73.7383 78.3594 73.4336ZM79.082 73.3438V73.4336C79.082 73.6445 79.1068 73.8438 79.1562 74.0312C79.2057 74.2161 79.2799 74.3802 79.3789 74.5234C79.4805 74.6667 79.6068 74.7799 79.7578 74.8633C79.9089 74.944 80.0846 74.9844 80.2852 74.9844C80.4831 74.9844 80.6562 74.944 80.8047 74.8633C80.9557 74.7799 81.0807 74.6667 81.1797 74.5234C81.2786 74.3802 81.3529 74.2161 81.4023 74.0312C81.4544 73.8438 81.4805 73.6445 81.4805 73.4336V73.3438C81.4805 73.1354 81.4544 72.9388 81.4023 72.7539C81.3529 72.5664 81.2773 72.401 81.1758 72.2578C81.0768 72.112 80.9518 71.9974 80.8008 71.9141C80.6523 71.8307 80.4779 71.7891 80.2773 71.7891C80.0794 71.7891 79.9049 71.8307 79.7539 71.9141C79.6055 71.9974 79.4805 72.112 79.3789 72.2578C79.2799 72.401 79.2057 72.5664 79.1562 72.7539C79.1068 72.9388 79.082 73.1354 79.082 73.3438ZM83.9727 69.8125L83.9219 73.8945H83.2695L83.2148 69.8125H83.9727ZM83.1914 75.1367C83.1914 75.0195 83.2266 74.9206 83.2969 74.8398C83.3698 74.7591 83.4766 74.7188 83.6172 74.7188C83.7552 74.7188 83.8607 74.7591 83.9336 74.8398C84.0091 74.9206 84.0469 75.0195 84.0469 75.1367C84.0469 75.2487 84.0091 75.3451 83.9336 75.4258C83.8607 75.5065 83.7552 75.5469 83.6172 75.5469C83.4766 75.5469 83.3698 75.5065 83.2969 75.4258C83.2266 75.3451 83.1914 75.2487 83.1914 75.1367Z" fill="#1E1E1E"/>
<rect x="0.5" y="0.5" width="99" height="99" rx="3.5" stroke="#1E1E1E" stroke-dasharray="10 10"/>
</svg>
