<svg width="19" height="19" viewBox="0 0 19 19" fill="none" xmlns="http://www.w3.org/2000/svg">
<path d="M11.7747 12.137L10.0533 16.8706C10.0112 16.9842 9.93527 17.0822 9.83579 17.1514C9.73632 17.2206 9.61806 17.2576 9.49689 17.2576C9.37573 17.2576 9.25746 17.2206 9.15799 17.1514C9.05851 17.0822 8.9826 16.9842 8.94043 16.8706L7.21912 12.137C7.18906 12.0554 7.14165 11.9813 7.08016 11.9198C7.01867 11.8584 6.94458 11.811 6.86299 11.7809L2.12938 10.0596C2.01578 10.0174 1.91782 9.94149 1.84863 9.84202C1.77945 9.74255 1.74237 9.62428 1.74237 9.50312C1.74237 9.38195 1.77945 9.26369 1.84863 9.16421C1.91782 9.06474 2.01578 8.98882 2.12938 8.94666L6.86299 7.22535C6.94458 7.19528 7.01867 7.14787 7.08016 7.08639C7.14165 7.0249 7.18906 6.9508 7.21912 6.86921L8.94043 2.1356C8.9826 2.02201 9.05851 1.92404 9.15799 1.85486C9.25746 1.78568 9.37573 1.7486 9.49689 1.7486C9.61806 1.7486 9.73632 1.78568 9.83579 1.85486C9.93527 1.92404 10.0112 2.02201 10.0533 2.1356L11.7747 6.86921C11.8047 6.9508 11.8521 7.0249 11.9136 7.08639C11.9751 7.14787 12.0492 7.19528 12.1308 7.22535L16.8644 8.94666C16.978 8.98882 17.076 9.06474 17.1451 9.16421C17.2143 9.26369 17.2514 9.38195 17.2514 9.50312C17.2514 9.62428 17.2143 9.74255 17.1451 9.84202C17.076 9.94149 16.978 10.0174 16.8644 10.0596L12.1308 11.7809C12.0492 11.811 11.9751 11.8584 11.9136 11.9198C11.8521 11.9813 11.8047 12.0554 11.7747 12.137V12.137Z" stroke="#FED253" stroke-width="1.18711" stroke-linecap="round" stroke-linejoin="round"/>
</svg>
