<svg width="40" height="40" viewBox="0 0 40 40" fill="none" xmlns="http://www.w3.org/2000/svg">
<g clip-path="url(#clip0_2_193)">
<path d="M8.26672 9.3698C8.26672 7.49526 9.407 5.80922 11.1468 5.11129C14.6687 3.69841 18.2858 6.92816 17.2791 10.587L17.1845 10.9308C16.6424 12.9013 14.8506 14.2667 12.807 14.2667C10.2995 14.2667 8.26672 12.2339 8.26672 9.72643V9.3698Z" fill="#C3C3E6"/>
<path d="M38.2 31.1333C38.2 33.7107 33.9106 36.8 31.3333 36.8C28.756 36.8 25.0667 33.7107 25.0667 31.1333C25.0667 28.556 27.156 26.4667 29.7333 26.4667C32.3106 26.4667 38.2 28.556 38.2 31.1333Z" fill="#C3C3E6"/>
<path d="M26.43 20.274L31.85 14.8541C32.7268 13.977 33.8341 13.3063 35.0516 12.9146C36.0343 12.5987 36.9429 12.0432 37.6795 11.3077C38.9484 10.0381 39.6316 8.35016 39.6031 6.55475C39.5747 4.75978 38.8367 3.09332 37.5254 1.86229L36.7356 1.1209L35.3002 5.72278C34.9834 6.73708 33.8999 7.30527 32.8854 6.98928C32.0754 6.73636 31.5311 5.99669 31.5311 5.14862C31.5311 4.95397 31.5606 4.76087 31.6189 4.57437L33.0464 0L31.9627 0.176003C30.7456 0.373634 29.6162 0.904902 28.6966 1.71271C27.0808 3.1344 26.2585 5.25694 26.4968 7.39033C26.755 9.70607 25.9299 12.0081 24.2328 13.706L22.0469 15.8912L18.0771 11.9214L19.2982 10.7003L16.8956 8.29768C18.1852 6.39811 21.0621 3.81 23.7317 2.62512L24.9398 2.08887L23.8 1.41961C20.4765 -0.532082 16.2189 0.0414445 13.446 2.81442C13.2179 3.04255 6.38027 9.88017 6.38027 9.88017L5.90519 10.3552L6.37547 10.8351C6.7882 11.2561 6.64006 12.1085 6.05197 12.6966C5.46387 13.2846 4.61136 13.4327 4.19058 13.0201L3.71071 12.5498L0.0454102 16.215L6.91434 23.084L10.5777 19.4207L10.1114 18.9409C9.70198 18.5196 9.85129 17.6684 10.4376 17.0821C11.0238 16.4958 11.8749 16.3465 12.2963 16.756L12.7761 17.2223L13.9244 16.0739L17.8942 20.0438L12.7919 25.1461C11.9159 26.0229 10.8091 26.6935 9.59131 27.0854C8.59393 27.406 7.70984 27.947 6.96366 28.6932C5.69462 29.9623 5.01124 31.6497 5.03947 33.4445C5.0678 35.2396 5.80574 36.9063 7.1174 38.1377L7.9072 38.8791L9.34309 34.2775C9.49602 33.7859 9.83147 33.3836 10.2876 33.1445C10.7437 32.9053 11.2654 32.8581 11.7572 33.0116C12.5674 33.264 13.1119 34.0029 13.1119 34.8503C13.1119 35.0429 13.0821 35.2367 13.0232 35.4256L11.5971 40L12.6806 39.8239C13.8981 39.626 15.0273 39.0947 15.9465 38.2872C17.5623 36.8655 18.3846 34.743 18.1463 32.6097C17.8881 30.2938 18.7133 27.9918 20.4105 26.2939L22.2776 24.4268L34.9434 37.0926C35.5159 37.6652 36.2677 37.9513 37.0197 37.9513C37.7716 37.9512 38.5236 37.665 39.0961 37.0926C40.2409 35.9478 40.2409 34.0849 39.0961 32.94L26.43 20.274ZM25.1927 14.6657C27.1831 12.6743 28.1501 9.96767 27.8458 7.23967C27.6565 5.54614 28.3097 3.86094 29.5927 2.73208C30.0268 2.35084 30.5204 2.04734 31.053 1.83116L30.3233 4.16979C30.2241 4.48714 30.1738 4.81643 30.1738 5.14862C30.1738 6.59375 31.101 7.85409 32.4814 8.2851C34.2101 8.82361 36.0562 7.85563 36.596 6.12718L37.3454 3.72476C37.9155 4.55908 38.2295 5.5408 38.246 6.57628C38.2687 8.00114 37.7266 9.34067 36.72 10.3476C36.1272 10.9396 35.4262 11.3685 34.6362 11.6224C33.2142 12.08 31.9189 12.8656 30.8902 13.8942L25.4703 19.3142L23.0069 16.8509L25.1927 14.6657ZM14.4057 3.77425C16.4179 1.76202 19.3535 1.12181 21.9123 2.03042C19.4833 3.41908 17.1733 5.58315 15.9244 7.32047L13.3919 4.78802C13.9644 4.21557 14.3544 3.82565 14.4057 3.77425ZM12.4322 5.74784L17.3787 10.7002L12.8677 15.2111L7.91824 10.2617C8.89245 9.28755 10.9041 7.27586 12.4322 5.74784ZM1.96498 16.215L3.71551 14.4645L8.66487 19.4139L6.91434 21.1645L1.96498 16.215ZM9.47783 16.1224C9.07407 16.526 8.79581 16.995 8.64596 17.4755L5.65897 14.4884C6.13902 14.3384 6.60776 14.0604 7.0118 13.6563C7.45891 13.2092 7.75119 12.6829 7.88647 12.1497L10.9849 15.2481C10.4512 15.3833 9.92458 15.6755 9.47783 16.1224ZM19.4503 25.3341C17.4599 27.3254 16.4928 30.0321 16.7971 32.7602C16.9864 34.4536 16.3332 36.1388 15.0501 37.2677C14.6161 37.6489 14.1225 37.9525 13.5897 38.1687L14.3191 35.8293C14.4187 35.5093 14.4692 35.1799 14.4692 34.8502C14.4692 33.4053 13.5415 32.1456 12.1612 31.7157C11.3236 31.4542 10.4343 31.5347 9.65719 31.9422C8.87969 32.3499 8.30798 33.0359 8.04718 33.8735L7.29775 36.2752C6.7272 35.4405 6.41302 34.4585 6.39664 33.4229C6.3742 31.9987 6.91642 30.6597 7.92348 29.6527C8.51565 29.0605 9.21659 28.6314 10.0068 28.3774C11.4293 27.9196 12.7243 27.1339 13.752 26.1055L18.8541 21.0034L21.3175 23.4668L19.4503 25.3341ZM38.1362 36.1327C37.5205 36.7484 36.5186 36.7484 35.903 36.1327L14.8843 15.114L17.1174 12.881L38.1361 33.8996C38.7517 34.5154 38.7517 35.5171 38.1362 36.1327Z" fill="#1E1E1E"/>
</g>
<defs>
<clipPath id="clip0_2_193">
<rect width="40" height="40" fill="white"/>
</clipPath>
</defs>
</svg>
