<svg width="581" height="474" viewBox="0 0 581 474" fill="none" xmlns="http://www.w3.org/2000/svg">
<path d="M569.301 444.496C514.956 529.926 416.452 397 315.301 392.496C206.185 387.639 116.184 503.576 37.8131 427.496C-34.2003 357.588 16.0632 268.476 37.8131 170.496C51.6305 108.251 45.3887 57.7925 94.8014 17.4964C176.709 -49.2992 247.171 108.003 352.557 99.9964C437.973 93.507 486.975 -33.5016 555.801 17.4964C628.451 71.3268 506.978 154.614 512.181 244.883C516.846 325.832 612.822 376.083 569.301 444.496Z" fill="#FED253"/>
<g filter="url(#filter0_d_525_1343)">
<path d="M263.212 432.079H276.448L282.745 381.025L263.21 381.026L263.212 432.079Z" fill="#FFA2A2"/>
<path d="M259.836 427.758L285.903 427.757H285.904C290.309 427.757 294.534 429.507 297.649 432.622C300.765 435.738 302.515 439.963 302.515 444.368V444.908L259.837 444.91L259.836 427.758Z" fill="#1E1E1E"/>
<path d="M191.547 432.079H204.783L211.079 381.025L191.545 381.026L191.547 432.079Z" fill="#FFA2A2"/>
<path d="M188.171 427.758L214.238 427.757H214.239C218.644 427.757 222.869 429.507 225.985 432.622C229.1 435.738 230.85 439.963 230.85 444.368V444.908L188.172 444.91L188.171 427.758Z" fill="#1E1E1E"/>
<path d="M186.154 200.692V335.49L189.567 422.512H217.721L227.106 258.707L245.875 326.106L257.82 420.805L291.945 419.099L268.911 200.692H186.154Z" fill="#1E1E1E"/>
<path d="M218.883 79.5444C230.191 79.5444 239.358 70.3771 239.358 59.0687C239.358 47.7603 230.191 38.5931 218.883 38.5931C207.574 38.5931 198.407 47.7603 198.407 59.0687C198.407 70.3771 207.574 79.5444 218.883 79.5444Z" fill="#FFA2A2"/>
<path d="M210.375 84.8787L204.923 90.6356L199.805 205.812L260.378 204.105L245.874 103.433L233.078 91.1694L226.584 84.8787H210.375Z" fill="#FED253"/>
<path d="M200.658 97.4607L205.256 89.9981L206.63 105.992C206.63 105.992 217.721 141.825 216.868 173.391C216.015 204.958 221.133 279.182 214.308 280.035C207.483 280.888 178.476 282.595 178.476 276.623C178.476 270.651 176.77 111.964 176.77 111.964L200.658 97.4607Z" fill="white"/>
<path d="M231.704 89.9981L243.315 99.1669L268.91 108.552C268.91 108.552 268.91 217.755 274.029 243.35C279.148 268.944 288.533 271.504 276.588 272.357C264.644 273.21 265.497 268.944 265.497 268.944C265.497 268.944 274.029 226.287 262.938 217.755C251.847 209.224 230.518 159.741 232.225 132.44C233.931 105.139 229.997 89.9981 231.704 89.9981Z" fill="white"/>
<path d="M199.512 65.4748C199.512 65.4748 201.251 62.4197 200.847 52.2134C200.442 42.0072 215.984 47.7797 228.971 46.8061C241.957 45.8325 239.208 63.8457 239.208 63.8457C239.208 63.8457 240.145 62.7749 242.151 54.0812C244.157 45.3875 239.603 36.7239 239.603 36.7239C238.261 27.5884 231.032 30.5163 231.032 30.5163C234.514 31.8716 233.845 34.7695 233.845 34.7695C230.898 29.6028 223.669 32.5307 223.669 32.5307C214.028 26.4805 204.256 34.4479 204.256 34.4479C192.609 37.0913 199.439 46.354 199.439 46.354C187.726 52.2734 199.512 65.4748 199.512 65.4748Z" fill="#1E1E1E"/>
<path d="M178.504 264.286C179.372 263.369 180.028 262.273 180.427 261.075C180.825 259.876 180.956 258.605 180.81 257.351C180.664 256.097 180.244 254.89 179.581 253.815C178.918 252.74 178.028 251.824 176.973 251.131L180.661 231.741L169.425 226.626L164.6 254.081C163.553 255.931 163.221 258.101 163.667 260.18C164.113 262.259 165.306 264.101 167.019 265.359C168.733 266.617 170.849 267.203 172.966 267.005C175.082 266.807 177.053 265.84 178.504 264.286V264.286Z" fill="#FFA2A2"/>
<path d="M181.035 111.964L178.77 110.75C178.77 110.75 166.532 115.377 167.385 118.789C168.238 122.202 160.56 241.643 163.119 245.909C165.679 250.175 186.154 246.762 186.154 246.762L181.035 111.964Z" fill="white"/>
<path d="M278.43 256.245C277.444 255.457 276.642 254.462 276.082 253.33C275.522 252.198 275.216 250.958 275.187 249.695C275.158 248.433 275.407 247.179 275.914 246.023C276.422 244.867 277.178 243.837 278.127 243.004L271.791 224.311L282.212 217.69L290.788 244.214C292.081 245.901 292.711 248.005 292.557 250.125C292.403 252.245 291.476 254.236 289.953 255.718C288.43 257.201 286.415 258.074 284.292 258.171C282.168 258.268 280.082 257.583 278.43 256.245V256.245Z" fill="#FFA2A2"/>
<path d="M268.429 239.948C268.429 239.948 289.18 240.495 291.125 235.916C293.069 231.337 268.939 114.107 269.311 110.609C269.684 107.111 256.923 104.222 256.923 104.222L254.848 105.738L268.429 239.948Z" fill="white"/>
<path d="M360.143 245.223L347.296 182.271L341.652 135.775L329.15 143.864L330.877 195.102L350.832 248.19C350.191 249.412 349.927 250.796 350.075 252.168C350.223 253.54 350.775 254.837 351.662 255.894C352.548 256.951 353.729 257.72 355.054 258.104C356.379 258.489 357.789 258.47 359.103 258.051C360.418 257.632 361.578 256.832 362.437 255.752C363.295 254.672 363.813 253.361 363.924 251.985C364.036 250.61 363.736 249.233 363.062 248.029C362.389 246.825 361.373 245.848 360.143 245.223H360.143Z" fill="#FFA2A2"/>
<path d="M239.985 250.09L243.541 185.94L242.363 139.117L258.892 145.302L261.652 196.247L249.628 251.672C250.44 252.787 250.902 254.119 250.956 255.498C251.009 256.876 250.651 258.24 249.928 259.414C249.204 260.589 248.148 261.522 246.893 262.095C245.638 262.668 244.24 262.854 242.879 262.631C241.517 262.408 240.253 261.785 239.247 260.841C238.24 259.897 237.537 258.675 237.227 257.331C236.917 255.987 237.014 254.58 237.505 253.291C237.996 252.002 238.859 250.887 239.985 250.09V250.09Z" fill="#FFA2A2"/>
<path d="M274.603 436.598H283.049L287.067 404.021L274.602 404.022L274.603 436.598Z" fill="#FFA2A2"/>
<path d="M272.449 433.841L289.081 433.84H289.082C291.893 433.84 294.589 434.957 296.577 436.945C298.565 438.933 299.682 441.629 299.682 444.44V444.784L272.449 444.785L272.449 433.841Z" fill="#1E1E1E"/>
<path d="M306.593 432.861L314.939 434.152L323.892 402.573L311.572 400.668L306.593 432.861Z" fill="#FFA2A2"/>
<path d="M304.885 429.807L321.322 432.349L321.323 432.349C324.101 432.779 326.595 434.295 328.255 436.563C329.916 438.832 330.607 441.667 330.178 444.445L330.125 444.785L303.212 440.622L304.885 429.807Z" fill="#1E1E1E"/>
<path d="M272.122 426.872L272.078 426.636L241.503 261.325C239.076 248.054 241.012 234.354 247.021 222.275L265.527 185.264L320.747 192.745L327.264 239.866L350.488 329.758L350.465 329.831L320.71 424.346L301.209 425.629L318.483 341.261L286.854 269.42L289.084 425.587L272.122 426.872Z" fill="#1E1E1E"/>
<path d="M322.032 198.775L321.668 198.204C321.603 198.101 314.895 187.995 296.642 194.743C278.009 201.632 263.571 188.326 263.428 188.191L263.356 188.123L259.136 150.512L254.155 119.979L270.012 117.197L277.808 112.52L308.809 111.968L316.967 118.384L330.361 119.844L331.587 147.665L331.581 147.695L322.032 198.775Z" fill="#C3C3E6"/>
<path d="M326.476 150.356V126.534L330.242 119.66L330.395 119.655C333.36 119.766 336.163 121.039 338.196 123.2C341.984 127.049 343.701 133.462 343.297 142.26L343.289 142.421L326.476 150.356Z" fill="#C3C3E6"/>
<path d="M260.828 147.767L241.631 145.463L241.616 145.242C240.961 135.669 242.632 128.563 246.582 124.122C248.565 121.746 251.377 120.215 254.448 119.838L254.559 119.833L259.756 124.557L260.828 147.767Z" fill="#C3C3E6"/>
<path d="M316.398 102.369H265.884C264.845 102.368 263.849 101.955 263.114 101.22C262.379 100.485 261.966 99.4889 261.965 98.4498V80.1602C261.958 76.3246 262.708 72.5253 264.172 68.9799C265.635 65.4344 267.783 62.2122 270.493 59.4978C273.203 56.7833 276.421 54.6298 279.964 53.1605C283.508 51.6912 287.305 50.9349 291.141 50.9349C294.977 50.9349 298.775 51.6912 302.318 53.1605C305.861 54.6298 309.079 56.7833 311.789 59.4978C314.499 62.2122 316.647 65.4344 318.111 68.9799C319.574 72.5253 320.324 76.3246 320.317 80.1602V98.4498C320.316 99.4889 319.903 100.485 319.168 101.22C318.433 101.955 317.437 102.368 316.398 102.369V102.369Z" fill="#1E1E1E"/>
<path d="M292.314 102.189C304.128 102.189 313.705 92.612 313.705 80.7981C313.705 68.9841 304.128 59.407 292.314 59.407C280.5 59.407 270.922 68.9841 270.922 80.7981C270.922 92.612 280.5 102.189 292.314 102.189Z" fill="#FFA2A2"/>
<path d="M312.646 81.4666H284.405C283.874 81.4659 283.362 81.2718 282.964 80.9206C282.567 80.5694 282.311 80.0853 282.244 79.5589L281.878 76.6339C281.843 76.3527 281.718 76.0905 281.521 75.8869C281.323 75.6833 281.065 75.5493 280.785 75.5053C280.505 75.4612 280.219 75.5094 279.968 75.6426C279.718 75.7757 279.518 75.9867 279.398 76.2435L277.547 80.2104C277.371 80.5851 277.092 80.9022 276.743 81.1246C276.393 81.347 275.988 81.4656 275.574 81.4666H271.284C270.981 81.4667 270.68 81.4033 270.403 81.2806C270.125 81.1578 269.877 80.9784 269.673 80.7538C269.468 80.5293 269.314 80.2645 269.218 79.9765C269.122 79.6886 269.088 79.3838 269.117 79.0817L270.808 61.4138C270.844 61.0358 270.978 60.6737 271.196 60.3629C271.414 60.052 271.709 59.8031 272.052 59.6405C284.986 53.6026 298.102 53.6103 311.035 59.6634C311.363 59.8176 311.648 60.0512 311.863 60.343C312.078 60.6349 312.217 60.9757 312.267 61.3348L314.801 78.9797C314.846 79.2886 314.823 79.6035 314.735 79.903C314.647 80.2025 314.496 80.4796 314.292 80.7155C314.087 80.9514 313.835 81.1405 313.551 81.2701C313.267 81.3997 312.958 81.4667 312.646 81.4666H312.646Z" fill="#1E1E1E"/>
<path d="M324.266 247.223C325.343 246.842 326.323 246.23 327.137 245.429C327.952 244.628 328.581 243.658 328.98 242.588C329.379 241.518 329.539 240.373 329.447 239.235C329.356 238.096 329.017 236.991 328.452 235.998L346.761 215.126L332.469 213.155L317.274 233.277C315.668 234.336 314.507 235.947 314.009 237.804C313.512 239.662 313.714 241.637 314.575 243.356C315.437 245.075 316.9 246.418 318.686 247.131C320.472 247.844 322.458 247.877 324.266 247.223V247.223Z" fill="#A0616A"/>
<path d="M346.347 432.201L333.577 432.2L327.502 382.946L346.35 382.947L346.347 432.201Z" fill="#A0616A"/>
<path d="M349.604 444.579L308.429 444.578V444.057C308.429 439.806 310.118 435.73 313.124 432.725C316.129 429.72 320.205 428.031 324.455 428.031H324.456L349.605 428.032L349.604 444.579Z" fill="#1E1E1E"/>
<path d="M413.192 421.515L400.996 425.301L380.589 380.063L398.589 374.476L413.192 421.515Z" fill="#A0616A"/>
<path d="M419.973 432.371L380.65 444.579L380.495 444.082C379.235 440.023 379.639 435.629 381.618 431.867C383.597 428.106 386.989 425.285 391.048 424.024L391.049 424.024L415.066 416.567L419.973 432.371Z" fill="#1E1E1E"/>
<path d="M336.568 205.119L317.656 226.778L332.462 228.11L336.568 205.119Z" fill="white"/>
<path d="M329.179 233.037C329.179 233.037 322.61 236.321 321.788 251.102C320.967 265.883 324.252 304.479 324.252 304.479C324.252 304.479 320.968 321.722 324.252 337.324C327.536 352.925 320.968 409.581 325.073 409.581C329.179 409.581 350.528 412.044 351.349 409.581C352.17 407.117 352.992 370.166 352.992 370.166C352.992 370.166 359.561 351.28 352.992 339.787C352.992 339.787 375.928 379.838 390.763 410.404C394.01 417.094 418.682 409.583 414.576 402.193C410.471 394.802 400.617 361.136 400.617 361.136C400.617 361.136 393.227 336.502 380.089 325.827L386.659 273.275C386.659 273.275 400.618 237.966 392.408 233.039C384.198 228.113 329.179 233.037 329.179 233.037Z" fill="#1E1E1E"/>
<path d="M353.812 99.1916C365.603 99.1916 375.161 89.6333 375.161 77.8425C375.161 66.0516 365.603 56.4933 353.812 56.4933C342.021 56.4933 332.463 66.0516 332.463 77.8425C332.463 89.6333 342.021 99.1916 353.812 99.1916Z" fill="#A0616A"/>
<path d="M377.625 100.834L351.084 116.435C351.084 116.435 340.922 122.158 337.125 132.037C333.079 142.564 335.431 157.387 337.125 160.776C340.41 167.345 335.748 183.768 335.748 183.768L331.642 221.54C331.642 221.54 316.862 235.498 328.358 237.141C339.854 238.783 360.382 236.32 372.699 237.141C385.016 237.962 398.975 239.605 394.869 231.391C390.764 223.178 385.837 217.432 390.764 201.012C394.619 188.162 394.452 140.112 394.197 119.821C394.162 117.034 393.415 114.303 392.026 111.886C390.638 109.47 388.654 107.45 386.264 106.016L377.625 100.834Z" fill="white"/>
<path opacity="0.1" d="M365.722 126.701L368.185 176.789L344.312 225.134L340.263 223.593L364.897 178.431L365.722 126.701Z" fill="#1E1E1E"/>
<path opacity="0.1" d="M392.816 187.463V181.714L364.901 227.698L392.816 187.463Z" fill="#1E1E1E"/>
<path d="M338.66 58.0651L335.133 56.6541C335.133 56.6541 342.514 48.5295 352.78 49.2357L349.892 46.0564C349.892 46.0564 356.951 43.2307 363.368 50.6482C366.742 54.5478 370.645 59.1318 373.08 64.2947H376.86L375.283 67.7685L380.804 71.2422L375.137 70.6207C375.674 73.6196 375.49 76.7031 374.601 79.6171L374.756 82.3628C374.756 82.3628 368.184 72.1932 368.184 70.7823V74.3151C368.184 74.3151 364.654 71.1358 364.654 69.0162L362.729 71.4893L361.766 67.6045L349.894 71.4893L351.818 68.3084L344.437 69.3682L347.325 65.4835C347.325 65.4835 338.983 70.0753 338.662 73.9616C338.341 77.8479 334.17 82.7924 334.17 82.7924L332.245 79.2596C332.245 79.2596 329.358 63.3639 338.66 58.0651Z" fill="#1E1E1E"/>
<path d="M352.472 249.547C353.464 248.981 354.32 248.204 354.979 247.271C355.638 246.338 356.085 245.273 356.288 244.148C356.491 243.024 356.445 241.87 356.153 240.765C355.861 239.661 355.331 238.634 354.599 237.757L368.913 213.967L354.497 214.563L343.115 237.063C341.723 238.39 340.866 240.181 340.706 242.098C340.546 244.014 341.095 245.923 342.249 247.461C343.402 249 345.08 250.062 346.964 250.447C348.848 250.831 350.808 250.511 352.472 249.547V249.547Z" fill="#A0616A"/>
<path d="M385.016 111.51L391.174 110.279C391.174 110.279 409.649 123.827 403.901 150.924C398.154 178.021 372.699 219.078 372.699 219.078C372.699 219.078 366.95 226.469 365.309 228.11C363.668 229.752 360.382 228.11 362.024 230.574C363.667 233.038 359.561 234.679 359.561 234.679C359.561 234.679 341.496 234.679 343.138 228.11C344.781 221.541 372.699 174.733 372.699 174.733L368.594 131.214C368.594 131.214 365.308 109.868 385.016 111.51Z" fill="white"/>
</g>
<defs>
<filter id="filter0_d_525_1343" x="158.594" y="30.0696" width="265.379" height="422.84" filterUnits="userSpaceOnUse" color-interpolation-filters="sRGB">
<feFlood flood-opacity="0" result="BackgroundImageFix"/>
<feColorMatrix in="SourceAlpha" type="matrix" values="0 0 0 0 0 0 0 0 0 0 0 0 0 0 0 0 0 0 1 0" result="hardAlpha"/>
<feOffset dy="4"/>
<feGaussianBlur stdDeviation="2"/>
<feComposite in2="hardAlpha" operator="out"/>
<feColorMatrix type="matrix" values="0 0 0 0 0 0 0 0 0 0 0 0 0 0 0 0 0 0 0.25 0"/>
<feBlend mode="normal" in2="BackgroundImageFix" result="effect1_dropShadow_525_1343"/>
<feBlend mode="normal" in="SourceGraphic" in2="effect1_dropShadow_525_1343" result="shape"/>
</filter>
</defs>
</svg>
