<svg width="581" height="474" viewBox="0 0 581 474" fill="none" xmlns="http://www.w3.org/2000/svg">
<path d="M569.302 444.496C514.956 529.926 416.452 397 315.302 392.496C206.185 387.639 116.184 503.576 37.8134 427.496C-34.2 357.588 16.0634 268.476 37.8134 170.496C51.6308 108.251 45.389 57.7925 94.8016 17.4964C176.709 -49.2992 247.171 108.003 352.557 99.9964C437.973 93.507 486.975 -33.5016 555.802 17.4964C628.451 71.3268 506.978 154.614 512.181 244.883C516.846 325.832 612.822 376.083 569.302 444.496Z" fill="#FED253"/>
<g filter="url(#filter0_d_525_1232)">
<path d="M292.511 162.086H278.375C277.921 162.087 277.484 161.919 277.148 161.614C276.812 161.31 276.602 160.89 276.559 160.439L273.73 131.437H297.156L294.326 160.438C294.284 160.89 294.074 161.309 293.738 161.614C293.402 161.919 292.964 162.087 292.511 162.086V162.086Z" fill="#989898"/>
<path d="M297.119 135.086H273.767C273.284 135.085 272.82 134.893 272.478 134.551C272.136 134.209 271.943 133.745 271.943 133.261V128.883C271.943 128.399 272.136 127.936 272.478 127.594C272.82 127.252 273.284 127.059 273.767 127.059H297.119C297.602 127.059 298.066 127.252 298.408 127.594C298.75 127.936 298.942 128.399 298.943 128.883V133.261C298.942 133.745 298.75 134.209 298.408 134.551C298.066 134.893 297.602 135.085 297.119 135.086V135.086Z" fill="white"/>
<path d="M213.343 130.93H157.343V113.93C175.039 101.616 190.718 102.686 211.343 114.93L213.343 130.93Z" fill="#FED253"/>
<path d="M144.376 432.887L132.116 432.886L130.283 385.598L144.378 385.599L144.376 432.887Z" fill="#FFB8B8"/>
<path d="M147.502 444.771L107.971 444.77V444.27C107.971 442.249 108.369 440.248 109.143 438.381C109.916 436.515 111.049 434.818 112.478 433.39C113.907 431.961 115.603 430.828 117.47 430.054C119.337 429.281 121.337 428.883 123.358 428.883H123.359L147.503 428.884L147.502 444.771Z" fill="#1E1E1E"/>
<path d="M213.429 432.887L225.689 432.886L227.522 385.598L213.427 385.599L213.429 432.887Z" fill="#FFB8B8"/>
<path d="M210.302 428.884L234.446 428.883H234.447C236.467 428.883 238.468 429.281 240.335 430.054C242.202 430.828 243.898 431.961 245.327 433.39C246.756 434.818 247.889 436.515 248.662 438.381C249.435 440.248 249.833 442.249 249.833 444.27V444.77L210.303 444.771L210.302 428.884Z" fill="#1E1E1E"/>
<path d="M213.751 426.826C212.728 426.823 211.737 426.473 210.939 425.833C210.14 425.193 209.583 424.302 209.357 423.304L178.971 290.765C178.904 290.428 178.721 290.126 178.453 289.911C178.185 289.696 177.85 289.583 177.507 289.591H177.499C177.154 289.585 176.819 289.701 176.551 289.918C176.284 290.136 176.103 290.441 176.039 290.78L148.134 422.425C147.917 423.432 147.362 424.335 146.561 424.983C145.76 425.632 144.762 425.988 143.732 425.991H130.439C129.826 425.991 129.219 425.866 128.656 425.623C128.093 425.38 127.585 425.024 127.165 424.578C126.744 424.132 126.419 423.604 126.21 423.028C126 422.451 125.911 421.838 125.947 421.226L135.848 254.37L139.832 253.192L139.907 253.193L218.165 253.877L234.832 420.549C234.891 421.144 234.83 421.744 234.654 422.314C234.477 422.885 234.189 423.415 233.806 423.873C233.423 424.331 232.952 424.709 232.422 424.983C231.891 425.257 231.311 425.423 230.716 425.471L214.112 426.812C213.991 426.822 213.871 426.826 213.751 426.826Z" fill="#1E1E1E"/>
<path d="M181.434 100.462C194.999 100.462 205.995 89.4659 205.995 75.9012C205.995 62.3366 194.999 51.3402 181.434 51.3402C167.869 51.3402 156.873 62.3366 156.873 75.9012C156.873 89.4659 167.869 100.462 181.434 100.462Z" fill="#FFB8B8"/>
<path d="M166.388 272.664C162.079 272.718 157.787 272.114 153.66 270.873C149.99 269.766 146.585 267.92 143.654 265.448C140.724 262.976 138.331 259.93 136.622 256.498C136.081 255.466 135.96 254.263 136.287 253.144C138.996 243.899 152.086 195.843 143.734 157.641C142.555 152.334 142.457 146.844 143.446 141.498C144.435 136.153 146.49 131.061 149.489 126.527C152.418 122.028 156.224 118.166 160.678 115.169C165.133 112.173 170.145 110.105 175.416 109.088L175.416 109.087C176.801 108.817 178.194 108.595 179.555 108.427C185.382 107.71 191.295 108.289 196.872 110.124C202.448 111.959 207.551 115.004 211.813 119.04C216.202 123.156 219.627 128.192 221.843 133.786C224.058 139.381 225.01 145.396 224.629 151.401L218.21 254.405C218.166 255.177 217.921 255.924 217.501 256.573C217.08 257.223 216.498 257.751 215.812 258.108C208.419 261.982 186.212 272.664 166.388 272.664Z" fill="#1E1E1E"/>
<path d="M209.18 57.8221C206.629 51.4102 201.956 46.0673 195.94 42.6852C189.925 39.3032 182.932 38.0865 176.128 39.2384L183.872 45.4962C174.25 45.8202 164.122 45.1313 157.252 51.8756C159.439 51.8149 162.306 56.4929 164.493 56.4322C160.404 56.5131 156.696 59.3861 154.89 63.0554C153.217 66.8252 152.826 71.0392 153.776 75.0525C154.584 79.0617 160.744 88.4541 162.402 92.1926C162.117 82.4225 181.352 59.1182 190.744 61.5503C185.972 63.3208 181.831 66.4647 178.844 70.5856C185.234 67.3608 192.46 66.1783 199.545 67.1985C201.162 67.5694 202.831 67.6628 204.48 67.4747C205.49 67.2749 206.433 66.8192 207.217 66.1513C208.001 65.4834 208.601 64.6256 208.959 63.6598C209.318 62.694 209.422 61.6525 209.263 60.6347C209.105 59.6169 208.687 58.6569 208.052 57.8462L209.18 57.8221Z" fill="#1E1E1E"/>
<path d="M164.696 266.479C164.075 266.478 163.462 266.348 162.894 266.099L116.293 245.759C115.303 245.334 114.5 244.567 114.031 243.597C113.562 242.628 113.459 241.521 113.74 240.482L144.59 123.943C145.164 121.774 146.164 119.742 147.532 117.965C148.901 116.188 150.61 114.701 152.56 113.593C154.51 112.484 156.662 111.776 158.889 111.509C161.116 111.243 163.374 111.423 165.531 112.039L177.866 115.56L169.182 262.24C169.138 262.964 168.919 263.666 168.546 264.288C168.172 264.909 167.654 265.431 167.036 265.81C166.333 266.246 165.523 266.477 164.696 266.479V266.479Z" fill="#FED253"/>
<path d="M250.943 240.48L248.893 232.75L245.923 221.51L244.493 216.12L241.523 204.91L220.093 123.94C219.522 121.771 218.522 119.738 217.154 117.96C215.786 116.182 214.077 114.695 212.126 113.586C210.176 112.478 208.023 111.77 205.796 111.505C203.568 111.239 201.31 111.421 199.153 112.04L186.823 115.56L192.933 218.73L193.563 229.5L193.963 236.29V236.3L194.603 247.01L195.503 262.24C195.577 263.384 196.081 264.457 196.914 265.244C197.747 266.031 198.847 266.472 199.993 266.48C200.613 266.477 201.225 266.347 201.793 266.1L248.393 245.76C249.384 245.336 250.187 244.568 250.656 243.597C251.125 242.627 251.227 241.52 250.943 240.48V240.48Z" fill="#FED253"/>
<path d="M244.493 216.12L193.564 229.5L192.933 218.73L241.524 204.91L244.493 216.12Z" fill="white"/>
<path d="M248.893 232.751L194.603 247.01L193.964 236.3V236.29L245.924 221.51L248.893 232.751Z" fill="white"/>
<path d="M171.124 221.05L170.493 231.62L120.544 216.74L123.473 205.68L171.124 221.05Z" fill="white"/>
<path d="M170.083 238.58L119.113 222.13L116.183 233.22L169.463 249.09L170.083 238.58Z" fill="white"/>
<path d="M120.002 249.634C121.521 249.238 122.936 248.513 124.145 247.511C125.354 246.508 126.329 245.253 127 243.833C127.672 242.414 128.024 240.864 128.032 239.294C128.039 237.723 127.703 236.17 127.045 234.744L151.007 159.518L134.016 155.959L112.047 229.713C109.724 230.976 107.945 233.047 107.047 235.534C106.15 238.021 106.195 240.751 107.176 243.207C108.156 245.662 110.004 247.673 112.368 248.858C114.731 250.042 117.448 250.319 120.002 249.634V249.634Z" fill="#FFB8B8"/>
<path d="M151.673 122.536C156.552 123.034 159.296 128.52 158.083 135.35L152.262 168.129C151.825 170.586 149.803 172.531 148.122 172.111L128.432 167.189C126.917 166.81 126.359 164.658 127.217 162.504L139.038 132.85C141.605 126.411 146.942 122.054 151.673 122.536Z" fill="#1E1E1E"/>
<path d="M181.343 29.9304C189.656 29.9313 197.642 33.1675 203.61 38.9537C209.578 44.7399 213.06 52.6219 213.318 60.9304H219.343C219.874 60.9304 220.382 61.1412 220.758 61.5162C221.133 61.8913 221.343 62.4 221.343 62.9304V70.9304C221.343 71.4608 221.133 71.9695 220.758 72.3446C220.382 72.7197 219.874 72.9304 219.343 72.9304H151.343C150.813 72.9304 150.304 72.7197 149.929 72.3446C149.554 71.9695 149.343 71.4608 149.343 70.9304V61.9304C149.343 57.7281 150.171 53.5669 151.779 49.6845C153.387 45.8021 155.744 42.2744 158.716 39.3029C161.687 36.3315 165.215 33.9743 169.097 32.3662C172.98 30.7581 177.141 29.9304 181.343 29.9304Z" fill="white"/>
<path d="M185.167 227.735H171.031C170.578 227.737 170.14 227.569 169.804 227.264C169.468 226.959 169.258 226.54 169.216 226.088L166.386 197.087H189.812L186.983 226.088C186.94 226.54 186.73 226.959 186.394 227.264C186.058 227.569 185.621 227.737 185.167 227.735V227.735Z" fill="#989898"/>
<path d="M189.775 200.735H166.424C165.94 200.735 165.476 200.542 165.134 200.2C164.792 199.858 164.6 199.395 164.599 198.911V194.533C164.6 194.049 164.792 193.585 165.134 193.243C165.476 192.901 165.94 192.709 166.424 192.708H189.775C190.259 192.709 190.722 192.901 191.064 193.243C191.406 193.585 191.599 194.049 191.599 194.533V198.911C191.599 199.395 191.406 199.858 191.064 200.2C190.722 200.542 190.259 200.735 189.775 200.735V200.735Z" fill="white"/>
<path d="M178.403 212.182C178.952 212.245 179.496 212.352 180.029 212.501L217.675 180.217L215.475 168.372L232.917 162.714L238.851 183.305C239.33 184.969 239.257 186.743 238.642 188.361C238.027 189.98 236.904 191.355 235.441 192.281L187.764 222.451C187.798 224.582 187.182 226.674 185.998 228.446C184.814 230.219 183.119 231.59 181.138 232.375C179.156 233.161 176.982 233.325 174.905 232.845C172.828 232.365 170.947 231.265 169.511 229.689C168.075 228.114 167.152 226.139 166.866 224.026C166.58 221.914 166.944 219.765 167.909 217.864C168.874 215.964 170.395 214.402 172.27 213.387C174.144 212.372 176.283 211.952 178.403 212.182V212.182Z" fill="#FFB8B8"/>
<path d="M217.773 125.244C222.985 123.785 228.192 127.751 229.937 134.509L238.31 166.94C238.938 169.371 237.719 171.954 235.815 172.228L213.508 175.437C211.792 175.683 210.279 173.923 210.216 171.605L209.35 139.692C209.162 132.761 212.72 126.658 217.773 125.244Z" fill="#1E1E1E"/>
<path d="M431.388 332.401C421.117 318.739 412.998 303.587 407.312 287.469C406.983 286.505 407.007 285.455 407.379 284.507C407.751 283.558 408.447 282.772 409.344 282.289L444.49 263.458C445.058 263.151 445.689 262.978 446.335 262.951C446.98 262.925 447.624 263.047 448.215 263.307C448.818 263.568 449.353 263.964 449.779 264.464C450.206 264.964 450.512 265.554 450.676 266.191C454.767 281.722 462.456 296.073 473.122 308.081C473.561 308.57 473.883 309.153 474.063 309.785C474.243 310.416 474.276 311.081 474.16 311.728C474.049 312.364 473.794 312.967 473.414 313.49C473.035 314.013 472.541 314.443 471.971 314.746L436.826 333.578C435.927 334.057 434.887 334.202 433.891 333.986C432.895 333.771 432.008 333.209 431.388 332.401V332.401Z" fill="white"/>
<path d="M433.786 330.598C433.975 330.834 434.241 330.997 434.537 331.058C434.833 331.119 435.141 331.075 435.408 330.933L470.554 312.101C470.724 312.012 470.872 311.885 470.985 311.729C471.099 311.574 471.174 311.394 471.206 311.204C471.243 311.004 471.233 310.798 471.176 310.602C471.12 310.406 471.019 310.227 470.881 310.076C459.901 297.714 451.985 282.941 447.774 266.951C447.726 266.754 447.632 266.57 447.5 266.415C447.369 266.26 447.203 266.137 447.016 266.056C446.84 265.978 446.648 265.941 446.456 265.949C446.263 265.957 446.075 266.009 445.906 266.102L410.761 284.934C410.495 285.078 410.287 285.31 410.174 285.591C410.061 285.871 410.05 286.183 410.142 286.471C415.726 302.3 423.7 317.182 433.786 330.598V330.598Z" fill="white"/>
<path d="M446.797 290.332L427.655 298.782C426.927 299.102 426.102 299.121 425.36 298.833C424.619 298.546 424.021 297.976 423.699 297.249L423.226 296.176C422.905 295.448 422.887 294.623 423.174 293.881C423.462 293.14 424.032 292.542 424.759 292.22L443.9 283.771C444.628 283.45 445.454 283.432 446.195 283.719C446.937 284.007 447.534 284.577 447.856 285.304L448.33 286.376C448.65 287.104 448.669 287.93 448.381 288.671C448.094 289.413 447.524 290.01 446.797 290.332V290.332Z" fill="white"/>
<path d="M453.797 303.332L434.655 311.782C433.927 312.102 433.102 312.121 432.36 311.833C431.619 311.546 431.021 310.976 430.699 310.249L430.226 309.176C429.905 308.448 429.887 307.623 430.174 306.881C430.462 306.14 431.032 305.542 431.759 305.22L450.9 296.771C451.628 296.45 452.454 296.432 453.195 296.719C453.937 297.007 454.534 297.577 454.856 298.304L455.33 299.376C455.65 300.104 455.669 300.93 455.381 301.671C455.094 302.413 454.524 303.01 453.797 303.332V303.332Z" fill="white"/>
<path d="M408.904 292.5C407.583 291.65 406.464 290.521 405.627 289.193C404.789 287.864 404.254 286.368 404.057 284.81C403.86 283.252 404.008 281.669 404.489 280.174C404.97 278.679 405.773 277.308 406.841 276.157L398.769 161.599L422.022 163.854L422.661 276.041C424.475 277.964 425.522 280.486 425.601 283.129C425.681 285.772 424.788 288.352 423.093 290.381C421.397 292.41 419.016 293.746 416.401 294.137C413.786 294.527 411.118 293.945 408.904 292.5L408.904 292.5Z" fill="#A0616A"/>
<path d="M404.033 200.092C403.488 199.701 403.038 199.192 402.717 198.603C402.395 198.015 402.209 197.361 402.174 196.691L400.47 165.815C400.301 162.756 401.271 159.743 403.193 157.357C405.114 154.971 407.851 153.38 410.876 152.893C413.9 152.405 416.998 153.054 419.572 154.715C422.147 156.376 424.015 158.932 424.816 161.889L432.301 189.493C432.612 190.645 432.453 191.873 431.86 192.908C431.266 193.943 430.287 194.701 429.135 195.014L407.845 200.787C407.198 200.964 406.52 200.993 405.86 200.873C405.2 200.752 404.576 200.486 404.033 200.092V200.092Z" fill="#1E1E1E"/>
<path d="M364.401 433.339H352.141L346.309 386.051H364.403L364.401 433.339Z" fill="#A0616A"/>
<path d="M343.384 429.835H367.028V444.722H328.497C328.497 442.767 328.882 440.831 329.63 439.025C330.378 437.219 331.475 435.578 332.857 434.195C334.24 432.813 335.881 431.716 337.687 430.968C339.493 430.22 341.429 429.835 343.384 429.835V429.835Z" fill="#1E1E1E"/>
<path d="M410.401 433.339H398.141L392.309 386.051H410.403L410.401 433.339Z" fill="#A0616A"/>
<path d="M389.384 429.835H413.028V444.722H374.497C374.497 442.767 374.882 440.831 375.63 439.025C376.378 437.219 377.475 435.578 378.857 434.195C380.24 432.813 381.881 431.716 383.687 430.968C385.493 430.22 387.429 429.835 389.384 429.835Z" fill="#1E1E1E"/>
<path d="M363.822 409.516L350.325 408.872C349.176 408.818 348.091 408.325 347.293 407.494C346.496 406.664 346.047 405.56 346.039 404.409C342.481 349.49 337.554 290.602 345.098 267.853C345.093 267.204 345.229 266.563 345.495 265.972C345.762 265.381 346.153 264.855 346.641 264.429C347.13 264.003 347.705 263.687 348.327 263.504C348.948 263.321 349.603 263.274 350.244 263.367L404.238 271.205C405.305 271.355 406.282 271.884 406.99 272.696C407.698 273.508 408.089 274.548 408.091 275.625C414.985 302.562 415.296 351.407 415.036 402.159C415.04 402.753 414.927 403.342 414.703 403.892C414.479 404.442 414.148 404.942 413.73 405.363C413.311 405.785 412.814 406.119 412.266 406.348C411.717 406.576 411.129 406.693 410.536 406.693H395.986C394.912 406.698 393.873 406.316 393.057 405.619C392.241 404.921 391.703 403.954 391.54 402.893L382.563 345.825C382.432 344.99 382.003 344.231 381.356 343.688C380.708 343.144 379.886 342.854 379.041 342.869C378.196 342.885 377.385 343.206 376.758 343.772C376.131 344.339 375.731 345.114 375.63 345.953L368.504 405.556C368.37 406.648 367.842 407.653 367.019 408.383C366.196 409.113 365.135 409.518 364.035 409.522C363.965 409.522 363.893 409.52 363.822 409.516Z" fill="#1E1E1E"/>
<path d="M373.323 275.631C361.423 269.02 352.126 267.282 347.643 266.835C347.047 266.778 346.469 266.6 345.944 266.312C345.419 266.025 344.958 265.633 344.589 265.162C344.212 264.688 343.935 264.142 343.775 263.557C343.615 262.973 343.575 262.361 343.658 261.761L356.596 165.71C357.34 160.091 359.511 154.756 362.9 150.212C366.29 145.669 370.785 142.068 375.959 139.753C380.968 137.451 386.482 136.468 391.977 136.899C397.472 137.33 402.766 139.16 407.355 142.214C407.798 142.509 408.233 142.81 408.66 143.117C413.944 146.989 417.964 152.338 420.212 158.491C422.461 164.643 422.838 171.324 421.296 177.691C413.363 210.146 410.638 263.353 410.172 273.69C410.135 274.571 409.839 275.421 409.319 276.134C408.8 276.847 408.081 277.39 407.254 277.695C402.373 279.468 397.222 280.386 392.028 280.406C385.487 280.445 379.045 278.801 373.323 275.631Z" fill="#1E1E1E"/>
<path d="M384.144 126.711C397.709 126.711 408.705 115.715 408.705 102.15C408.705 88.5855 397.709 77.5891 384.144 77.5891C370.58 77.5891 359.583 88.5855 359.583 102.15C359.583 115.715 370.58 126.711 384.144 126.711Z" fill="#A0616A"/>
<path d="M401.525 121.582C396.943 126.463 388.434 123.842 387.837 117.175C387.79 116.657 387.793 116.136 387.847 115.619C388.155 112.665 389.861 109.984 389.453 106.865C389.36 106.089 389.071 105.349 388.612 104.716C384.961 99.827 376.39 106.903 372.944 102.477C370.831 99.7631 373.315 95.49 371.694 92.4566C369.554 88.453 363.215 90.428 359.24 88.2354C354.817 85.7959 355.082 79.0102 357.993 74.8827C361.543 69.8491 367.769 67.1632 373.916 66.7761C380.064 66.389 386.169 68.0509 391.909 70.2876C398.43 72.8289 404.896 76.3411 408.909 82.0751C413.789 89.0483 414.259 98.423 411.818 106.577C410.334 111.537 405.267 117.596 401.525 121.582Z" fill="#1E1E1E"/>
<path d="M420.975 145.46C420.545 143.44 416.855 140.68 411.576 138.43C403.089 134.993 393.91 133.609 384.787 134.391C375.663 135.173 366.854 138.099 359.076 142.93C358.533 142.96 358.015 143.166 357.601 143.519C357.187 143.871 356.901 144.349 356.786 144.88L339.025 223.43L336.715 233.66L335.186 240.43L332.875 250.63L331.645 256.08C331.567 256.429 331.563 256.79 331.636 257.14C331.708 257.49 331.854 257.82 332.064 258.109C332.274 258.398 332.544 258.638 332.855 258.814C333.165 258.99 333.51 259.098 333.866 259.13L410.556 265.75C410.625 265.75 410.706 265.76 410.775 265.76C411.408 265.757 412.016 265.513 412.476 265.079C412.936 264.645 413.215 264.052 413.255 263.42L413.985 252.31L414.766 240.43L415.105 235.28L415.875 223.43L420.985 145.59V145.52L420.975 145.46Z" fill="#FED253"/>
<path d="M295.141 150.405C295.263 150.944 295.343 151.493 295.38 152.045L338.337 176.827L348.779 170.816L359.91 185.388L337.573 201.309L288.565 162.646C286.566 163.386 284.389 163.499 282.325 162.972C280.26 162.444 278.404 161.301 277.005 159.693C275.606 158.085 274.729 156.09 274.492 153.972C274.255 151.854 274.668 149.713 275.676 147.836C276.685 145.958 278.241 144.432 280.138 143.461C282.035 142.489 284.183 142.118 286.296 142.397C288.409 142.676 290.387 143.592 291.967 145.022C293.547 146.452 294.654 148.33 295.141 150.405H295.141Z" fill="#A0616A"/>
<path d="M339.872 174.72C339.8 174.053 339.879 173.378 340.103 172.746C340.327 172.114 340.69 171.54 341.165 171.066L363.028 149.198C365.194 147.031 368.086 145.743 371.146 145.583C374.205 145.422 377.216 146.4 379.597 148.327C381.978 150.255 383.561 152.996 384.041 156.022C384.521 159.048 383.864 162.144 382.196 164.714L366.626 188.706C365.976 189.706 364.955 190.407 363.788 190.656C362.621 190.904 361.403 190.68 360.402 190.031L341.898 178.023C341.334 177.659 340.86 177.173 340.509 176.601C340.159 176.03 339.941 175.387 339.872 174.72Z" fill="#1E1E1E"/>
<path d="M415.875 223.43L415.105 235.28L336.715 233.66L339.025 223.43H415.875Z" fill="white"/>
<path d="M414.766 240.43L413.985 252.31L332.875 250.63L335.186 240.43H414.766Z" fill="white"/>
<path d="M384.625 54.4304C376.313 54.4313 368.327 57.6675 362.359 63.4537C356.391 69.24 352.909 77.1219 352.651 85.4304H346.625C346.095 85.4304 345.586 85.6412 345.211 86.0162C344.836 86.3913 344.625 86.9 344.625 87.4304V95.4304C344.625 95.9608 344.836 96.4695 345.211 96.8446C345.586 97.2197 346.095 97.4304 346.625 97.4304H414.625C415.156 97.4304 415.665 97.2197 416.04 96.8446C416.415 96.4695 416.625 95.9608 416.625 95.4304V86.4304C416.625 82.2281 415.798 78.0669 414.19 74.1845C412.581 70.3021 410.224 66.7744 407.253 63.8029C404.281 60.8314 400.754 58.4743 396.871 56.8662C392.989 55.2581 388.828 54.4304 384.625 54.4304V54.4304Z" fill="white"/>
</g>
<defs>
<filter id="filter0_d_525_1232" x="102.406" y="29.9304" width="375.822" height="422.841" filterUnits="userSpaceOnUse" color-interpolation-filters="sRGB">
<feFlood flood-opacity="0" result="BackgroundImageFix"/>
<feColorMatrix in="SourceAlpha" type="matrix" values="0 0 0 0 0 0 0 0 0 0 0 0 0 0 0 0 0 0 1 0" result="hardAlpha"/>
<feOffset dy="4"/>
<feGaussianBlur stdDeviation="2"/>
<feComposite in2="hardAlpha" operator="out"/>
<feColorMatrix type="matrix" values="0 0 0 0 0 0 0 0 0 0 0 0 0 0 0 0 0 0 0.25 0"/>
<feBlend mode="normal" in2="BackgroundImageFix" result="effect1_dropShadow_525_1232"/>
<feBlend mode="normal" in="SourceGraphic" in2="effect1_dropShadow_525_1232" result="shape"/>
</filter>
</defs>
</svg>
