<svg width="581" height="474" viewBox="0 0 581 474" fill="none" xmlns="http://www.w3.org/2000/svg">
<path d="M569.301 444.496C514.956 529.926 416.452 397 315.301 392.496C206.185 387.639 116.184 503.576 37.8131 427.496C-34.2003 357.588 16.0632 268.476 37.8131 170.496C51.6305 108.251 45.3887 57.7926 94.8014 17.4964C176.709 -49.2991 247.171 108.003 352.557 99.9964C437.973 93.507 486.975 -33.5015 555.801 17.4964C628.451 71.3268 506.978 154.614 512.181 244.883C516.846 325.832 612.822 376.083 569.301 444.496Z" fill="#FED253"/>
<g filter="url(#filter0_d_521_920)">
<path d="M275.056 444.565C295.076 444.565 311.305 428.336 311.305 408.316C311.305 388.297 295.076 372.068 275.056 372.068C255.036 372.068 238.807 388.297 238.807 408.316C238.807 428.336 255.036 444.565 275.056 444.565Z" fill="#1E1E1E"/>
<path d="M271.173 30.0723C214.521 30.4725 168.135 76.5099 167.331 133.157C167.323 133.68 167.32 137.358 167.32 142.168C167.321 149.22 170.122 155.983 175.109 160.97C180.095 165.957 186.859 168.759 193.911 168.76H193.911C197.407 168.759 200.868 168.07 204.098 166.731C207.327 165.392 210.261 163.429 212.731 160.956C215.202 158.483 217.161 155.547 218.497 152.316C219.832 149.085 220.518 145.623 220.515 142.127C220.512 138.855 220.511 136.591 220.511 136.452C220.509 127.697 222.786 119.092 227.118 111.484C231.451 103.877 237.689 97.5277 245.219 93.0621C252.749 88.5964 261.312 86.1679 270.066 86.0155C278.819 85.863 287.462 87.9919 295.143 92.1926C302.824 96.3933 309.279 102.521 313.874 109.974C318.468 117.426 321.044 125.946 321.347 134.695C321.65 143.445 319.67 152.123 315.602 159.875C311.534 167.627 305.518 174.187 298.146 178.909L298.155 178.92C298.155 178.92 260.308 203.285 248.77 236.71L248.78 236.712C246.751 243.559 245.723 250.664 245.727 257.806C245.727 260.741 245.9 286.427 246.234 307.275C246.35 314.469 249.29 321.328 254.419 326.373C259.548 331.418 266.454 334.245 273.649 334.243H273.649C277.264 334.243 280.843 333.528 284.181 332.139C287.518 330.751 290.548 328.716 293.096 326.152C295.645 323.588 297.661 320.545 299.029 317.199C300.396 313.853 301.089 310.269 301.067 306.654C300.951 287.561 300.888 265.329 300.888 263.716C300.888 243.192 320.687 222.743 336.951 209.408C355.679 194.052 369.155 173.125 374.568 149.52C375.766 144.66 376.426 139.683 376.538 134.678C376.538 120.877 373.807 107.213 368.502 94.4719C363.198 81.731 355.425 70.1656 345.631 60.4422C335.837 50.7187 324.216 43.0293 311.437 37.817C298.658 32.6048 284.974 29.9726 271.173 30.0723V30.0723Z" fill="#1E1E1E"/>
<path d="M201.419 156.182C194.367 156.181 187.604 153.379 182.617 148.392C177.63 143.406 174.829 136.642 174.828 129.59C174.828 124.78 174.831 121.102 174.839 120.579C175.063 104.105 179.212 87.921 186.942 73.3706C174.242 90.7564 167.259 111.659 166.959 133.188C166.951 133.711 166.948 137.388 166.948 142.198C166.949 149.25 169.75 156.014 174.737 161.001C179.723 165.988 186.487 168.79 193.539 168.79V168.79C199.334 168.788 204.97 166.894 209.591 163.397C214.211 159.9 217.564 154.989 219.14 149.413C214.271 153.779 207.959 156.19 201.419 156.182V156.182Z" fill="white"/>
<path d="M272.976 86.1047C281.129 86.4941 289.065 88.8563 296.104 92.9887C303.143 97.121 309.074 102.9 313.387 109.829C317.701 116.759 320.268 124.631 320.869 132.772C321.469 140.912 320.086 149.076 316.836 156.563C321.536 151.043 324.991 144.574 326.965 137.598C328.939 130.621 329.385 123.301 328.273 116.136C327.161 108.972 324.518 102.131 320.523 96.0805C316.527 90.0302 311.275 84.9124 305.122 81.0762C298.97 77.2399 292.063 74.7753 284.872 73.8504C277.68 72.9256 270.374 73.5622 263.452 75.7169C256.529 77.8716 250.152 81.4937 244.756 86.3362C239.36 91.1788 235.071 97.1279 232.183 103.778C237.175 97.9053 243.45 93.2576 250.522 90.1933C257.595 87.1291 265.277 85.7303 272.976 86.1047V86.1047Z" fill="white"/>
<path d="M281.156 321.665C273.962 321.666 267.056 318.84 261.927 313.795C256.798 308.75 253.858 301.891 253.741 294.697C253.408 273.849 253.235 248.163 253.235 245.228C253.23 238.086 254.259 230.981 256.288 224.134L256.278 224.132C257.476 220.695 258.923 217.35 260.607 214.123C255.437 221.014 251.322 228.636 248.398 236.74L248.407 236.742C246.378 243.59 245.35 250.694 245.355 257.836C245.355 260.771 245.528 286.457 245.861 307.305C245.978 314.499 248.918 321.358 254.047 326.403C259.176 331.448 266.082 334.275 273.276 334.273V334.273C279.208 334.272 284.98 332.348 289.725 328.789C294.471 325.23 297.935 320.229 299.597 314.535C294.557 319.131 287.978 321.674 281.156 321.665V321.665Z" fill="white"/>
<path d="M267.07 435.724C261.92 433.481 257.363 430.072 253.756 425.766C250.15 421.46 247.594 416.375 246.289 410.912C244.985 405.449 244.968 399.758 246.24 394.287C247.512 388.817 250.038 383.717 253.618 379.389C249.467 382.42 246.007 386.3 243.47 390.77C240.933 395.24 239.375 400.199 238.9 405.317C238.426 410.435 239.045 415.596 240.718 420.456C242.39 425.316 245.077 429.766 248.6 433.508C252.123 437.251 256.402 440.201 261.153 442.164C265.904 444.126 271.018 445.056 276.155 444.891C281.293 444.726 286.336 443.47 290.951 441.207C295.566 438.944 299.647 435.725 302.923 431.764C297.814 435.498 291.815 437.829 285.524 438.524C279.234 439.219 272.871 438.253 267.07 435.724V435.724Z" fill="white"/>
<path d="M195.656 383.219C202.927 378.592 205.07 368.947 200.443 361.677C195.816 354.407 186.171 352.264 178.9 356.891C171.63 361.518 169.487 371.163 174.114 378.433C178.741 385.703 188.386 387.846 195.656 383.219Z" fill="#1E1E1E"/>
<path d="M98.4459 233.587C77.9644 246.826 71.759 274.266 84.5595 295.025C84.6777 295.216 85.5264 296.553 86.6382 298.299C88.2683 300.86 90.849 302.669 93.8125 303.328C96.7761 303.986 99.8799 303.441 102.441 301.811C103.711 301.003 104.808 299.952 105.672 298.719C106.535 297.487 107.147 296.096 107.473 294.627C107.798 293.158 107.831 291.638 107.569 290.156C107.308 288.674 106.757 287.259 105.947 285.99C105.19 284.802 104.666 283.98 104.634 283.93C102.61 280.751 101.448 277.099 101.263 273.335C101.078 269.571 101.876 265.823 103.579 262.461C105.282 259.099 107.83 256.238 110.974 254.159C114.117 252.081 117.748 250.856 121.509 250.607C125.269 250.357 129.03 251.09 132.421 252.735C135.812 254.379 138.716 256.878 140.849 259.986C142.981 263.093 144.268 266.702 144.582 270.458C144.896 274.214 144.228 277.986 142.642 281.405L142.648 281.407C142.648 281.407 134.534 299.003 138.069 313.809L138.073 313.807C138.919 316.763 140.188 319.581 141.84 322.173C142.519 323.239 148.518 332.528 153.458 340.022C155.163 342.607 157.816 344.419 160.844 345.066C163.873 345.712 167.035 345.143 169.647 343.479C170.96 342.644 172.094 341.557 172.985 340.281C173.877 339.005 174.507 337.566 174.84 336.046C175.172 334.526 175.201 332.955 174.925 331.423C174.648 329.892 174.071 328.431 173.228 327.123C168.773 320.216 163.612 312.156 163.239 311.57C158.495 304.117 160.959 292.114 163.783 283.513C167.036 273.607 167.093 262.893 163.603 253.069C162.915 251.027 162.004 249.067 160.888 247.224C157.698 242.212 153.548 237.88 148.677 234.479C143.806 231.078 138.31 228.675 132.506 227.407C126.702 226.139 120.704 226.033 114.858 227.093C109.013 228.154 103.435 230.361 98.4459 233.587Z" fill="#1E1E1E"/>
<path d="M102.261 295.508C99.6995 297.137 96.5957 297.683 93.6322 297.024C90.6686 296.366 88.0879 294.557 86.4578 291.996C85.346 290.249 84.4973 288.913 84.3791 288.721C80.6527 282.687 78.419 275.85 77.8632 268.779C77.2694 278.029 79.5646 287.234 84.4313 295.122C84.5496 295.313 85.3983 296.65 86.5101 298.396C88.1402 300.957 90.7209 302.766 93.6845 303.425C96.648 304.083 99.7518 303.538 102.313 301.908C104.417 300.568 106.026 298.577 106.896 296.239C107.766 293.901 107.849 291.343 107.132 288.953C106.373 291.664 104.638 293.999 102.261 295.508Z" fill="white"/>
<path d="M112.051 253.519C115.102 251.776 118.53 250.8 122.042 250.674C125.553 250.548 129.043 251.276 132.211 252.795C135.379 254.315 138.131 256.58 140.23 259.398C142.33 262.215 143.714 265.5 144.265 268.97C144.696 265.879 144.455 262.731 143.56 259.741C142.664 256.752 141.134 253.99 139.074 251.645C137.015 249.3 134.474 247.427 131.624 246.153C128.775 244.879 125.684 244.234 122.563 244.263C119.442 244.292 116.364 244.993 113.539 246.319C110.714 247.646 108.208 249.565 106.191 251.948C104.175 254.331 102.697 257.12 101.856 260.126C101.016 263.131 100.833 266.283 101.321 269.366C101.777 266.079 102.981 262.941 104.842 260.194C106.702 257.446 109.169 255.163 112.051 253.519Z" fill="white"/>
<path d="M169.466 337.176C166.854 338.839 163.692 339.409 160.664 338.762C157.635 338.116 154.982 336.304 153.277 333.719C148.338 326.224 142.338 316.936 141.66 315.87C140.007 313.277 138.739 310.46 137.893 307.504L137.889 307.505C137.53 305.98 137.282 304.431 137.148 302.87C136.863 306.567 137.13 310.287 137.941 313.906L137.945 313.904C138.791 316.86 140.06 319.678 141.712 322.27C142.39 323.336 148.39 332.625 153.329 340.119C155.034 342.704 157.687 344.516 160.716 345.163C163.745 345.809 166.906 345.24 169.519 343.576C171.673 342.205 173.324 340.172 174.225 337.783C175.126 335.394 175.228 332.777 174.516 330.324C173.747 333.159 171.946 335.603 169.466 337.176Z" fill="white"/>
<path d="M190.712 381.854C188.324 382.23 185.881 382.045 183.576 381.315C181.271 380.585 179.168 379.329 177.431 377.647C175.695 375.964 174.373 373.901 173.571 371.62C172.768 369.34 172.507 366.904 172.807 364.505C172 366.565 171.64 368.773 171.752 370.983C171.863 373.193 172.444 375.354 173.454 377.322C174.465 379.291 175.883 381.022 177.613 382.4C179.344 383.779 181.348 384.774 183.493 385.319C185.637 385.863 187.873 385.946 190.052 385.561C192.231 385.175 194.303 384.331 196.131 383.084C197.958 381.836 199.5 380.215 200.653 378.326C201.806 376.437 202.544 374.325 202.818 372.13C201.826 374.667 200.186 376.9 198.062 378.606C195.938 380.312 193.404 381.432 190.712 381.854Z" fill="white"/>
<path d="M389.518 296.771C396.777 301.416 406.427 299.296 411.072 292.037C415.716 284.778 413.597 275.128 406.338 270.483C399.078 265.839 389.428 267.958 384.784 275.218C380.139 282.477 382.259 292.127 389.518 296.771Z" fill="#1E1E1E"/>
<path d="M484.273 145.572C463.638 132.574 436.137 138.506 422.703 158.86C422.579 159.048 421.724 160.381 420.609 162.125C418.973 164.682 418.419 167.785 419.071 170.75C419.722 173.715 421.524 176.3 424.081 177.936C425.349 178.747 426.764 179.3 428.246 179.564C429.728 179.828 431.247 179.797 432.716 179.473C434.186 179.149 435.578 178.539 436.811 177.678C438.045 176.816 439.097 175.72 439.907 174.451C440.665 173.264 441.19 172.443 441.222 172.392C443.253 169.217 446.075 166.626 449.411 164.872C452.747 163.118 456.482 162.264 460.248 162.391C464.015 162.519 467.683 163.625 470.893 165.601C474.102 167.576 476.742 170.353 478.553 173.658C480.363 176.964 481.282 180.683 481.219 184.452C481.157 188.22 480.114 191.907 478.194 195.15C476.274 198.393 473.543 201.08 470.269 202.947C466.995 204.814 463.292 205.797 459.523 205.799L459.524 205.806C459.524 205.806 440.148 205.86 428.209 215.303L428.212 215.306C425.888 217.318 423.867 219.656 422.212 222.247C421.531 223.311 415.634 232.665 410.918 240.302C409.292 242.938 408.766 246.107 409.456 249.126C410.145 252.145 411.994 254.773 414.603 256.441C415.913 257.28 417.377 257.851 418.91 258.122C420.442 258.393 422.013 258.358 423.532 258.019C425.051 257.681 426.488 257.045 427.76 256.149C429.032 255.253 430.115 254.114 430.945 252.798C435.333 245.848 440.468 237.772 440.842 237.187C445.604 229.745 457.527 226.923 466.518 225.861C476.872 224.638 486.614 220.176 494.053 212.872C495.615 211.388 497.009 209.737 498.21 207.948C501.412 202.943 503.592 197.355 504.625 191.504C505.657 185.654 505.522 179.657 504.226 173.859C502.931 168.061 500.501 162.576 497.076 157.721C493.652 152.867 489.3 148.738 484.273 145.572Z" fill="#1E1E1E"/>
<path d="M429.722 175.117C427.165 173.481 425.363 170.896 424.711 167.931C424.06 164.966 424.613 161.863 426.249 159.306C427.365 157.562 428.219 156.229 428.343 156.041C432.247 150.119 437.506 145.213 443.685 141.731C435.046 145.088 427.664 151.048 422.561 158.785C422.437 158.973 421.583 160.305 420.467 162.049C418.831 164.607 418.278 167.709 418.929 170.674C419.58 173.64 421.382 176.225 423.939 177.861C426.041 179.205 428.524 179.826 431.011 179.629C433.498 179.433 435.853 178.431 437.718 176.774C434.94 177.228 432.092 176.638 429.722 175.117Z" fill="white"/>
<path d="M471.927 166.308C474.793 168.341 477.123 171.039 478.716 174.17C480.31 177.302 481.12 180.773 481.076 184.286C481.033 187.8 480.137 191.25 478.467 194.341C476.796 197.432 474.4 200.071 471.485 202.033C474.47 201.121 477.223 199.577 479.558 197.505C481.892 195.433 483.752 192.883 485.011 190.027C486.27 187.171 486.898 184.077 486.853 180.956C486.808 177.835 486.091 174.761 484.75 171.943C483.409 169.124 481.477 166.628 479.084 164.624C476.691 162.621 473.894 161.157 470.883 160.332C467.873 159.507 464.721 159.341 461.641 159.845C458.56 160.349 455.625 161.511 453.035 163.253C456.208 162.281 459.561 162.052 462.837 162.581C466.112 163.111 469.222 164.386 471.927 166.308Z" fill="white"/>
<path d="M420.243 253.622C417.634 251.954 415.786 249.326 415.096 246.307C414.407 243.288 414.932 240.119 416.559 237.483C421.275 229.846 427.171 220.492 427.852 219.428C429.507 216.837 431.529 214.499 433.853 212.487L433.85 212.484C435.082 211.516 436.382 210.638 437.742 209.859C434.268 211.158 431.008 212.968 428.067 215.228L428.07 215.231C425.746 217.243 423.725 219.581 422.07 222.171C421.389 223.236 415.492 232.59 410.776 240.227C409.15 242.862 408.624 246.031 409.314 249.051C410.003 252.07 411.852 254.697 414.461 256.366C416.612 257.742 419.151 258.383 421.698 258.193C424.244 258.004 426.66 256.994 428.584 255.315C425.69 255.812 422.715 255.208 420.243 253.622Z" fill="white"/>
<path d="M388.673 291.713C387.327 289.705 386.465 287.411 386.156 285.013C385.847 282.615 386.1 280.178 386.895 277.895C387.689 275.611 389.003 273.544 390.734 271.855C392.464 270.166 394.563 268.903 396.865 268.165C394.657 268.301 392.502 268.905 390.545 269.937C388.588 270.969 386.873 272.406 385.513 274.152C384.154 275.897 383.181 277.912 382.66 280.063C382.139 282.213 382.081 284.45 382.49 286.624C382.899 288.799 383.766 290.862 385.034 292.675C386.301 294.489 387.94 296.013 389.841 297.145C391.742 298.277 393.862 298.992 396.061 299.242C398.259 299.492 400.486 299.271 402.593 298.595C399.874 298.764 397.158 298.217 394.716 297.01C392.273 295.802 390.19 293.976 388.673 291.713Z" fill="white"/>
</g>
<defs>
<filter id="filter0_d_521_920" x="73.7714" y="30.0696" width="435.538" height="422.84" filterUnits="userSpaceOnUse" color-interpolation-filters="sRGB">
<feFlood flood-opacity="0" result="BackgroundImageFix"/>
<feColorMatrix in="SourceAlpha" type="matrix" values="0 0 0 0 0 0 0 0 0 0 0 0 0 0 0 0 0 0 127 0" result="hardAlpha"/>
<feOffset dy="4"/>
<feGaussianBlur stdDeviation="2"/>
<feComposite in2="hardAlpha" operator="out"/>
<feColorMatrix type="matrix" values="0 0 0 0 0 0 0 0 0 0 0 0 0 0 0 0 0 0 0.25 0"/>
<feBlend mode="normal" in2="BackgroundImageFix" result="effect1_dropShadow_521_920"/>
<feBlend mode="normal" in="SourceGraphic" in2="effect1_dropShadow_521_920" result="shape"/>
</filter>
</defs>
</svg>
