<svg width="24" height="24" viewBox="0 0 24 24" fill="none" xmlns="http://www.w3.org/2000/svg">
<path d="M11.8409 15.7111C13.8675 15.7111 15.5104 14.0682 15.5104 12.0416C15.5104 10.015 13.8675 8.37207 11.8409 8.37207C9.81428 8.37207 8.17139 10.015 8.17139 12.0416C8.17139 14.0682 9.81428 15.7111 11.8409 15.7111Z" stroke="#989898" stroke-width="2.34848" stroke-linecap="round" stroke-linejoin="round"/>
<path d="M16.7122 19.3806C15.0775 20.4659 13.1272 20.9742 11.1707 20.8249C9.21423 20.6756 7.36365 19.8772 5.91261 18.5564C4.46157 17.2355 3.49318 15.468 3.16111 13.5341C2.82903 11.6002 3.15229 9.61086 4.07959 7.88164C5.00688 6.15242 6.4851 4.78239 8.27969 3.98896C10.0743 3.19552 12.0824 3.02412 13.9855 3.50195C15.8886 3.97978 17.5777 5.07947 18.7846 6.62653C19.9915 8.17359 20.6472 10.0794 20.6477 12.0416C20.6477 14.069 19.9138 15.7111 18.0791 15.7111C16.2443 15.7111 15.5104 14.069 15.5104 12.0416V8.37206" stroke="#989898" stroke-width="2.34848" stroke-linecap="round" stroke-linejoin="round"/>
</svg>
