<svg width="66" height="20" viewBox="0 0 66 20" fill="none" xmlns="http://www.w3.org/2000/svg">
<path fill-rule="evenodd" clip-rule="evenodd" d="M57.642 0.526439C57.2896 0.648548 56.9124 0.779389 56.8036 0.817198C56.4861 0.9276 56.2939 0.994136 55.3403 1.32373C54.8444 1.49515 54.4075 1.64619 54.3695 1.65937L54.3003 1.68334L54.3115 1.90661C54.355 2.77408 54.5844 3.5407 54.977 4.13104C55.3711 4.72349 55.8289 5.05914 56.3683 5.15096C56.5109 5.17522 56.6966 5.17765 58.2817 5.17586C59.2472 5.17478 60.0403 5.17086 60.044 5.16714C60.0477 5.16342 60.0139 5.12011 59.9689 5.07088C59.362 4.4068 58.7719 3.00714 58.4822 1.54458C58.411 1.1852 58.3421 0.704532 58.3274 0.464917C58.3211 0.36293 58.311 0.30307 58.3001 0.303592C58.2905 0.304051 57.9944 0.40433 57.642 0.526439ZM44.8244 3.73125L44.7651 3.73747V4.09417L42.4845 4.10469C41.2302 4.11049 39.7113 4.11522 39.1093 4.11522H38.0146L38.0061 4.3011C37.9889 4.67668 37.8353 4.96253 37.5902 5.07471C37.4253 5.1502 37.2152 5.19177 36.9464 5.20209L36.6973 5.21164V5.47554C36.6973 5.6207 36.702 5.96485 36.7077 6.24032L36.7182 6.74119L37.558 6.73335C38.0199 6.72903 39.834 6.72189 41.5894 6.7175L44.7809 6.70948V7.07343H47.159L47.1485 5.89885C47.1428 5.25283 47.138 4.49824 47.138 4.222L47.138 3.71974L46.0109 3.7224C45.391 3.72387 44.8571 3.72785 44.8244 3.73125ZM49.5157 3.82978C49.4813 3.85077 49.4601 3.87977 49.4492 3.92068C49.4314 3.98746 49.3027 5.03111 49.2929 5.18753C49.2753 5.46866 49.481 5.76578 49.7622 5.86567L49.8393 5.89304L49.8464 7.80811C49.8503 8.86139 49.8506 9.72672 49.847 9.73107C49.8434 9.73542 49.5984 9.74254 49.3026 9.74689L48.7646 9.7548L48.7264 9.79919C48.6884 9.84347 48.6883 9.84442 48.6883 10.23V10.6164L48.7318 10.6646C48.7655 10.7019 48.7955 10.716 48.8651 10.7271C49.0271 10.753 49.1115 10.8247 49.1471 10.9665C49.1707 11.0604 49.1477 11.1508 49.0808 11.227C49.0203 11.2959 48.9657 11.325 48.8595 11.3452C48.7739 11.3614 48.7246 11.3939 48.7043 11.4475C48.6977 11.4649 48.6974 12.3227 48.7036 13.3537C48.7145 15.1856 48.7155 15.231 48.7477 15.3484C48.814 15.59 48.9068 15.7535 49.0828 15.9385C49.5366 16.4154 50.2866 16.4808 50.816 16.0897C51.0608 15.9088 51.2371 15.6462 51.3197 15.3391L51.3539 15.2125L51.3483 13.3379C51.3431 11.6113 51.3406 11.4595 51.3159 11.4158C51.2884 11.3672 51.2251 11.3386 51.1044 11.3204C50.9894 11.3031 50.8725 11.1559 50.8717 11.0274C50.8715 10.9965 50.8899 10.9341 50.9124 10.8888C50.9608 10.7917 51.0471 10.733 51.17 10.7136C51.2542 10.7003 51.2885 10.6801 51.3186 10.6262C51.341 10.5862 51.3352 9.84931 51.3123 9.80637C51.2746 9.73588 51.2343 9.73107 50.6823 9.73107H50.1595V8.21498C50.1595 7.38113 50.1548 6.51727 50.1491 6.29528L50.1387 5.89165L50.2146 5.86578C50.4564 5.7834 50.6402 5.56628 50.6807 5.31532C50.6944 5.23015 50.6852 5.1303 50.6102 4.5516L50.5239 3.88584L50.4279 3.79883L49.9971 3.7989C49.598 3.79895 49.5626 3.80122 49.5157 3.82978ZM0.720519 4.14722C0.604231 4.20973 0.613454 3.94084 0.613454 7.26824V10.2647L0.646485 10.3067C0.716754 10.396 0.749105 10.4028 1.12988 10.4086L1.48019 10.4139L1.48938 10.7013C1.49443 10.8594 1.50245 11.309 1.5072 11.7006C1.51194 12.0921 1.52659 13.3055 1.53975 14.397C1.56024 16.0972 1.56729 16.3975 1.58894 16.493C1.69657 16.9682 2.11578 17.3256 2.67683 17.4207C2.85173 17.4504 3.16969 17.431 3.34151 17.3803C3.7974 17.2456 4.13415 16.924 4.23595 16.5259C4.26211 16.4236 4.26803 16.275 4.29025 15.1632C4.30395 14.4768 4.32246 13.1291 4.33134 12.1682C4.34023 11.2073 4.34924 10.4194 4.35138 10.4173C4.3535 10.4152 4.45479 10.4086 4.57644 10.4028C4.70932 10.3964 4.92401 10.3704 5.11404 10.3377C5.28806 10.3078 5.55501 10.2621 5.70727 10.2362C5.85953 10.2104 6.06241 10.175 6.15812 10.1578C6.25382 10.1405 6.624 10.0763 6.98072 10.0152C7.33745 9.95413 7.64893 9.89635 7.67289 9.88685C7.69686 9.87732 7.73779 9.84526 7.76386 9.81558L7.81123 9.7616V8.40467L7.7698 8.35544C7.68403 8.2535 7.80983 8.25988 5.88207 8.25988H4.12534V6.09263H5.87388C7.76906 6.09263 7.68046 6.09668 7.76378 6.00642L7.80333 5.96356L7.80788 5.42585C7.81328 4.79039 7.81941 4.81579 7.64121 4.73616C7.1538 4.51836 6.19238 4.29268 5.33551 4.19495C4.75145 4.12833 4.69948 4.12686 2.71742 4.12112C0.8024 4.11557 0.778861 4.11587 0.720519 4.14722ZM32.7947 4.33592C32.7581 4.35249 32.6846 4.39573 32.6312 4.43197C32.1082 4.78713 31.8088 5.34672 31.8092 5.96856C31.8094 6.19136 31.8243 6.30127 31.8811 6.4971C31.9626 6.77853 32.1146 7.03896 32.3249 7.25765L32.4419 7.37923V13.2317L32.3182 13.3605C32.2502 13.4314 32.1639 13.5344 32.1265 13.5895C32.0267 13.7365 31.9118 13.988 31.8621 14.1684C31.8218 14.3147 31.8185 14.349 31.8179 14.6271C31.8173 14.8956 31.8213 14.9429 31.8553 15.0701C31.9748 15.5183 32.2276 15.8896 32.5843 16.1406C32.8178 16.305 32.9244 16.3315 33.0514 16.2571C33.177 16.1835 33.1769 16.1845 33.182 15.4695L33.1864 14.8407H34.1345V15.4671C34.1345 16.1638 34.1345 16.1633 34.2407 16.2444C34.2785 16.2731 34.3204 16.2879 34.3781 16.2927C34.4709 16.3003 34.5302 16.2765 34.6935 16.1658C35.3526 15.7192 35.6555 14.8909 35.4379 14.1305C35.3564 13.8457 35.1351 13.4748 34.9438 13.3023L34.8781 13.243V7.36501L34.9662 7.27854C35.212 7.03739 35.3751 6.74198 35.4639 6.37738C35.5165 6.16099 35.5165 5.78699 35.4639 5.5706C35.3773 5.21503 35.24 4.95744 35.0048 4.70985C34.8022 4.49645 34.5146 4.3051 34.3966 4.30507C34.3231 4.30505 34.2188 4.36425 34.1787 4.42878C34.1431 4.48601 34.1423 4.4967 34.1345 5.07229L34.1266 5.6576L33.1854 5.66599L33.185 5.10021C33.1847 4.58515 33.1821 4.52875 33.1556 4.47116C33.1211 4.39589 33.0858 4.36216 33.0074 4.32938C32.9309 4.29744 32.8757 4.29914 32.7947 4.33592ZM13.6248 4.48149C13.2601 4.52211 12.9154 4.69022 12.642 4.96086C12.1345 5.46323 12.0033 6.23865 12.3181 6.87569C12.6079 7.4622 13.1749 7.81694 13.8226 7.81694C14.2836 7.81694 14.6978 7.64307 15.0205 7.31412C15.3914 6.93593 15.5612 6.40301 15.4767 5.88244C15.3546 5.12979 14.7534 4.56139 13.9932 4.47974C13.8222 4.46138 13.8046 4.46146 13.6248 4.48149ZM24.461 4.51197C23.4649 4.65974 22.6515 5.32643 22.3282 6.26019C22.2511 6.48278 22.2114 6.68065 22.1919 6.93897C22.1693 7.24064 22.1692 13.4484 22.1919 13.7649C22.2009 13.891 22.223 14.0617 22.2409 14.1443C22.4524 15.1205 23.2022 15.9031 24.1584 16.1457C24.4336 16.2155 24.6404 16.2379 24.9119 16.2273C25.2817 16.2129 25.3684 16.192 26.2644 15.9007C26.4559 15.8385 26.6979 15.7602 26.8023 15.7268C26.9067 15.6933 27.1274 15.6221 27.2927 15.5684C27.5928 15.471 28.1868 15.2787 29.1949 14.9525C30.922 14.3937 30.8531 14.4177 30.9058 14.3576C30.9629 14.2926 30.9776 14.2446 30.9663 14.1603C30.9562 14.0847 30.9056 14.0108 30.8389 13.9744C30.7919 13.9486 30.6071 13.9467 27.8978 13.9428L25.0068 13.9387V7.27908H27.7752L27.7756 7.70225C27.7758 7.9353 27.7833 8.15726 27.7923 8.19628C27.8131 8.28652 27.8709 8.36229 27.9495 8.40239C28.0097 8.4331 28.0445 8.43389 29.3413 8.43389C30.6381 8.43389 30.6729 8.4331 30.7331 8.40239C30.7984 8.36911 30.8643 8.29341 30.8838 8.22941C30.9182 8.11665 30.9081 8.08786 30.56 7.30281C30.2117 6.51756 29.8438 6.0136 29.2667 5.53114C28.6358 5.00373 27.9297 4.68486 27.0712 4.53962C26.8739 4.50624 26.8189 4.50469 25.7108 4.50137C25.0756 4.49946 24.5133 4.50423 24.461 4.51197ZM13.9839 5.36661C14.1168 5.39432 14.2582 5.46992 14.3665 5.57118C14.6502 5.83663 14.6975 6.27482 14.4769 6.59509C14.162 7.05239 13.4709 7.04908 13.1653 6.58879C13.0385 6.39774 12.996 6.1412 13.0567 5.93336C13.1739 5.53201 13.5817 5.28273 13.9839 5.36661ZM56.6849 5.73749C55.5822 5.87131 54.5695 6.54258 53.846 7.6192C53.337 8.37678 53.0172 9.25467 52.878 10.2768C52.8452 10.5176 52.8414 10.6071 52.8414 11.1311C52.8414 11.752 52.8548 11.9154 52.9452 12.3966C53.2672 14.11 54.257 15.5407 55.5618 16.1785C56.0037 16.3945 56.4246 16.5051 56.912 16.5335C57.2362 16.5523 59.0974 16.5543 59.0974 16.5358C59.0974 16.5285 59.0361 16.485 58.9612 16.4392C58.6559 16.2527 58.235 15.9021 57.9805 15.6223C57.0808 14.6333 56.5396 13.3936 56.3653 11.922C56.3253 11.584 56.3253 10.6603 56.3653 10.3322C56.473 9.45079 56.6834 8.72775 57.0415 8.00917C57.2284 7.634 57.3536 7.4284 57.5918 7.10507C57.8439 6.76291 58.208 6.37904 58.5121 6.13486C58.6205 6.04777 58.9337 5.83059 59.0906 5.73368C59.1371 5.70498 56.9239 5.70848 56.6849 5.73749ZM60.7167 5.73662C60.1758 5.80559 59.6372 6.00995 59.1604 6.32712C58.9012 6.4996 58.7522 6.62204 58.5065 6.86461C57.7495 7.61206 57.2044 8.68607 56.9796 9.87345C56.8959 10.316 56.8764 10.5489 56.8756 11.1153C56.8748 11.7221 56.8989 11.9816 57.0027 12.487C57.318 14.0226 58.1543 15.3158 59.2765 16.0028C59.6728 16.2454 60.0586 16.3961 60.5211 16.4888C60.6848 16.5216 60.7459 16.5252 61.1302 16.5247C61.5322 16.5242 61.5695 16.5216 61.7648 16.4811C62.5254 16.3235 63.1884 15.9552 63.7673 15.3685C64.0629 15.0689 64.2845 14.7853 64.5008 14.4294C65.2602 13.1803 65.5489 11.5847 65.2982 10.0237C65.1555 9.13562 64.8153 8.267 64.3378 7.57174C64.0265 7.11834 63.6162 6.69481 63.2025 6.39977C62.7209 6.05625 62.1637 5.82757 61.6048 5.74399C61.4159 5.71575 60.913 5.71158 60.7167 5.73662ZM13.6876 5.83003C13.6241 5.85767 13.5386 5.9446 13.5118 6.0086C13.4803 6.08398 13.4846 6.22512 13.5205 6.29496C13.5781 6.40692 13.7048 6.48812 13.8217 6.48812C13.9448 6.48812 14.0972 6.38387 14.1409 6.26978C14.1649 6.20699 14.1621 6.07699 14.1353 6.01306C14.1059 5.94316 14.0215 5.85751 13.9541 5.82935C13.8893 5.80229 13.7504 5.80265 13.6876 5.83003ZM61.4459 7.17741C61.7567 7.23178 62.0908 7.37374 62.3672 7.56892C62.526 7.6811 62.8233 7.96184 62.9596 8.12834C63.4666 8.74784 63.7966 9.5707 63.9165 10.5141C63.9553 10.8197 63.9556 11.4251 63.9171 11.7377C63.7605 13.0085 63.1961 14.0863 62.3783 14.6764C62.2191 14.7912 61.8794 14.9648 61.7194 15.0131C61.4201 15.1034 61.0502 15.1269 60.7742 15.073C59.5999 14.8436 58.6496 13.631 58.3787 12.0163C58.2829 11.4456 58.2803 10.8256 58.3712 10.2689C58.533 9.2779 58.9499 8.42585 59.5602 7.8392C59.9293 7.48432 60.3584 7.25502 60.798 7.17765C60.9705 7.14727 61.2729 7.14716 61.4459 7.17741ZM40.5255 9.38042C40.5255 10.5449 40.5303 12.5556 40.5361 13.8487L40.5466 16.1998L41.9717 16.1904C42.7555 16.1852 43.3991 16.179 43.402 16.1766C43.4049 16.1741 43.4021 14.1677 43.3957 11.7177L43.384 7.26326H40.5255V9.38042ZM60.9008 7.70514C60.6716 7.74749 60.4416 7.84454 60.2244 7.99057C60.0922 8.07943 59.8567 8.28127 59.8567 8.30569C59.8567 8.31208 59.9041 8.39159 59.9621 8.48238C60.322 9.04622 60.5556 9.72225 60.6587 10.4983C60.6975 10.7905 60.6974 11.4621 60.6585 11.7559C60.5805 12.3457 60.4368 12.8495 60.2141 13.3141C60.1217 13.5069 59.9519 13.8047 59.886 13.8897C59.8699 13.9105 59.8567 13.9365 59.8567 13.9475C59.8567 13.9763 60.0953 14.18 60.2497 14.283C60.7288 14.6025 61.2775 14.6503 61.7773 14.416C62.5979 14.0315 63.2201 12.9769 63.3748 11.7085C63.4288 11.2665 63.4219 10.8391 63.3536 10.3876C63.2504 9.70437 62.9915 9.04993 62.6341 8.56826C62.4963 8.38256 62.199 8.09362 62.0335 7.98457C61.7362 7.78867 61.4906 7.70631 61.1776 7.69768C61.0645 7.69454 60.94 7.69791 60.9008 7.70514ZM8.34085 8.35873C8.33685 8.36962 8.29396 8.54225 8.24555 8.74237C8.04607 9.56682 8.01535 9.69277 8.00733 9.71921C7.99934 9.74553 8.2836 9.74689 13.8226 9.74689C19.3616 9.74689 19.6458 9.74553 19.6376 9.71921C19.6329 9.70399 19.593 9.54203 19.549 9.35932C19.3893 8.69551 19.3275 8.44087 19.3147 8.39434L19.3017 8.34688L13.8249 8.34291C9.45165 8.33973 8.34665 8.34291 8.34085 8.35873ZM59.4454 8.84124C59.4193 8.88256 59.3596 8.99113 59.3128 9.08248C58.7787 10.1238 58.695 11.5006 59.0953 12.6576C59.2012 12.9637 59.2842 13.1432 59.4414 13.4061L59.4964 13.4982L59.5353 13.441C59.6044 13.3393 59.7578 13.0338 59.8254 12.8633C60.256 11.7771 60.2639 10.5363 59.8472 9.45042C59.7554 9.2113 59.5293 8.7661 59.4997 8.7661C59.496 8.7661 59.4716 8.79992 59.4454 8.84124ZM28.3514 9.27829C28.3103 9.31938 28.2972 9.34583 28.2972 9.38798C28.2972 9.41853 28.3613 9.62276 28.4396 9.84181L28.582 10.2401V10.5509L28.5147 10.5619C28.2862 10.5996 28.1167 10.7815 28.0958 11.0118C28.0732 11.2616 28.2611 11.5009 28.5023 11.5294L28.582 11.5389V11.9702L28.4846 11.9887C28.3632 12.0118 28.2451 12.0904 28.1754 12.1944C28.0064 12.447 28.1071 12.7856 28.3902 12.9165C28.4622 12.9498 28.477 12.9503 29.3808 12.9503C30.2847 12.9503 30.2995 12.9498 30.3715 12.9165C30.4765 12.8679 30.5676 12.7791 30.618 12.6761C30.6805 12.5485 30.6804 12.3869 30.6177 12.2589C30.5406 12.1013 30.364 11.9774 30.2164 11.9774C30.1798 11.9774 30.1797 11.9769 30.1797 11.7581V11.5389L30.2604 11.5293C30.4577 11.506 30.6346 11.3186 30.6644 11.1016C30.6782 11.001 30.6357 10.8506 30.5666 10.7558C30.5034 10.6689 30.383 10.5942 30.2628 10.5673L30.1797 10.5486V10.2273L30.3221 9.8286C30.4004 9.60931 30.4645 9.40877 30.4645 9.38298C30.4645 9.35353 30.4473 9.31688 30.4183 9.28443L30.3722 9.23277L28.4055 9.22414L28.3514 9.27829ZM11.4497 10.2296C11.4497 10.2503 11.3865 10.5208 11.1228 11.6294C11.0928 11.7555 11.0641 11.8819 11.0591 11.9102L11.05 11.9616H16.5154L16.5043 11.9023C16.4888 11.8192 16.1174 10.2584 16.1063 10.2294C16.0982 10.2084 15.825 10.2057 13.7734 10.2057C11.7092 10.2057 11.4497 10.2083 11.4497 10.2296ZM16.5834 10.2569C16.5893 10.2853 16.6215 10.4224 16.655 10.5616C16.7245 10.8513 16.8078 11.1998 16.9147 11.6492L16.9891 11.9616H17.7173C18.4034 11.9616 18.445 11.96 18.4374 11.9339C18.4303 11.9098 18.2789 11.3506 18.1644 10.9254C18.1433 10.8471 18.0915 10.6549 18.0492 10.4983L17.9724 10.2136L16.5725 10.2053L16.5834 10.2569ZM9.57782 10.2808C9.57192 10.2907 9.51942 10.4844 9.32157 11.226C9.30995 11.2695 9.2608 11.4501 9.21235 11.6272C9.16388 11.8044 9.12424 11.9521 9.12424 11.9555C9.12424 11.9588 9.45113 11.9616 9.85064 11.9616H10.577L10.5923 11.8944C10.6007 11.8574 10.6903 11.4798 10.7914 11.0552C10.8924 10.6307 10.9751 10.2801 10.9751 10.2761C10.9751 10.2637 9.58523 10.2683 9.57782 10.2808ZM49.5095 11.8106C49.5339 11.8232 49.5616 11.8535 49.571 11.8778C49.5825 11.9077 49.5911 12.4292 49.5977 13.4882C49.6056 14.7704 49.6036 15.0614 49.5864 15.0938C49.5749 15.1156 49.5402 15.147 49.5093 15.1637C49.4539 15.1935 49.4522 15.1935 49.391 15.1637C49.3569 15.147 49.3208 15.1156 49.3109 15.0938C49.2978 15.0652 49.2912 14.616 49.2871 13.4701C49.2816 11.9041 49.2819 11.8854 49.3132 11.8507C49.3705 11.7869 49.4373 11.7732 49.5095 11.8106ZM50.1581 11.8312C50.2005 11.8736 50.202 11.8812 50.2122 12.1041C50.2179 12.2302 50.2227 12.9514 50.2227 13.7069L50.2228 15.0804L50.1765 15.1267C50.1152 15.188 50.0238 15.1911 49.9664 15.1337C49.9295 15.0968 49.9265 15.0811 49.9168 14.8687C49.9111 14.7446 49.9065 14.0213 49.9064 13.2615L49.9064 11.8801L49.9526 11.8338C50.0153 11.7711 50.097 11.7701 50.1581 11.8312ZM50.7083 11.8258L50.7527 11.8639L50.7647 13.4433C50.7713 14.3119 50.7728 15.0393 50.768 15.0596C50.743 15.1661 50.5983 15.2086 50.5124 15.1347L50.468 15.0966L50.4571 13.5172C50.4497 12.4567 50.4515 11.9209 50.4623 11.8863C50.4927 11.7893 50.6274 11.7562 50.7083 11.8258ZM3.83518 12.5811C3.82945 12.7391 3.82477 13.0849 3.82477 13.3495V13.8307L3.05754 13.8204L2.97053 13.7713C2.92033 13.7429 2.86345 13.6939 2.83607 13.6552L2.78861 13.5883L2.78367 13.0953C2.7804 12.7671 2.78461 12.5824 2.79625 12.5427C2.82055 12.46 2.90029 12.3747 2.99415 12.331C3.07027 12.2955 3.0884 12.2941 3.45947 12.294L3.84559 12.2938L3.83518 12.5811ZM7.0299 12.448C7.02196 12.4745 6.8243 13.2857 6.73892 13.6422C6.71656 13.7356 6.70189 13.8157 6.70635 13.8202C6.71081 13.8247 9.91775 13.8265 13.8329 13.8243L20.9513 13.8204L20.8849 13.5514C20.8483 13.4035 20.7781 13.1152 20.7288 12.9108C20.6795 12.7063 20.6321 12.5123 20.6235 12.4797L20.6078 12.4204H15.7505C10.917 12.4204 10.8929 12.4205 10.8529 12.452C10.8136 12.4829 10.7887 12.4836 9.77283 12.4836C8.75698 12.4836 8.73209 12.4829 8.6928 12.452C8.65377 12.4213 8.62862 12.4204 7.8454 12.4204C7.09037 12.4204 7.03769 12.4221 7.0299 12.448ZM17.635 14.2958C17.635 14.3007 17.716 14.5089 17.8151 14.7585C17.9471 15.0913 17.9976 15.2378 18.0043 15.3075C18.029 15.5645 18.1866 15.7731 18.4173 15.8542C18.538 15.8966 18.728 15.8956 18.8446 15.852C19.0813 15.7634 19.2486 15.5231 19.2486 15.2716C19.2486 15.1913 19.1948 14.9801 19.0251 14.3938L18.9941 14.287H18.3146C17.9408 14.287 17.635 14.291 17.635 14.2958ZM8.54963 14.378C8.54579 14.3845 8.50225 14.5358 8.45288 14.7142C8.40351 14.8925 8.34844 15.0837 8.33052 15.139C8.28795 15.2704 8.2957 15.4742 8.34773 15.5916C8.55923 16.0689 9.2445 16.0888 9.4732 15.6243C9.50482 15.56 9.53032 15.4738 9.54418 15.3841C9.56096 15.2754 9.59989 15.1593 9.71835 14.8644C9.80225 14.6556 9.88054 14.4581 9.89234 14.4255L9.91379 14.3661H9.23521C8.86198 14.3661 8.55346 14.3715 8.54963 14.378ZM3.21067 15.5951C3.34029 15.6561 3.44038 15.746 3.50158 15.8565C3.5432 15.9316 3.54793 15.9547 3.54793 16.0825C3.54793 16.2104 3.5432 16.2334 3.50158 16.3085C3.38906 16.5117 3.17558 16.6279 2.91516 16.6279C2.63247 16.6279 2.39108 16.48 2.30697 16.2552C2.20078 15.9713 2.36245 15.6824 2.69349 15.5644C2.75479 15.5425 2.8105 15.5371 2.93889 15.5407C3.08683 15.5448 3.11654 15.5508 3.21067 15.5951ZM29.6893 15.8239C29.4501 15.9022 29.1048 16.0148 28.9221 16.0743L28.5899 16.1823L28.5815 17.1173L27.0554 17.1266L26.967 17.168C26.7291 17.2796 26.6215 17.5336 26.7066 17.7829C26.7281 17.8462 26.7602 17.8935 26.8246 17.957C26.9725 18.1029 26.9496 18.0997 27.8266 18.0996L28.582 18.0995L28.582 18.5464C28.5821 18.9616 28.5843 18.9969 28.6129 19.0439C28.6628 19.1256 28.7019 19.1296 29.4166 19.1244C30.1237 19.1194 30.1092 19.1214 30.156 19.0227C30.1753 18.982 30.1797 18.8913 30.1797 18.5361V18.0995H31.7091L31.8056 18.0513C31.9762 17.966 32.0631 17.8329 32.0747 17.639C32.081 17.5328 32.0767 17.5073 32.0383 17.4215C31.9882 17.3101 31.8912 17.2121 31.7803 17.1608C31.7082 17.1275 31.6867 17.1265 30.943 17.1218L30.1797 17.117V16.3981C30.1797 15.7234 30.178 15.6792 30.152 15.6804C30.1368 15.6811 29.9286 15.7457 29.6893 15.8239ZM2.84918 15.9711C2.70719 16.0329 2.75547 16.2012 2.91516 16.2012C3.07714 16.2012 3.12317 16.0312 2.97768 15.9704C2.91334 15.9436 2.9125 15.9436 2.84918 15.9711Z" fill="white"/>
</svg>
