<svg width="116" height="45" viewBox="0 0 116 45" fill="none" xmlns="http://www.w3.org/2000/svg">
<path d="M8.27539 7.98438V35H2.22656V7.98438H8.27539ZM18.9072 19.377V24.0527H6.58691V19.377H18.9072ZM20.0947 7.98438V12.6787H6.58691V7.98438H20.0947Z" fill="#FED253"/>
<path d="M33.3799 30.2129V21.6035C33.3799 20.9974 33.2871 20.4779 33.1016 20.0449C32.916 19.612 32.6253 19.2718 32.2295 19.0244C31.8337 18.777 31.3203 18.6533 30.6895 18.6533C30.1576 18.6533 29.6937 18.7461 29.2979 18.9316C28.9144 19.1172 28.6175 19.3831 28.4072 19.7295C28.2093 20.0758 28.1104 20.5026 28.1104 21.0098H22.3213C22.3213 20.1068 22.5254 19.2656 22.9336 18.4863C23.3418 17.707 23.9232 17.0205 24.6777 16.4268C25.4447 15.833 26.36 15.3753 27.4238 15.0537C28.4876 14.7197 29.6813 14.5527 31.0049 14.5527C32.5758 14.5527 33.9736 14.8187 35.1982 15.3506C36.4352 15.8701 37.4124 16.6556 38.1299 17.707C38.8473 18.7461 39.2061 20.0573 39.2061 21.6406V30.0459C39.2061 31.2581 39.2741 32.2106 39.4102 32.9033C39.5586 33.5837 39.7689 34.1774 40.041 34.6846V35H34.1963C33.9242 34.4186 33.7201 33.7012 33.584 32.8477C33.4479 31.9818 33.3799 31.1035 33.3799 30.2129ZM34.1035 22.7539L34.1406 25.9453H31.2646C30.6214 25.9453 30.0648 26.0257 29.5947 26.1865C29.137 26.3473 28.766 26.57 28.4814 26.8545C28.1969 27.1266 27.9867 27.4482 27.8506 27.8193C27.7269 28.1781 27.665 28.5739 27.665 29.0068C27.665 29.415 27.764 29.7861 27.9619 30.1201C28.1598 30.4417 28.432 30.6953 28.7783 30.8809C29.1247 31.0664 29.5267 31.1592 29.9844 31.1592C30.7389 31.1592 31.3822 31.0107 31.9141 30.7139C32.4583 30.417 32.8789 30.0583 33.1758 29.6377C33.4727 29.2048 33.6211 28.8027 33.6211 28.4316L35.0127 30.8438C34.79 31.3385 34.5179 31.8519 34.1963 32.3838C33.8747 32.9033 33.4665 33.3919 32.9717 33.8496C32.4769 34.2949 31.877 34.6598 31.1719 34.9443C30.4792 35.2288 29.6442 35.3711 28.667 35.3711C27.4053 35.3711 26.2611 35.1175 25.2344 34.6104C24.2077 34.0908 23.3851 33.3796 22.7666 32.4766C22.1605 31.5736 21.8574 30.5345 21.8574 29.3594C21.8574 28.3079 22.0492 27.374 22.4326 26.5576C22.8161 25.7412 23.3913 25.0485 24.1582 24.4795C24.9375 23.9105 25.9147 23.4837 27.0898 23.1992C28.265 22.9023 29.638 22.7539 31.209 22.7539H34.1035ZM51.3965 30.8623C52.015 30.8623 52.5531 30.7448 53.0107 30.5098C53.4684 30.2747 53.821 29.9469 54.0684 29.5264C54.3281 29.0934 54.458 28.5739 54.458 27.9678H59.9131C59.9131 29.4274 59.5358 30.7139 58.7812 31.8271C58.0391 32.9404 57.0371 33.8125 55.7754 34.4434C54.5137 35.0618 53.0911 35.3711 51.5078 35.3711C49.9492 35.3711 48.5885 35.1175 47.4258 34.6104C46.263 34.0908 45.292 33.3672 44.5127 32.4395C43.7334 31.5117 43.1458 30.4355 42.75 29.2109C42.3665 27.974 42.1748 26.638 42.1748 25.2031V24.7207C42.1748 23.2982 42.3665 21.9684 42.75 20.7314C43.1458 19.4945 43.7334 18.4121 44.5127 17.4844C45.292 16.5566 46.2568 15.8392 47.4072 15.332C48.57 14.8125 49.9307 14.5527 51.4893 14.5527C53.1344 14.5527 54.5879 14.8682 55.8496 15.499C57.1237 16.1299 58.1195 17.0391 58.8369 18.2266C59.5544 19.4017 59.9131 20.818 59.9131 22.4756H54.458C54.458 21.8324 54.3405 21.2572 54.1055 20.75C53.8828 20.2305 53.5365 19.8223 53.0664 19.5254C52.6087 19.2161 52.0397 19.0615 51.3594 19.0615C50.6543 19.0615 50.0729 19.2161 49.6152 19.5254C49.1699 19.8223 48.8298 20.2367 48.5947 20.7686C48.3597 21.3005 48.1989 21.9066 48.1123 22.5869C48.0257 23.2549 47.9824 23.9661 47.9824 24.7207V25.2031C47.9824 25.9701 48.0257 26.6999 48.1123 27.3926C48.1989 28.0729 48.3597 28.6729 48.5947 29.1924C48.8421 29.7119 49.1885 30.1201 49.6338 30.417C50.0791 30.7139 50.6667 30.8623 51.3965 30.8623ZM68.8936 14.9238V35H63.0859V14.9238H68.8936ZM62.7334 9.72852C62.7334 8.88737 63.0303 8.20085 63.624 7.66895C64.2178 7.12467 64.9971 6.85254 65.9619 6.85254C66.9268 6.85254 67.7061 7.12467 68.2998 7.66895C68.9059 8.20085 69.209 8.88737 69.209 9.72852C69.209 10.5573 68.9059 11.2438 68.2998 11.7881C67.7061 12.32 66.9268 12.5859 65.9619 12.5859C64.9971 12.5859 64.2178 12.32 63.624 11.7881C63.0303 11.2438 62.7334 10.5573 62.7334 9.72852ZM83.2734 14.9238V18.9873H71.3613V14.9238H83.2734ZM74.0889 9.95117H79.8965V28.71C79.8965 29.2666 79.9645 29.6934 80.1006 29.9902C80.2367 30.2871 80.4593 30.4974 80.7686 30.6211C81.0778 30.7324 81.4736 30.7881 81.9561 30.7881C82.3024 30.7881 82.5993 30.7757 82.8467 30.751C83.0941 30.7262 83.3229 30.6953 83.5332 30.6582V34.8516C83.0384 35.0124 82.5127 35.1361 81.9561 35.2227C81.3994 35.3216 80.7933 35.3711 80.1377 35.3711C78.8883 35.3711 77.806 35.167 76.8906 34.7588C75.9876 34.3506 75.2949 33.7074 74.8125 32.8291C74.3301 31.9385 74.0889 30.7819 74.0889 29.3594V9.95117ZM92.1611 14.9238V35H86.3535V14.9238H92.1611ZM86.001 9.72852C86.001 8.88737 86.2979 8.20085 86.8916 7.66895C87.4854 7.12467 88.2646 6.85254 89.2295 6.85254C90.1943 6.85254 90.9736 7.12467 91.5674 7.66895C92.1735 8.20085 92.4766 8.88737 92.4766 9.72852C92.4766 10.5573 92.1735 11.2438 91.5674 11.7881C90.9736 12.32 90.1943 12.5859 89.2295 12.5859C88.2646 12.5859 87.4854 12.32 86.8916 11.7881C86.2979 11.2438 86.001 10.5573 86.001 9.72852ZM95.501 25.166V24.7764C95.501 23.3044 95.7113 21.9499 96.1318 20.7129C96.5524 19.4635 97.1709 18.3812 97.9873 17.4658C98.8037 16.5505 99.8057 15.8392 100.993 15.332C102.181 14.8125 103.541 14.5527 105.075 14.5527C106.634 14.5527 108.007 14.8125 109.194 15.332C110.394 15.8392 111.402 16.5505 112.219 17.4658C113.035 18.3812 113.654 19.4635 114.074 20.7129C114.495 21.9499 114.705 23.3044 114.705 24.7764V25.166C114.705 26.6257 114.495 27.9801 114.074 29.2295C113.654 30.4665 113.035 31.5488 112.219 32.4766C111.402 33.3919 110.4 34.1032 109.213 34.6104C108.025 35.1175 106.659 35.3711 105.112 35.3711C103.578 35.3711 102.212 35.1175 101.012 34.6104C99.8118 34.1032 98.8037 33.3919 97.9873 32.4766C97.1709 31.5488 96.5524 30.4665 96.1318 29.2295C95.7113 27.9801 95.501 26.6257 95.501 25.166ZM101.309 24.7764V25.166C101.309 25.9577 101.37 26.6999 101.494 27.3926C101.63 28.0853 101.847 28.6914 102.144 29.2109C102.44 29.7305 102.83 30.1387 103.312 30.4355C103.807 30.7201 104.407 30.8623 105.112 30.8623C105.817 30.8623 106.411 30.7201 106.894 30.4355C107.376 30.1387 107.766 29.7305 108.062 29.2109C108.359 28.6914 108.57 28.0853 108.693 27.3926C108.829 26.6999 108.897 25.9577 108.897 25.166V24.7764C108.897 23.9971 108.829 23.2673 108.693 22.5869C108.57 21.8942 108.359 21.2819 108.062 20.75C107.766 20.2181 107.37 19.8037 106.875 19.5068C106.393 19.21 105.793 19.0615 105.075 19.0615C104.382 19.0615 103.795 19.21 103.312 19.5068C102.83 19.8037 102.44 20.2181 102.144 20.75C101.847 21.2819 101.63 21.8942 101.494 22.5869C101.37 23.2673 101.309 23.9971 101.309 24.7764Z" fill="black"/>
</svg>
